G04 #@! TF.GenerationSoftware,KiCad,Pcbnew,(5.1.6)-1*
G04 #@! TF.CreationDate,2024-01-16T16:31:11-05:00*
G04 #@! TF.ProjectId,amiga-500-usb-kb-rp2040,616d6967-612d-4353-9030-2d7573622d6b,rev?*
G04 #@! TF.SameCoordinates,Original*
G04 #@! TF.FileFunction,Copper,L4,Bot*
G04 #@! TF.FilePolarity,Positive*
%FSLAX46Y46*%
G04 Gerber Fmt 4.6, Leading zero omitted, Abs format (unit mm)*
G04 Created by KiCad (PCBNEW (5.1.6)-1) date 2024-01-16 16:31:11*
%MOMM*%
%LPD*%
G01*
G04 APERTURE LIST*
G04 #@! TA.AperFunction,ComponentPad*
%ADD10R,1.700000X1.700000*%
G04 #@! TD*
G04 #@! TA.AperFunction,ComponentPad*
%ADD11O,1.700000X1.700000*%
G04 #@! TD*
G04 #@! TA.AperFunction,ViaPad*
%ADD12C,0.600000*%
G04 #@! TD*
G04 #@! TA.AperFunction,ViaPad*
%ADD13C,0.400000*%
G04 #@! TD*
G04 #@! TA.AperFunction,ViaPad*
%ADD14C,0.800000*%
G04 #@! TD*
G04 #@! TA.AperFunction,Conductor*
%ADD15C,0.400000*%
G04 #@! TD*
G04 #@! TA.AperFunction,Conductor*
%ADD16C,0.250000*%
G04 #@! TD*
G04 #@! TA.AperFunction,Conductor*
%ADD17C,0.150000*%
G04 #@! TD*
G04 #@! TA.AperFunction,Conductor*
%ADD18C,0.254000*%
G04 #@! TD*
G04 APERTURE END LIST*
D10*
X132842000Y-82804000D03*
D11*
X132842000Y-80264000D03*
X132842000Y-77724000D03*
X132842000Y-75184000D03*
X158861760Y-64414400D03*
X156321760Y-64414400D03*
X153781760Y-64414400D03*
X151241760Y-64414400D03*
X148701760Y-64414400D03*
X146161760Y-64414400D03*
X143621760Y-64414400D03*
D10*
X141081760Y-64414400D03*
X141080000Y-68135500D03*
D11*
X143620000Y-68135500D03*
X146160000Y-68135500D03*
X148700000Y-68135500D03*
X151240000Y-68135500D03*
X153780000Y-68135500D03*
X156320000Y-68135500D03*
X158860000Y-68135500D03*
X166878000Y-82740500D03*
D10*
X166878000Y-80200500D03*
X166878000Y-86487000D03*
D11*
X166878000Y-89027000D03*
D12*
X148704439Y-88353622D03*
X147802878Y-87452061D03*
X146901317Y-86550500D03*
X149606000Y-87452061D03*
X148704439Y-86550500D03*
X147802878Y-85648939D03*
X150507561Y-86550500D03*
X149606000Y-85648939D03*
X148704439Y-84747378D03*
D13*
X153606500Y-89408000D03*
X151130000Y-92011500D03*
X154051000Y-94424500D03*
X157480000Y-82042000D03*
X161036000Y-72834500D03*
X162172500Y-74238000D03*
X141414500Y-91630500D03*
X141732000Y-74866500D03*
X139954000Y-74803000D03*
X147447000Y-66294000D03*
X157543500Y-66230500D03*
X157162500Y-70612000D03*
X144780000Y-66294000D03*
X141986000Y-71056500D03*
X135318500Y-78994000D03*
X147891500Y-95186500D03*
X146304000Y-87566500D03*
X156019500Y-76644500D03*
D14*
X131953000Y-69278500D03*
X138938000Y-69786500D03*
X140843000Y-69786500D03*
D13*
X148653500Y-79565500D03*
X147579234Y-84576766D03*
X146240500Y-79565500D03*
X145605500Y-83185000D03*
X147383500Y-79565500D03*
X147002500Y-85153504D03*
X133858000Y-71120000D03*
X148717000Y-89789000D03*
X148653500Y-92265500D03*
X146967624Y-91759376D03*
X153035000Y-84328000D03*
X152654000Y-83345000D03*
X140144500Y-79629000D03*
X150749004Y-85026500D03*
X140144500Y-80264000D03*
X151478669Y-85756169D03*
D15*
X147049000Y-69786500D02*
X140843000Y-69786500D01*
X148700000Y-68135500D02*
X147049000Y-69786500D01*
X140843000Y-69786500D02*
X138938000Y-69786500D01*
X138938000Y-76708000D02*
X132842000Y-82804000D01*
X138938000Y-69786500D02*
X138938000Y-76708000D01*
D16*
X141080000Y-66956160D02*
X143621760Y-64414400D01*
X141080000Y-68135500D02*
X141080000Y-66956160D01*
D17*
X131381500Y-76263500D02*
X132842000Y-77724000D01*
X131381500Y-74485500D02*
X131381500Y-76263500D01*
X133858000Y-71120000D02*
X133858000Y-72009000D01*
X133858000Y-72009000D02*
X131381500Y-74485500D01*
X148717000Y-89789000D02*
X148717000Y-92202000D01*
X148717000Y-92202000D02*
X148653500Y-92265500D01*
X146967624Y-90835374D02*
X148585498Y-89217500D01*
X146967624Y-91759376D02*
X146967624Y-90835374D01*
X148585498Y-89217500D02*
X149288500Y-89217500D01*
X151953670Y-85409330D02*
X153035000Y-84328000D01*
X149288500Y-89217500D02*
X151953670Y-86552330D01*
X151953670Y-86552330D02*
X151953670Y-85409330D01*
X153035000Y-84328000D02*
X153035000Y-83726000D01*
X153035000Y-83726000D02*
X152654000Y-83345000D01*
X140144500Y-79629000D02*
X145351504Y-79629000D01*
X145351504Y-79629000D02*
X150749004Y-85026500D01*
X140144500Y-80264000D02*
X145288000Y-80264000D01*
X150780169Y-85756169D02*
X151478669Y-85756169D01*
X145288000Y-80264000D02*
X150780169Y-85756169D01*
D18*
G36*
X139928365Y-63261005D02*
G01*
X139875005Y-63326024D01*
X139835355Y-63400204D01*
X139810938Y-63480693D01*
X139802694Y-63564400D01*
X139802694Y-65264400D01*
X139810938Y-65348107D01*
X139835355Y-65428596D01*
X139875005Y-65502776D01*
X139928365Y-65567795D01*
X139993384Y-65621155D01*
X140067564Y-65660805D01*
X140148053Y-65685222D01*
X140231760Y-65693466D01*
X141562049Y-65693466D01*
X140708852Y-66546664D01*
X140687790Y-66563949D01*
X140629060Y-66635512D01*
X140618809Y-66648003D01*
X140567552Y-66743898D01*
X140535989Y-66847950D01*
X140535153Y-66856434D01*
X140230000Y-66856434D01*
X140146293Y-66864678D01*
X140065804Y-66889095D01*
X139991624Y-66928745D01*
X139926605Y-66982105D01*
X139873245Y-67047124D01*
X139833595Y-67121304D01*
X139809178Y-67201793D01*
X139800934Y-67285500D01*
X139800934Y-68985500D01*
X139809178Y-69069207D01*
X139833595Y-69149696D01*
X139838835Y-69159500D01*
X139480553Y-69159500D01*
X139465181Y-69144128D01*
X139329731Y-69053623D01*
X139179227Y-68991282D01*
X139019452Y-68959500D01*
X138856548Y-68959500D01*
X138696773Y-68991282D01*
X138546269Y-69053623D01*
X138410819Y-69144128D01*
X138295628Y-69259319D01*
X138205123Y-69394769D01*
X138142782Y-69545273D01*
X138111000Y-69705048D01*
X138111000Y-69867952D01*
X138142782Y-70027727D01*
X138205123Y-70178231D01*
X138295628Y-70313681D01*
X138311000Y-70329053D01*
X138311001Y-76448287D01*
X134032537Y-80726752D01*
X134069926Y-80636487D01*
X134119000Y-80389774D01*
X134119000Y-80138226D01*
X134069926Y-79891513D01*
X133973663Y-79659114D01*
X133833911Y-79449960D01*
X133656040Y-79272089D01*
X133446886Y-79132337D01*
X133214487Y-79036074D01*
X133002966Y-78994000D01*
X133214487Y-78951926D01*
X133446886Y-78855663D01*
X133656040Y-78715911D01*
X133833911Y-78538040D01*
X133973663Y-78328886D01*
X134069926Y-78096487D01*
X134119000Y-77849774D01*
X134119000Y-77598226D01*
X134069926Y-77351513D01*
X133973663Y-77119114D01*
X133833911Y-76909960D01*
X133656040Y-76732089D01*
X133446886Y-76592337D01*
X133214487Y-76496074D01*
X132967774Y-76447000D01*
X132865002Y-76447000D01*
X132865002Y-76354045D01*
X133064451Y-76441477D01*
X133305498Y-76373917D01*
X133528733Y-76260629D01*
X133725578Y-76105967D01*
X133888467Y-75915874D01*
X134011141Y-75697656D01*
X134088886Y-75459698D01*
X134099476Y-75406451D01*
X134012024Y-75207000D01*
X132865000Y-75207000D01*
X132865000Y-75227000D01*
X132819000Y-75227000D01*
X132819000Y-75207000D01*
X132799000Y-75207000D01*
X132799000Y-75161000D01*
X132819000Y-75161000D01*
X132819000Y-74013956D01*
X132865000Y-74013956D01*
X132865000Y-75161000D01*
X134012024Y-75161000D01*
X134099476Y-74961549D01*
X134088886Y-74908302D01*
X134011141Y-74670344D01*
X133888467Y-74452126D01*
X133725578Y-74262033D01*
X133528733Y-74107371D01*
X133305498Y-73994083D01*
X133064451Y-73926523D01*
X132865000Y-74013956D01*
X132819000Y-74013956D01*
X132641006Y-73935929D01*
X134195538Y-72381397D01*
X134214684Y-72365684D01*
X134277417Y-72289245D01*
X134324031Y-72202036D01*
X134352736Y-72107409D01*
X134360000Y-72033653D01*
X134360000Y-72033643D01*
X134362427Y-72009000D01*
X134360000Y-71984357D01*
X134360000Y-71497274D01*
X134413640Y-71416996D01*
X134460905Y-71302889D01*
X134485000Y-71181754D01*
X134485000Y-71058246D01*
X134460905Y-70937111D01*
X134413640Y-70823004D01*
X134345023Y-70720311D01*
X134257689Y-70632977D01*
X134154996Y-70564360D01*
X134040889Y-70517095D01*
X133919754Y-70493000D01*
X133796246Y-70493000D01*
X133675111Y-70517095D01*
X133561004Y-70564360D01*
X133458311Y-70632977D01*
X133370977Y-70720311D01*
X133302360Y-70823004D01*
X133255095Y-70937111D01*
X133231000Y-71058246D01*
X133231000Y-71181754D01*
X133255095Y-71302889D01*
X133302360Y-71416996D01*
X133356000Y-71497275D01*
X133356001Y-71801064D01*
X131043968Y-74113098D01*
X131024816Y-74128816D01*
X130962083Y-74205255D01*
X130915469Y-74292465D01*
X130886764Y-74387092D01*
X130879500Y-74460848D01*
X130879500Y-74460857D01*
X130877073Y-74485500D01*
X130879500Y-74510143D01*
X130879501Y-76238847D01*
X130877073Y-76263500D01*
X130886765Y-76361909D01*
X130915470Y-76456536D01*
X130962084Y-76543745D01*
X131009101Y-76601035D01*
X131009104Y-76601038D01*
X131024817Y-76620184D01*
X131043963Y-76635897D01*
X131656691Y-77248626D01*
X131614074Y-77351513D01*
X131565000Y-77598226D01*
X131565000Y-77849774D01*
X131614074Y-78096487D01*
X131710337Y-78328886D01*
X131850089Y-78538040D01*
X132027960Y-78715911D01*
X132237114Y-78855663D01*
X132469513Y-78951926D01*
X132681034Y-78994000D01*
X132469513Y-79036074D01*
X132237114Y-79132337D01*
X132027960Y-79272089D01*
X131850089Y-79449960D01*
X131710337Y-79659114D01*
X131614074Y-79891513D01*
X131565000Y-80138226D01*
X131565000Y-80389774D01*
X131614074Y-80636487D01*
X131710337Y-80868886D01*
X131850089Y-81078040D01*
X132027960Y-81255911D01*
X132237114Y-81395663D01*
X132469513Y-81491926D01*
X132635456Y-81524934D01*
X131992000Y-81524934D01*
X131908293Y-81533178D01*
X131827804Y-81557595D01*
X131753624Y-81597245D01*
X131688605Y-81650605D01*
X131635245Y-81715624D01*
X131595595Y-81789804D01*
X131571178Y-81870293D01*
X131562934Y-81954000D01*
X131562934Y-83654000D01*
X131571178Y-83737707D01*
X131595595Y-83818196D01*
X131635245Y-83892376D01*
X131688605Y-83957395D01*
X131753624Y-84010755D01*
X131827804Y-84050405D01*
X131908293Y-84074822D01*
X131992000Y-84083066D01*
X133692000Y-84083066D01*
X133775707Y-84074822D01*
X133856196Y-84050405D01*
X133930376Y-84010755D01*
X133995395Y-83957395D01*
X134048755Y-83892376D01*
X134088405Y-83818196D01*
X134112822Y-83737707D01*
X134121066Y-83654000D01*
X134121066Y-83123246D01*
X144978500Y-83123246D01*
X144978500Y-83246754D01*
X145002595Y-83367889D01*
X145049860Y-83481996D01*
X145118477Y-83584689D01*
X145205811Y-83672023D01*
X145308504Y-83740640D01*
X145422611Y-83787905D01*
X145543746Y-83812000D01*
X145667254Y-83812000D01*
X145788389Y-83787905D01*
X145902496Y-83740640D01*
X146005189Y-83672023D01*
X146092523Y-83584689D01*
X146161140Y-83481996D01*
X146208405Y-83367889D01*
X146232500Y-83246754D01*
X146232500Y-83123246D01*
X146208405Y-83002111D01*
X146161140Y-82888004D01*
X146092523Y-82785311D01*
X146005189Y-82697977D01*
X145902496Y-82629360D01*
X145788389Y-82582095D01*
X145667254Y-82558000D01*
X145543746Y-82558000D01*
X145422611Y-82582095D01*
X145308504Y-82629360D01*
X145205811Y-82697977D01*
X145118477Y-82785311D01*
X145049860Y-82888004D01*
X145002595Y-83002111D01*
X144978500Y-83123246D01*
X134121066Y-83123246D01*
X134121066Y-82411645D01*
X136965465Y-79567246D01*
X139517500Y-79567246D01*
X139517500Y-79690754D01*
X139541595Y-79811889D01*
X139588860Y-79925996D01*
X139602560Y-79946500D01*
X139588860Y-79967004D01*
X139541595Y-80081111D01*
X139517500Y-80202246D01*
X139517500Y-80325754D01*
X139541595Y-80446889D01*
X139588860Y-80560996D01*
X139657477Y-80663689D01*
X139744811Y-80751023D01*
X139847504Y-80819640D01*
X139961611Y-80866905D01*
X140082746Y-80891000D01*
X140206254Y-80891000D01*
X140327389Y-80866905D01*
X140441496Y-80819640D01*
X140521774Y-80766000D01*
X145080066Y-80766000D01*
X148400123Y-84086058D01*
X148303323Y-84136835D01*
X148205467Y-84215876D01*
X148204585Y-84214994D01*
X148196288Y-84223291D01*
X148191919Y-84226820D01*
X148187705Y-84231874D01*
X148172055Y-84247524D01*
X148173473Y-84248942D01*
X148139154Y-84290103D01*
X148134874Y-84279770D01*
X148066257Y-84177077D01*
X147978923Y-84089743D01*
X147876230Y-84021126D01*
X147762123Y-83973861D01*
X147640988Y-83949766D01*
X147517480Y-83949766D01*
X147396345Y-83973861D01*
X147282238Y-84021126D01*
X147179545Y-84089743D01*
X147092211Y-84177077D01*
X147023594Y-84279770D01*
X146976329Y-84393877D01*
X146952234Y-84515012D01*
X146952234Y-84526504D01*
X146940746Y-84526504D01*
X146819611Y-84550599D01*
X146705504Y-84597864D01*
X146602811Y-84666481D01*
X146515477Y-84753815D01*
X146446860Y-84856508D01*
X146399595Y-84970615D01*
X146375500Y-85091750D01*
X146375500Y-85215258D01*
X146399595Y-85336393D01*
X146446860Y-85450500D01*
X146515477Y-85553193D01*
X146602811Y-85640527D01*
X146705504Y-85709144D01*
X146819611Y-85756409D01*
X146940746Y-85780504D01*
X147064254Y-85780504D01*
X147094773Y-85774434D01*
X147085309Y-85785877D01*
X147104945Y-85852469D01*
X147049404Y-85835148D01*
X147038255Y-85832931D01*
X146924317Y-85927156D01*
X146924317Y-86494971D01*
X146915458Y-86503830D01*
X146924317Y-86512689D01*
X146924317Y-86527500D01*
X146939128Y-86527500D01*
X146947987Y-86536359D01*
X146956846Y-86527500D01*
X147524661Y-86527500D01*
X147618886Y-86413562D01*
X147599250Y-86346970D01*
X147654791Y-86364291D01*
X147665940Y-86366508D01*
X147779878Y-86272283D01*
X147779878Y-85704468D01*
X147788737Y-85695609D01*
X147817019Y-85695609D01*
X147825878Y-85704468D01*
X147825878Y-86272283D01*
X147939816Y-86366508D01*
X148006408Y-86346872D01*
X147989087Y-86402413D01*
X147986870Y-86413562D01*
X148081095Y-86527500D01*
X148648910Y-86527500D01*
X148657769Y-86536359D01*
X148666628Y-86527500D01*
X148681439Y-86527500D01*
X148681439Y-86512689D01*
X148690298Y-86503830D01*
X148718580Y-86503830D01*
X148727439Y-86512689D01*
X148727439Y-86527500D01*
X148742250Y-86527500D01*
X148751109Y-86536359D01*
X148759968Y-86527500D01*
X149327783Y-86527500D01*
X149422008Y-86413562D01*
X149402372Y-86346970D01*
X149457913Y-86364291D01*
X149469062Y-86366508D01*
X149583000Y-86272283D01*
X149583000Y-85704468D01*
X149591859Y-85695609D01*
X149583000Y-85686750D01*
X149583000Y-85671939D01*
X149568189Y-85671939D01*
X149559330Y-85663080D01*
X149550471Y-85671939D01*
X148982656Y-85671939D01*
X148888431Y-85785877D01*
X148908067Y-85852469D01*
X148852526Y-85835148D01*
X148841377Y-85832931D01*
X148727439Y-85927156D01*
X148727439Y-86494971D01*
X148718580Y-86503830D01*
X148690298Y-86503830D01*
X148681439Y-86494971D01*
X148681439Y-85927156D01*
X148567501Y-85832931D01*
X148500909Y-85852567D01*
X148518230Y-85797026D01*
X148520447Y-85785877D01*
X148426222Y-85671939D01*
X147858407Y-85671939D01*
X147849548Y-85663080D01*
X147840689Y-85671939D01*
X147825878Y-85671939D01*
X147825878Y-85686750D01*
X147817019Y-85695609D01*
X147788737Y-85695609D01*
X147779878Y-85686750D01*
X147779878Y-85671939D01*
X147765067Y-85671939D01*
X147756208Y-85663080D01*
X147747349Y-85671939D01*
X147355177Y-85671939D01*
X147402189Y-85640527D01*
X147416777Y-85625939D01*
X147747349Y-85625939D01*
X147756208Y-85634798D01*
X147765067Y-85625939D01*
X147779878Y-85625939D01*
X147779878Y-85611128D01*
X147788737Y-85602269D01*
X147779878Y-85593410D01*
X147779878Y-85172317D01*
X147825878Y-85153263D01*
X147825878Y-85593410D01*
X147817019Y-85602269D01*
X147825878Y-85611128D01*
X147825878Y-85625939D01*
X147840689Y-85625939D01*
X147849548Y-85634798D01*
X147858407Y-85625939D01*
X148426222Y-85625939D01*
X148520447Y-85512001D01*
X148500811Y-85445409D01*
X148556352Y-85462730D01*
X148567501Y-85464947D01*
X148681439Y-85370722D01*
X148681439Y-84802907D01*
X148690298Y-84794048D01*
X148681439Y-84785189D01*
X148681439Y-84770378D01*
X148666628Y-84770378D01*
X148657769Y-84761519D01*
X148648910Y-84770378D01*
X148177697Y-84770378D01*
X148182139Y-84759655D01*
X148189156Y-84724378D01*
X148648910Y-84724378D01*
X148657769Y-84733237D01*
X148666628Y-84724378D01*
X148681439Y-84724378D01*
X148681439Y-84709567D01*
X148690298Y-84700708D01*
X148681439Y-84691849D01*
X148681439Y-84367374D01*
X148727439Y-84413374D01*
X148727439Y-84691849D01*
X148718580Y-84700708D01*
X148727439Y-84709567D01*
X148727439Y-84724378D01*
X148742250Y-84724378D01*
X148751109Y-84733237D01*
X148759968Y-84724378D01*
X149038443Y-84724378D01*
X149084443Y-84770378D01*
X148759968Y-84770378D01*
X148751109Y-84761519D01*
X148742250Y-84770378D01*
X148727439Y-84770378D01*
X148727439Y-84785189D01*
X148718580Y-84794048D01*
X148727439Y-84802907D01*
X148727439Y-85370722D01*
X148841377Y-85464947D01*
X148907969Y-85445311D01*
X148890648Y-85500852D01*
X148888431Y-85512001D01*
X148982656Y-85625939D01*
X149550471Y-85625939D01*
X149559330Y-85634798D01*
X149568189Y-85625939D01*
X149583000Y-85625939D01*
X149583000Y-85611128D01*
X149591859Y-85602269D01*
X149583000Y-85593410D01*
X149583000Y-85268935D01*
X149629000Y-85314935D01*
X149629000Y-85593410D01*
X149620141Y-85602269D01*
X149629000Y-85611128D01*
X149629000Y-85625939D01*
X149643811Y-85625939D01*
X149652670Y-85634798D01*
X149661529Y-85625939D01*
X149940004Y-85625939D01*
X149986004Y-85671939D01*
X149661529Y-85671939D01*
X149652670Y-85663080D01*
X149643811Y-85671939D01*
X149629000Y-85671939D01*
X149629000Y-85686750D01*
X149620141Y-85695609D01*
X149629000Y-85704468D01*
X149629000Y-86272283D01*
X149742938Y-86366508D01*
X149809530Y-86346872D01*
X149792209Y-86402413D01*
X149789992Y-86413562D01*
X149884217Y-86527500D01*
X150452032Y-86527500D01*
X150460891Y-86536359D01*
X150469750Y-86527500D01*
X150484561Y-86527500D01*
X150484561Y-86512689D01*
X150493420Y-86503830D01*
X150484561Y-86494971D01*
X150484561Y-86162978D01*
X150499924Y-86175586D01*
X150530561Y-86191962D01*
X150530561Y-86494971D01*
X150521702Y-86503830D01*
X150530561Y-86512689D01*
X150530561Y-86527500D01*
X150545372Y-86527500D01*
X150554231Y-86536359D01*
X150563090Y-86527500D01*
X151130905Y-86527500D01*
X151225130Y-86413562D01*
X151196998Y-86318157D01*
X151295780Y-86359074D01*
X151413563Y-86382502D01*
X151172395Y-86623670D01*
X151130905Y-86573500D01*
X150563090Y-86573500D01*
X150554231Y-86564641D01*
X150545372Y-86573500D01*
X150530561Y-86573500D01*
X150530561Y-86588311D01*
X150521702Y-86597170D01*
X150530561Y-86606029D01*
X150530561Y-87173844D01*
X150580731Y-87215334D01*
X150270834Y-87525231D01*
X150229344Y-87475061D01*
X149661529Y-87475061D01*
X149652670Y-87466202D01*
X149643811Y-87475061D01*
X149629000Y-87475061D01*
X149629000Y-87489872D01*
X149620141Y-87498731D01*
X149629000Y-87507590D01*
X149629000Y-88075405D01*
X149679170Y-88116895D01*
X149369273Y-88426793D01*
X149327783Y-88376622D01*
X148759968Y-88376622D01*
X148751109Y-88367763D01*
X148742250Y-88376622D01*
X148727439Y-88376622D01*
X148727439Y-88391433D01*
X148718580Y-88400292D01*
X148727439Y-88409151D01*
X148727439Y-88715500D01*
X148681439Y-88715500D01*
X148681439Y-88409151D01*
X148690298Y-88400292D01*
X148681439Y-88391433D01*
X148681439Y-88376622D01*
X148666628Y-88376622D01*
X148657769Y-88367763D01*
X148648910Y-88376622D01*
X148081095Y-88376622D01*
X147986870Y-88490560D01*
X148027373Y-88627920D01*
X148093896Y-88754738D01*
X148172937Y-88852594D01*
X148172055Y-88853476D01*
X148180352Y-88861773D01*
X148183881Y-88866142D01*
X148188934Y-88870355D01*
X148204585Y-88886006D01*
X148206004Y-88884587D01*
X148207352Y-88885711D01*
X146630087Y-90462977D01*
X146610941Y-90478690D01*
X146595228Y-90497836D01*
X146595225Y-90497839D01*
X146548208Y-90555129D01*
X146501594Y-90642338D01*
X146472889Y-90736965D01*
X146463197Y-90835374D01*
X146465625Y-90860027D01*
X146465624Y-91382101D01*
X146411984Y-91462380D01*
X146364719Y-91576487D01*
X146340624Y-91697622D01*
X146340624Y-91821130D01*
X146364719Y-91942265D01*
X146411984Y-92056372D01*
X146480601Y-92159065D01*
X146567935Y-92246399D01*
X146670628Y-92315016D01*
X146784735Y-92362281D01*
X146905870Y-92386376D01*
X147029378Y-92386376D01*
X147150513Y-92362281D01*
X147264620Y-92315016D01*
X147367313Y-92246399D01*
X147454647Y-92159065D01*
X147523264Y-92056372D01*
X147570529Y-91942265D01*
X147594624Y-91821130D01*
X147594624Y-91697622D01*
X147570529Y-91576487D01*
X147523264Y-91462380D01*
X147469624Y-91382102D01*
X147469624Y-91043308D01*
X148215000Y-90297932D01*
X148215001Y-91817287D01*
X148166477Y-91865811D01*
X148097860Y-91968504D01*
X148050595Y-92082611D01*
X148026500Y-92203746D01*
X148026500Y-92327254D01*
X148050595Y-92448389D01*
X148097860Y-92562496D01*
X148166477Y-92665189D01*
X148253811Y-92752523D01*
X148356504Y-92821140D01*
X148470611Y-92868405D01*
X148591746Y-92892500D01*
X148715254Y-92892500D01*
X148836389Y-92868405D01*
X148950496Y-92821140D01*
X149053189Y-92752523D01*
X149140523Y-92665189D01*
X149209140Y-92562496D01*
X149256405Y-92448389D01*
X149280500Y-92327254D01*
X149280500Y-92203746D01*
X149256405Y-92082611D01*
X149219000Y-91992308D01*
X149219000Y-91949746D01*
X150503000Y-91949746D01*
X150503000Y-92073254D01*
X150527095Y-92194389D01*
X150574360Y-92308496D01*
X150642977Y-92411189D01*
X150730311Y-92498523D01*
X150833004Y-92567140D01*
X150947111Y-92614405D01*
X151068246Y-92638500D01*
X151191754Y-92638500D01*
X151312889Y-92614405D01*
X151426996Y-92567140D01*
X151529689Y-92498523D01*
X151617023Y-92411189D01*
X151685640Y-92308496D01*
X151732905Y-92194389D01*
X151757000Y-92073254D01*
X151757000Y-91949746D01*
X151732905Y-91828611D01*
X151685640Y-91714504D01*
X151617023Y-91611811D01*
X151529689Y-91524477D01*
X151426996Y-91455860D01*
X151312889Y-91408595D01*
X151191754Y-91384500D01*
X151068246Y-91384500D01*
X150947111Y-91408595D01*
X150833004Y-91455860D01*
X150730311Y-91524477D01*
X150642977Y-91611811D01*
X150574360Y-91714504D01*
X150527095Y-91828611D01*
X150503000Y-91949746D01*
X149219000Y-91949746D01*
X149219000Y-90166274D01*
X149272640Y-90085996D01*
X149319905Y-89971889D01*
X149344000Y-89850754D01*
X149344000Y-89727246D01*
X149341896Y-89716669D01*
X149386909Y-89712236D01*
X149481536Y-89683531D01*
X149568745Y-89636917D01*
X149645184Y-89574184D01*
X149660902Y-89555032D01*
X149869688Y-89346246D01*
X152979500Y-89346246D01*
X152979500Y-89469754D01*
X153003595Y-89590889D01*
X153050860Y-89704996D01*
X153119477Y-89807689D01*
X153206811Y-89895023D01*
X153309504Y-89963640D01*
X153423611Y-90010905D01*
X153544746Y-90035000D01*
X153668254Y-90035000D01*
X153789389Y-90010905D01*
X153903496Y-89963640D01*
X154006189Y-89895023D01*
X154093523Y-89807689D01*
X154162140Y-89704996D01*
X154209405Y-89590889D01*
X154233500Y-89469754D01*
X154233500Y-89346246D01*
X154214247Y-89249451D01*
X165620524Y-89249451D01*
X165631114Y-89302698D01*
X165708859Y-89540656D01*
X165831533Y-89758874D01*
X165994422Y-89948967D01*
X166191267Y-90103629D01*
X166414502Y-90216917D01*
X166655549Y-90284477D01*
X166855000Y-90197044D01*
X166855000Y-89050000D01*
X166901000Y-89050000D01*
X166901000Y-90197044D01*
X167100451Y-90284477D01*
X167341498Y-90216917D01*
X167564733Y-90103629D01*
X167761578Y-89948967D01*
X167924467Y-89758874D01*
X168047141Y-89540656D01*
X168124886Y-89302698D01*
X168135476Y-89249451D01*
X168048024Y-89050000D01*
X166901000Y-89050000D01*
X166855000Y-89050000D01*
X165707976Y-89050000D01*
X165620524Y-89249451D01*
X154214247Y-89249451D01*
X154209405Y-89225111D01*
X154162140Y-89111004D01*
X154093523Y-89008311D01*
X154006189Y-88920977D01*
X153903496Y-88852360D01*
X153789389Y-88805095D01*
X153668254Y-88781000D01*
X153544746Y-88781000D01*
X153423611Y-88805095D01*
X153309504Y-88852360D01*
X153206811Y-88920977D01*
X153119477Y-89008311D01*
X153050860Y-89111004D01*
X153003595Y-89225111D01*
X152979500Y-89346246D01*
X149869688Y-89346246D01*
X152291208Y-86924727D01*
X152310354Y-86909014D01*
X152326067Y-86889868D01*
X152326070Y-86889865D01*
X152373087Y-86832576D01*
X152419701Y-86745367D01*
X152448406Y-86650740D01*
X152449277Y-86641898D01*
X152455670Y-86576983D01*
X152455670Y-86576976D01*
X152458097Y-86552330D01*
X152455670Y-86527685D01*
X152455670Y-85637000D01*
X165598934Y-85637000D01*
X165598934Y-87337000D01*
X165607178Y-87420707D01*
X165631595Y-87501196D01*
X165671245Y-87575376D01*
X165724605Y-87640395D01*
X165789624Y-87693755D01*
X165863804Y-87733405D01*
X165944293Y-87757822D01*
X166028000Y-87766066D01*
X166854998Y-87766066D01*
X166854998Y-87856955D01*
X166655549Y-87769523D01*
X166414502Y-87837083D01*
X166191267Y-87950371D01*
X165994422Y-88105033D01*
X165831533Y-88295126D01*
X165708859Y-88513344D01*
X165631114Y-88751302D01*
X165620524Y-88804549D01*
X165707976Y-89004000D01*
X166855000Y-89004000D01*
X166855000Y-88984000D01*
X166901000Y-88984000D01*
X166901000Y-89004000D01*
X168048024Y-89004000D01*
X168135476Y-88804549D01*
X168124886Y-88751302D01*
X168047141Y-88513344D01*
X167924467Y-88295126D01*
X167761578Y-88105033D01*
X167564733Y-87950371D01*
X167341498Y-87837083D01*
X167100451Y-87769523D01*
X166901002Y-87856955D01*
X166901002Y-87766066D01*
X167728000Y-87766066D01*
X167811707Y-87757822D01*
X167892196Y-87733405D01*
X167966376Y-87693755D01*
X168031395Y-87640395D01*
X168084755Y-87575376D01*
X168124405Y-87501196D01*
X168148822Y-87420707D01*
X168157066Y-87337000D01*
X168157066Y-85637000D01*
X168148822Y-85553293D01*
X168124405Y-85472804D01*
X168084755Y-85398624D01*
X168031395Y-85333605D01*
X167966376Y-85280245D01*
X167892196Y-85240595D01*
X167811707Y-85216178D01*
X167728000Y-85207934D01*
X166028000Y-85207934D01*
X165944293Y-85216178D01*
X165863804Y-85240595D01*
X165789624Y-85280245D01*
X165724605Y-85333605D01*
X165671245Y-85398624D01*
X165631595Y-85472804D01*
X165607178Y-85553293D01*
X165598934Y-85637000D01*
X152455670Y-85637000D01*
X152455670Y-85617264D01*
X153123194Y-84949741D01*
X153217889Y-84930905D01*
X153331996Y-84883640D01*
X153434689Y-84815023D01*
X153522023Y-84727689D01*
X153590640Y-84624996D01*
X153637905Y-84510889D01*
X153662000Y-84389754D01*
X153662000Y-84266246D01*
X153637905Y-84145111D01*
X153590640Y-84031004D01*
X153537000Y-83950726D01*
X153537000Y-83750642D01*
X153539427Y-83725999D01*
X153537000Y-83701356D01*
X153537000Y-83701347D01*
X153529736Y-83627591D01*
X153501031Y-83532964D01*
X153454417Y-83445755D01*
X153391684Y-83369316D01*
X153372538Y-83353603D01*
X153275741Y-83256806D01*
X153256905Y-83162111D01*
X153209640Y-83048004D01*
X153152810Y-82962951D01*
X165620524Y-82962951D01*
X165631114Y-83016198D01*
X165708859Y-83254156D01*
X165831533Y-83472374D01*
X165994422Y-83662467D01*
X166191267Y-83817129D01*
X166414502Y-83930417D01*
X166655549Y-83997977D01*
X166855000Y-83910544D01*
X166855000Y-82763500D01*
X166901000Y-82763500D01*
X166901000Y-83910544D01*
X167100451Y-83997977D01*
X167341498Y-83930417D01*
X167564733Y-83817129D01*
X167761578Y-83662467D01*
X167924467Y-83472374D01*
X168047141Y-83254156D01*
X168124886Y-83016198D01*
X168135476Y-82962951D01*
X168048024Y-82763500D01*
X166901000Y-82763500D01*
X166855000Y-82763500D01*
X165707976Y-82763500D01*
X165620524Y-82962951D01*
X153152810Y-82962951D01*
X153141023Y-82945311D01*
X153053689Y-82857977D01*
X152950996Y-82789360D01*
X152836889Y-82742095D01*
X152715754Y-82718000D01*
X152592246Y-82718000D01*
X152471111Y-82742095D01*
X152357004Y-82789360D01*
X152254311Y-82857977D01*
X152166977Y-82945311D01*
X152098360Y-83048004D01*
X152051095Y-83162111D01*
X152027000Y-83283246D01*
X152027000Y-83406754D01*
X152051095Y-83527889D01*
X152098360Y-83641996D01*
X152166977Y-83744689D01*
X152254311Y-83832023D01*
X152357004Y-83900640D01*
X152471111Y-83947905D01*
X152527403Y-83959102D01*
X152479360Y-84031004D01*
X152432095Y-84145111D01*
X152413259Y-84239806D01*
X151616133Y-85036933D01*
X151596987Y-85052646D01*
X151581274Y-85071792D01*
X151581271Y-85071795D01*
X151534254Y-85129085D01*
X151534209Y-85129169D01*
X151416915Y-85129169D01*
X151365845Y-85139327D01*
X151376004Y-85088254D01*
X151376004Y-84964746D01*
X151351909Y-84843611D01*
X151304644Y-84729504D01*
X151236027Y-84626811D01*
X151148693Y-84539477D01*
X151046000Y-84470860D01*
X150931893Y-84423595D01*
X150837199Y-84404759D01*
X148412686Y-81980246D01*
X156853000Y-81980246D01*
X156853000Y-82103754D01*
X156877095Y-82224889D01*
X156924360Y-82338996D01*
X156992977Y-82441689D01*
X157080311Y-82529023D01*
X157183004Y-82597640D01*
X157297111Y-82644905D01*
X157418246Y-82669000D01*
X157541754Y-82669000D01*
X157662889Y-82644905D01*
X157776996Y-82597640D01*
X157879689Y-82529023D01*
X157967023Y-82441689D01*
X158035640Y-82338996D01*
X158082905Y-82224889D01*
X158107000Y-82103754D01*
X158107000Y-81980246D01*
X158082905Y-81859111D01*
X158035640Y-81745004D01*
X157967023Y-81642311D01*
X157879689Y-81554977D01*
X157776996Y-81486360D01*
X157662889Y-81439095D01*
X157541754Y-81415000D01*
X157418246Y-81415000D01*
X157297111Y-81439095D01*
X157183004Y-81486360D01*
X157080311Y-81554977D01*
X156992977Y-81642311D01*
X156924360Y-81745004D01*
X156877095Y-81859111D01*
X156853000Y-81980246D01*
X148412686Y-81980246D01*
X146547137Y-80114698D01*
X146640189Y-80052523D01*
X146727523Y-79965189D01*
X146796140Y-79862496D01*
X146812000Y-79824207D01*
X146827860Y-79862496D01*
X146896477Y-79965189D01*
X146983811Y-80052523D01*
X147086504Y-80121140D01*
X147200611Y-80168405D01*
X147321746Y-80192500D01*
X147445254Y-80192500D01*
X147566389Y-80168405D01*
X147680496Y-80121140D01*
X147783189Y-80052523D01*
X147870523Y-79965189D01*
X147939140Y-79862496D01*
X147986405Y-79748389D01*
X148010500Y-79627254D01*
X148010500Y-79503746D01*
X148026500Y-79503746D01*
X148026500Y-79627254D01*
X148050595Y-79748389D01*
X148097860Y-79862496D01*
X148166477Y-79965189D01*
X148253811Y-80052523D01*
X148356504Y-80121140D01*
X148470611Y-80168405D01*
X148591746Y-80192500D01*
X148715254Y-80192500D01*
X148836389Y-80168405D01*
X148950496Y-80121140D01*
X149053189Y-80052523D01*
X149140523Y-79965189D01*
X149209140Y-79862496D01*
X149256405Y-79748389D01*
X149280500Y-79627254D01*
X149280500Y-79503746D01*
X149256405Y-79382611D01*
X149243105Y-79350500D01*
X165598934Y-79350500D01*
X165598934Y-81050500D01*
X165607178Y-81134207D01*
X165631595Y-81214696D01*
X165671245Y-81288876D01*
X165724605Y-81353895D01*
X165789624Y-81407255D01*
X165863804Y-81446905D01*
X165944293Y-81471322D01*
X166028000Y-81479566D01*
X166854998Y-81479566D01*
X166854998Y-81570455D01*
X166655549Y-81483023D01*
X166414502Y-81550583D01*
X166191267Y-81663871D01*
X165994422Y-81818533D01*
X165831533Y-82008626D01*
X165708859Y-82226844D01*
X165631114Y-82464802D01*
X165620524Y-82518049D01*
X165707976Y-82717500D01*
X166855000Y-82717500D01*
X166855000Y-82697500D01*
X166901000Y-82697500D01*
X166901000Y-82717500D01*
X168048024Y-82717500D01*
X168135476Y-82518049D01*
X168124886Y-82464802D01*
X168047141Y-82226844D01*
X167924467Y-82008626D01*
X167761578Y-81818533D01*
X167564733Y-81663871D01*
X167341498Y-81550583D01*
X167100451Y-81483023D01*
X166901002Y-81570455D01*
X166901002Y-81479566D01*
X167728000Y-81479566D01*
X167811707Y-81471322D01*
X167892196Y-81446905D01*
X167966376Y-81407255D01*
X168031395Y-81353895D01*
X168084755Y-81288876D01*
X168124405Y-81214696D01*
X168148822Y-81134207D01*
X168157066Y-81050500D01*
X168157066Y-79350500D01*
X168148822Y-79266793D01*
X168124405Y-79186304D01*
X168084755Y-79112124D01*
X168031395Y-79047105D01*
X167966376Y-78993745D01*
X167892196Y-78954095D01*
X167811707Y-78929678D01*
X167728000Y-78921434D01*
X166028000Y-78921434D01*
X165944293Y-78929678D01*
X165863804Y-78954095D01*
X165789624Y-78993745D01*
X165724605Y-79047105D01*
X165671245Y-79112124D01*
X165631595Y-79186304D01*
X165607178Y-79266793D01*
X165598934Y-79350500D01*
X149243105Y-79350500D01*
X149209140Y-79268504D01*
X149140523Y-79165811D01*
X149053189Y-79078477D01*
X148950496Y-79009860D01*
X148836389Y-78962595D01*
X148715254Y-78938500D01*
X148591746Y-78938500D01*
X148470611Y-78962595D01*
X148356504Y-79009860D01*
X148253811Y-79078477D01*
X148166477Y-79165811D01*
X148097860Y-79268504D01*
X148050595Y-79382611D01*
X148026500Y-79503746D01*
X148010500Y-79503746D01*
X147986405Y-79382611D01*
X147939140Y-79268504D01*
X147870523Y-79165811D01*
X147783189Y-79078477D01*
X147680496Y-79009860D01*
X147566389Y-78962595D01*
X147445254Y-78938500D01*
X147321746Y-78938500D01*
X147200611Y-78962595D01*
X147086504Y-79009860D01*
X146983811Y-79078477D01*
X146896477Y-79165811D01*
X146827860Y-79268504D01*
X146812000Y-79306793D01*
X146796140Y-79268504D01*
X146727523Y-79165811D01*
X146640189Y-79078477D01*
X146537496Y-79009860D01*
X146423389Y-78962595D01*
X146302254Y-78938500D01*
X146178746Y-78938500D01*
X146057611Y-78962595D01*
X145943504Y-79009860D01*
X145840811Y-79078477D01*
X145753477Y-79165811D01*
X145691477Y-79258601D01*
X145631749Y-79209583D01*
X145544540Y-79162969D01*
X145449913Y-79134264D01*
X145376157Y-79127000D01*
X145376147Y-79127000D01*
X145351504Y-79124573D01*
X145326861Y-79127000D01*
X140521774Y-79127000D01*
X140441496Y-79073360D01*
X140327389Y-79026095D01*
X140206254Y-79002000D01*
X140082746Y-79002000D01*
X139961611Y-79026095D01*
X139847504Y-79073360D01*
X139744811Y-79141977D01*
X139657477Y-79229311D01*
X139588860Y-79332004D01*
X139541595Y-79446111D01*
X139517500Y-79567246D01*
X136965465Y-79567246D01*
X139359578Y-77173134D01*
X139383501Y-77153501D01*
X139461853Y-77058028D01*
X139520075Y-76949103D01*
X139555927Y-76830913D01*
X139565000Y-76738794D01*
X139568033Y-76708000D01*
X139565000Y-76677206D01*
X139565000Y-75297165D01*
X139657004Y-75358640D01*
X139771111Y-75405905D01*
X139892246Y-75430000D01*
X140015754Y-75430000D01*
X140136889Y-75405905D01*
X140250996Y-75358640D01*
X140353689Y-75290023D01*
X140441023Y-75202689D01*
X140509640Y-75099996D01*
X140556905Y-74985889D01*
X140581000Y-74864754D01*
X140581000Y-74804746D01*
X141105000Y-74804746D01*
X141105000Y-74928254D01*
X141129095Y-75049389D01*
X141176360Y-75163496D01*
X141244977Y-75266189D01*
X141332311Y-75353523D01*
X141435004Y-75422140D01*
X141549111Y-75469405D01*
X141670246Y-75493500D01*
X141793754Y-75493500D01*
X141914889Y-75469405D01*
X142028996Y-75422140D01*
X142131689Y-75353523D01*
X142219023Y-75266189D01*
X142287640Y-75163496D01*
X142334905Y-75049389D01*
X142359000Y-74928254D01*
X142359000Y-74804746D01*
X142334905Y-74683611D01*
X142287640Y-74569504D01*
X142219023Y-74466811D01*
X142131689Y-74379477D01*
X142028996Y-74310860D01*
X141914889Y-74263595D01*
X141793754Y-74239500D01*
X141670246Y-74239500D01*
X141549111Y-74263595D01*
X141435004Y-74310860D01*
X141332311Y-74379477D01*
X141244977Y-74466811D01*
X141176360Y-74569504D01*
X141129095Y-74683611D01*
X141105000Y-74804746D01*
X140581000Y-74804746D01*
X140581000Y-74741246D01*
X140556905Y-74620111D01*
X140509640Y-74506004D01*
X140441023Y-74403311D01*
X140353689Y-74315977D01*
X140250996Y-74247360D01*
X140136889Y-74200095D01*
X140016991Y-74176246D01*
X161545500Y-74176246D01*
X161545500Y-74299754D01*
X161569595Y-74420889D01*
X161616860Y-74534996D01*
X161685477Y-74637689D01*
X161772811Y-74725023D01*
X161875504Y-74793640D01*
X161989611Y-74840905D01*
X162110746Y-74865000D01*
X162234254Y-74865000D01*
X162355389Y-74840905D01*
X162469496Y-74793640D01*
X162572189Y-74725023D01*
X162659523Y-74637689D01*
X162728140Y-74534996D01*
X162775405Y-74420889D01*
X162799500Y-74299754D01*
X162799500Y-74176246D01*
X162775405Y-74055111D01*
X162728140Y-73941004D01*
X162659523Y-73838311D01*
X162572189Y-73750977D01*
X162469496Y-73682360D01*
X162355389Y-73635095D01*
X162234254Y-73611000D01*
X162110746Y-73611000D01*
X161989611Y-73635095D01*
X161875504Y-73682360D01*
X161772811Y-73750977D01*
X161685477Y-73838311D01*
X161616860Y-73941004D01*
X161569595Y-74055111D01*
X161545500Y-74176246D01*
X140016991Y-74176246D01*
X140015754Y-74176000D01*
X139892246Y-74176000D01*
X139771111Y-74200095D01*
X139657004Y-74247360D01*
X139565000Y-74308835D01*
X139565000Y-72772746D01*
X160409000Y-72772746D01*
X160409000Y-72896254D01*
X160433095Y-73017389D01*
X160480360Y-73131496D01*
X160548977Y-73234189D01*
X160636311Y-73321523D01*
X160739004Y-73390140D01*
X160853111Y-73437405D01*
X160974246Y-73461500D01*
X161097754Y-73461500D01*
X161218889Y-73437405D01*
X161332996Y-73390140D01*
X161435689Y-73321523D01*
X161523023Y-73234189D01*
X161591640Y-73131496D01*
X161638905Y-73017389D01*
X161663000Y-72896254D01*
X161663000Y-72772746D01*
X161638905Y-72651611D01*
X161591640Y-72537504D01*
X161523023Y-72434811D01*
X161435689Y-72347477D01*
X161332996Y-72278860D01*
X161218889Y-72231595D01*
X161097754Y-72207500D01*
X160974246Y-72207500D01*
X160853111Y-72231595D01*
X160739004Y-72278860D01*
X160636311Y-72347477D01*
X160548977Y-72434811D01*
X160480360Y-72537504D01*
X160433095Y-72651611D01*
X160409000Y-72772746D01*
X139565000Y-72772746D01*
X139565000Y-70413500D01*
X140300447Y-70413500D01*
X140315819Y-70428872D01*
X140451269Y-70519377D01*
X140601773Y-70581718D01*
X140761548Y-70613500D01*
X140924452Y-70613500D01*
X141084227Y-70581718D01*
X141234731Y-70519377D01*
X141370181Y-70428872D01*
X141385553Y-70413500D01*
X147018206Y-70413500D01*
X147049000Y-70416533D01*
X147079794Y-70413500D01*
X147171913Y-70404427D01*
X147290103Y-70368575D01*
X147399028Y-70310353D01*
X147494501Y-70232001D01*
X147514138Y-70208073D01*
X148353597Y-69368614D01*
X148574226Y-69412500D01*
X148825774Y-69412500D01*
X149072487Y-69363426D01*
X149304886Y-69267163D01*
X149514040Y-69127411D01*
X149691911Y-68949540D01*
X149831663Y-68740386D01*
X149927926Y-68507987D01*
X149970000Y-68296466D01*
X150012074Y-68507987D01*
X150108337Y-68740386D01*
X150248089Y-68949540D01*
X150425960Y-69127411D01*
X150635114Y-69267163D01*
X150867513Y-69363426D01*
X151114226Y-69412500D01*
X151365774Y-69412500D01*
X151612487Y-69363426D01*
X151844886Y-69267163D01*
X152054040Y-69127411D01*
X152231911Y-68949540D01*
X152371663Y-68740386D01*
X152467926Y-68507987D01*
X152517000Y-68261274D01*
X152517000Y-68158502D01*
X152609955Y-68158502D01*
X152522523Y-68357951D01*
X152590083Y-68598998D01*
X152703371Y-68822233D01*
X152858033Y-69019078D01*
X153048126Y-69181967D01*
X153266344Y-69304641D01*
X153504302Y-69382386D01*
X153557549Y-69392976D01*
X153757000Y-69305524D01*
X153757000Y-68158500D01*
X153737000Y-68158500D01*
X153737000Y-68112500D01*
X153757000Y-68112500D01*
X153757000Y-66965476D01*
X153803000Y-66965476D01*
X153803000Y-68112500D01*
X153823000Y-68112500D01*
X153823000Y-68158500D01*
X153803000Y-68158500D01*
X153803000Y-69305524D01*
X154002451Y-69392976D01*
X154055698Y-69382386D01*
X154293656Y-69304641D01*
X154511874Y-69181967D01*
X154701967Y-69019078D01*
X154856629Y-68822233D01*
X154969917Y-68598998D01*
X155037477Y-68357951D01*
X154950045Y-68158502D01*
X155043000Y-68158502D01*
X155043000Y-68261274D01*
X155092074Y-68507987D01*
X155188337Y-68740386D01*
X155328089Y-68949540D01*
X155505960Y-69127411D01*
X155715114Y-69267163D01*
X155947513Y-69363426D01*
X156194226Y-69412500D01*
X156445774Y-69412500D01*
X156692487Y-69363426D01*
X156924886Y-69267163D01*
X157134040Y-69127411D01*
X157311911Y-68949540D01*
X157451663Y-68740386D01*
X157547926Y-68507987D01*
X157590000Y-68296466D01*
X157632074Y-68507987D01*
X157728337Y-68740386D01*
X157868089Y-68949540D01*
X158045960Y-69127411D01*
X158255114Y-69267163D01*
X158487513Y-69363426D01*
X158734226Y-69412500D01*
X158985774Y-69412500D01*
X159232487Y-69363426D01*
X159464886Y-69267163D01*
X159674040Y-69127411D01*
X159851911Y-68949540D01*
X159991663Y-68740386D01*
X160087926Y-68507987D01*
X160137000Y-68261274D01*
X160137000Y-68009726D01*
X160087926Y-67763013D01*
X159991663Y-67530614D01*
X159851911Y-67321460D01*
X159674040Y-67143589D01*
X159464886Y-67003837D01*
X159232487Y-66907574D01*
X158985774Y-66858500D01*
X158734226Y-66858500D01*
X158487513Y-66907574D01*
X158255114Y-67003837D01*
X158045960Y-67143589D01*
X157868089Y-67321460D01*
X157728337Y-67530614D01*
X157632074Y-67763013D01*
X157590000Y-67974534D01*
X157547926Y-67763013D01*
X157451663Y-67530614D01*
X157311911Y-67321460D01*
X157134040Y-67143589D01*
X156924886Y-67003837D01*
X156692487Y-66907574D01*
X156445774Y-66858500D01*
X156194226Y-66858500D01*
X155947513Y-66907574D01*
X155715114Y-67003837D01*
X155505960Y-67143589D01*
X155328089Y-67321460D01*
X155188337Y-67530614D01*
X155092074Y-67763013D01*
X155043000Y-68009726D01*
X155043000Y-68112498D01*
X154950045Y-68112498D01*
X155037477Y-67913049D01*
X154969917Y-67672002D01*
X154856629Y-67448767D01*
X154701967Y-67251922D01*
X154511874Y-67089033D01*
X154293656Y-66966359D01*
X154055698Y-66888614D01*
X154002451Y-66878024D01*
X153803000Y-66965476D01*
X153757000Y-66965476D01*
X153557549Y-66878024D01*
X153504302Y-66888614D01*
X153266344Y-66966359D01*
X153048126Y-67089033D01*
X152858033Y-67251922D01*
X152703371Y-67448767D01*
X152590083Y-67672002D01*
X152522523Y-67913049D01*
X152609955Y-68112498D01*
X152517000Y-68112498D01*
X152517000Y-68009726D01*
X152467926Y-67763013D01*
X152371663Y-67530614D01*
X152231911Y-67321460D01*
X152054040Y-67143589D01*
X151844886Y-67003837D01*
X151612487Y-66907574D01*
X151365774Y-66858500D01*
X151114226Y-66858500D01*
X150867513Y-66907574D01*
X150635114Y-67003837D01*
X150425960Y-67143589D01*
X150248089Y-67321460D01*
X150108337Y-67530614D01*
X150012074Y-67763013D01*
X149970000Y-67974534D01*
X149927926Y-67763013D01*
X149831663Y-67530614D01*
X149691911Y-67321460D01*
X149514040Y-67143589D01*
X149304886Y-67003837D01*
X149072487Y-66907574D01*
X148825774Y-66858500D01*
X148574226Y-66858500D01*
X148327513Y-66907574D01*
X148095114Y-67003837D01*
X147885960Y-67143589D01*
X147708089Y-67321460D01*
X147568337Y-67530614D01*
X147472074Y-67763013D01*
X147430000Y-67974534D01*
X147387926Y-67763013D01*
X147291663Y-67530614D01*
X147151911Y-67321460D01*
X146974040Y-67143589D01*
X146764886Y-67003837D01*
X146532487Y-66907574D01*
X146285774Y-66858500D01*
X146034226Y-66858500D01*
X145787513Y-66907574D01*
X145555114Y-67003837D01*
X145345960Y-67143589D01*
X145168089Y-67321460D01*
X145028337Y-67530614D01*
X144932074Y-67763013D01*
X144890000Y-67974534D01*
X144847926Y-67763013D01*
X144751663Y-67530614D01*
X144611911Y-67321460D01*
X144434040Y-67143589D01*
X144224886Y-67003837D01*
X143992487Y-66907574D01*
X143745774Y-66858500D01*
X143494226Y-66858500D01*
X143247513Y-66907574D01*
X143015114Y-67003837D01*
X142805960Y-67143589D01*
X142628089Y-67321460D01*
X142488337Y-67530614D01*
X142392074Y-67763013D01*
X142359066Y-67928956D01*
X142359066Y-67285500D01*
X142350822Y-67201793D01*
X142326405Y-67121304D01*
X142286755Y-67047124D01*
X142233395Y-66982105D01*
X142168376Y-66928745D01*
X142094196Y-66889095D01*
X142013707Y-66864678D01*
X141957647Y-66859157D01*
X143196386Y-65620419D01*
X143249273Y-65642326D01*
X143495986Y-65691400D01*
X143747534Y-65691400D01*
X143994247Y-65642326D01*
X144226646Y-65546063D01*
X144435800Y-65406311D01*
X144613671Y-65228440D01*
X144753423Y-65019286D01*
X144849686Y-64786887D01*
X144891760Y-64575366D01*
X144933834Y-64786887D01*
X145030097Y-65019286D01*
X145169849Y-65228440D01*
X145347720Y-65406311D01*
X145556874Y-65546063D01*
X145789273Y-65642326D01*
X146035986Y-65691400D01*
X146287534Y-65691400D01*
X146534247Y-65642326D01*
X146766646Y-65546063D01*
X146975800Y-65406311D01*
X147153671Y-65228440D01*
X147293423Y-65019286D01*
X147389686Y-64786887D01*
X147431760Y-64575366D01*
X147473834Y-64786887D01*
X147570097Y-65019286D01*
X147709849Y-65228440D01*
X147887720Y-65406311D01*
X148096874Y-65546063D01*
X148329273Y-65642326D01*
X148575986Y-65691400D01*
X148827534Y-65691400D01*
X149074247Y-65642326D01*
X149306646Y-65546063D01*
X149515800Y-65406311D01*
X149693671Y-65228440D01*
X149833423Y-65019286D01*
X149929686Y-64786887D01*
X149971760Y-64575366D01*
X150013834Y-64786887D01*
X150110097Y-65019286D01*
X150249849Y-65228440D01*
X150427720Y-65406311D01*
X150636874Y-65546063D01*
X150869273Y-65642326D01*
X151115986Y-65691400D01*
X151367534Y-65691400D01*
X151614247Y-65642326D01*
X151846646Y-65546063D01*
X152055800Y-65406311D01*
X152233671Y-65228440D01*
X152373423Y-65019286D01*
X152469686Y-64786887D01*
X152518760Y-64540174D01*
X152518760Y-64437402D01*
X152611715Y-64437402D01*
X152524283Y-64636851D01*
X152591843Y-64877898D01*
X152705131Y-65101133D01*
X152859793Y-65297978D01*
X153049886Y-65460867D01*
X153268104Y-65583541D01*
X153506062Y-65661286D01*
X153559309Y-65671876D01*
X153758760Y-65584424D01*
X153758760Y-64437400D01*
X153738760Y-64437400D01*
X153738760Y-64391400D01*
X153758760Y-64391400D01*
X153758760Y-64371400D01*
X153804760Y-64371400D01*
X153804760Y-64391400D01*
X153824760Y-64391400D01*
X153824760Y-64437400D01*
X153804760Y-64437400D01*
X153804760Y-65584424D01*
X154004211Y-65671876D01*
X154057458Y-65661286D01*
X154295416Y-65583541D01*
X154513634Y-65460867D01*
X154703727Y-65297978D01*
X154858389Y-65101133D01*
X154971677Y-64877898D01*
X155039237Y-64636851D01*
X154951805Y-64437402D01*
X155044760Y-64437402D01*
X155044760Y-64540174D01*
X155093834Y-64786887D01*
X155190097Y-65019286D01*
X155329849Y-65228440D01*
X155507720Y-65406311D01*
X155716874Y-65546063D01*
X155949273Y-65642326D01*
X156195986Y-65691400D01*
X156447534Y-65691400D01*
X156694247Y-65642326D01*
X156926646Y-65546063D01*
X157135800Y-65406311D01*
X157313671Y-65228440D01*
X157453423Y-65019286D01*
X157549686Y-64786887D01*
X157591760Y-64575366D01*
X157633834Y-64786887D01*
X157730097Y-65019286D01*
X157869849Y-65228440D01*
X158047720Y-65406311D01*
X158256874Y-65546063D01*
X158489273Y-65642326D01*
X158735986Y-65691400D01*
X158987534Y-65691400D01*
X159234247Y-65642326D01*
X159466646Y-65546063D01*
X159675800Y-65406311D01*
X159853671Y-65228440D01*
X159993423Y-65019286D01*
X160089686Y-64786887D01*
X160138760Y-64540174D01*
X160138760Y-64288626D01*
X160089686Y-64041913D01*
X159993423Y-63809514D01*
X159853671Y-63600360D01*
X159675800Y-63422489D01*
X159466646Y-63282737D01*
X159396062Y-63253500D01*
X170680500Y-63253500D01*
X170680501Y-102354500D01*
X141855724Y-102354500D01*
X133863970Y-94362746D01*
X153424000Y-94362746D01*
X153424000Y-94486254D01*
X153448095Y-94607389D01*
X153495360Y-94721496D01*
X153563977Y-94824189D01*
X153651311Y-94911523D01*
X153754004Y-94980140D01*
X153868111Y-95027405D01*
X153989246Y-95051500D01*
X154112754Y-95051500D01*
X154233889Y-95027405D01*
X154347996Y-94980140D01*
X154450689Y-94911523D01*
X154538023Y-94824189D01*
X154606640Y-94721496D01*
X154653905Y-94607389D01*
X154678000Y-94486254D01*
X154678000Y-94362746D01*
X154653905Y-94241611D01*
X154606640Y-94127504D01*
X154538023Y-94024811D01*
X154450689Y-93937477D01*
X154347996Y-93868860D01*
X154233889Y-93821595D01*
X154112754Y-93797500D01*
X153989246Y-93797500D01*
X153868111Y-93821595D01*
X153754004Y-93868860D01*
X153651311Y-93937477D01*
X153563977Y-94024811D01*
X153495360Y-94127504D01*
X153448095Y-94241611D01*
X153424000Y-94362746D01*
X133863970Y-94362746D01*
X131069970Y-91568746D01*
X140787500Y-91568746D01*
X140787500Y-91692254D01*
X140811595Y-91813389D01*
X140858860Y-91927496D01*
X140927477Y-92030189D01*
X141014811Y-92117523D01*
X141117504Y-92186140D01*
X141231611Y-92233405D01*
X141352746Y-92257500D01*
X141476254Y-92257500D01*
X141597389Y-92233405D01*
X141711496Y-92186140D01*
X141814189Y-92117523D01*
X141901523Y-92030189D01*
X141970140Y-91927496D01*
X142017405Y-91813389D01*
X142041500Y-91692254D01*
X142041500Y-91568746D01*
X142017405Y-91447611D01*
X141970140Y-91333504D01*
X141901523Y-91230811D01*
X141814189Y-91143477D01*
X141711496Y-91074860D01*
X141597389Y-91027595D01*
X141476254Y-91003500D01*
X141352746Y-91003500D01*
X141231611Y-91027595D01*
X141117504Y-91074860D01*
X141014811Y-91143477D01*
X140927477Y-91230811D01*
X140858860Y-91333504D01*
X140811595Y-91447611D01*
X140787500Y-91568746D01*
X131069970Y-91568746D01*
X129039500Y-89538277D01*
X129039500Y-87588999D01*
X147085309Y-87588999D01*
X147125812Y-87726359D01*
X147192335Y-87853177D01*
X147271376Y-87951033D01*
X147270494Y-87951915D01*
X147278791Y-87960212D01*
X147282320Y-87964581D01*
X147287374Y-87968795D01*
X147303024Y-87984445D01*
X147304443Y-87983026D01*
X147392310Y-88056289D01*
X147518078Y-88124777D01*
X147654791Y-88167413D01*
X147665940Y-88169630D01*
X147779878Y-88075405D01*
X147779878Y-87507590D01*
X147788737Y-87498731D01*
X147817019Y-87498731D01*
X147825878Y-87507590D01*
X147825878Y-88075405D01*
X147939816Y-88169630D01*
X148006408Y-88149994D01*
X147989087Y-88205535D01*
X147986870Y-88216684D01*
X148081095Y-88330622D01*
X148648910Y-88330622D01*
X148657769Y-88339481D01*
X148666628Y-88330622D01*
X148681439Y-88330622D01*
X148681439Y-88315811D01*
X148690298Y-88306952D01*
X148718580Y-88306952D01*
X148727439Y-88315811D01*
X148727439Y-88330622D01*
X148742250Y-88330622D01*
X148751109Y-88339481D01*
X148759968Y-88330622D01*
X149327783Y-88330622D01*
X149422008Y-88216684D01*
X149402372Y-88150092D01*
X149457913Y-88167413D01*
X149469062Y-88169630D01*
X149583000Y-88075405D01*
X149583000Y-87507590D01*
X149591859Y-87498731D01*
X149583000Y-87489872D01*
X149583000Y-87475061D01*
X149568189Y-87475061D01*
X149559330Y-87466202D01*
X149550471Y-87475061D01*
X148982656Y-87475061D01*
X148888431Y-87588999D01*
X148908067Y-87655591D01*
X148852526Y-87638270D01*
X148841377Y-87636053D01*
X148727439Y-87730278D01*
X148727439Y-88298093D01*
X148718580Y-88306952D01*
X148690298Y-88306952D01*
X148681439Y-88298093D01*
X148681439Y-87730278D01*
X148567501Y-87636053D01*
X148500909Y-87655689D01*
X148518230Y-87600148D01*
X148520447Y-87588999D01*
X148426222Y-87475061D01*
X147858407Y-87475061D01*
X147849548Y-87466202D01*
X147840689Y-87475061D01*
X147825878Y-87475061D01*
X147825878Y-87489872D01*
X147817019Y-87498731D01*
X147788737Y-87498731D01*
X147779878Y-87489872D01*
X147779878Y-87475061D01*
X147765067Y-87475061D01*
X147756208Y-87466202D01*
X147747349Y-87475061D01*
X147179534Y-87475061D01*
X147085309Y-87588999D01*
X129039500Y-87588999D01*
X129039500Y-86687438D01*
X146183748Y-86687438D01*
X146224251Y-86824798D01*
X146290774Y-86951616D01*
X146369815Y-87049472D01*
X146368933Y-87050354D01*
X146377230Y-87058651D01*
X146380759Y-87063020D01*
X146385813Y-87067234D01*
X146401463Y-87082884D01*
X146402882Y-87081465D01*
X146490749Y-87154728D01*
X146616517Y-87223216D01*
X146753230Y-87265852D01*
X146764379Y-87268069D01*
X146878317Y-87173844D01*
X146878317Y-86606029D01*
X146887176Y-86597170D01*
X146915458Y-86597170D01*
X146924317Y-86606029D01*
X146924317Y-87173844D01*
X147038255Y-87268069D01*
X147104847Y-87248433D01*
X147087526Y-87303974D01*
X147085309Y-87315123D01*
X147179534Y-87429061D01*
X147747349Y-87429061D01*
X147756208Y-87437920D01*
X147765067Y-87429061D01*
X147779878Y-87429061D01*
X147779878Y-87414250D01*
X147788737Y-87405391D01*
X147817019Y-87405391D01*
X147825878Y-87414250D01*
X147825878Y-87429061D01*
X147840689Y-87429061D01*
X147849548Y-87437920D01*
X147858407Y-87429061D01*
X148426222Y-87429061D01*
X148520447Y-87315123D01*
X148500811Y-87248531D01*
X148556352Y-87265852D01*
X148567501Y-87268069D01*
X148681439Y-87173844D01*
X148681439Y-86606029D01*
X148690298Y-86597170D01*
X148718580Y-86597170D01*
X148727439Y-86606029D01*
X148727439Y-87173844D01*
X148841377Y-87268069D01*
X148907969Y-87248433D01*
X148890648Y-87303974D01*
X148888431Y-87315123D01*
X148982656Y-87429061D01*
X149550471Y-87429061D01*
X149559330Y-87437920D01*
X149568189Y-87429061D01*
X149583000Y-87429061D01*
X149583000Y-87414250D01*
X149591859Y-87405391D01*
X149620141Y-87405391D01*
X149629000Y-87414250D01*
X149629000Y-87429061D01*
X149643811Y-87429061D01*
X149652670Y-87437920D01*
X149661529Y-87429061D01*
X150229344Y-87429061D01*
X150323569Y-87315123D01*
X150303933Y-87248531D01*
X150359474Y-87265852D01*
X150370623Y-87268069D01*
X150484561Y-87173844D01*
X150484561Y-86606029D01*
X150493420Y-86597170D01*
X150484561Y-86588311D01*
X150484561Y-86573500D01*
X150469750Y-86573500D01*
X150460891Y-86564641D01*
X150452032Y-86573500D01*
X149884217Y-86573500D01*
X149789992Y-86687438D01*
X149809628Y-86754030D01*
X149754087Y-86736709D01*
X149742938Y-86734492D01*
X149629000Y-86828717D01*
X149629000Y-87396532D01*
X149620141Y-87405391D01*
X149591859Y-87405391D01*
X149583000Y-87396532D01*
X149583000Y-86828717D01*
X149469062Y-86734492D01*
X149402470Y-86754128D01*
X149419791Y-86698587D01*
X149422008Y-86687438D01*
X149327783Y-86573500D01*
X148759968Y-86573500D01*
X148751109Y-86564641D01*
X148742250Y-86573500D01*
X148727439Y-86573500D01*
X148727439Y-86588311D01*
X148718580Y-86597170D01*
X148690298Y-86597170D01*
X148681439Y-86588311D01*
X148681439Y-86573500D01*
X148666628Y-86573500D01*
X148657769Y-86564641D01*
X148648910Y-86573500D01*
X148081095Y-86573500D01*
X147986870Y-86687438D01*
X148006506Y-86754030D01*
X147950965Y-86736709D01*
X147939816Y-86734492D01*
X147825878Y-86828717D01*
X147825878Y-87396532D01*
X147817019Y-87405391D01*
X147788737Y-87405391D01*
X147779878Y-87396532D01*
X147779878Y-86828717D01*
X147665940Y-86734492D01*
X147599348Y-86754128D01*
X147616669Y-86698587D01*
X147618886Y-86687438D01*
X147524661Y-86573500D01*
X146956846Y-86573500D01*
X146947987Y-86564641D01*
X146939128Y-86573500D01*
X146924317Y-86573500D01*
X146924317Y-86588311D01*
X146915458Y-86597170D01*
X146887176Y-86597170D01*
X146878317Y-86588311D01*
X146878317Y-86573500D01*
X146863506Y-86573500D01*
X146854647Y-86564641D01*
X146845788Y-86573500D01*
X146277973Y-86573500D01*
X146183748Y-86687438D01*
X129039500Y-86687438D01*
X129039500Y-86413562D01*
X146183748Y-86413562D01*
X146277973Y-86527500D01*
X146845788Y-86527500D01*
X146854647Y-86536359D01*
X146863506Y-86527500D01*
X146878317Y-86527500D01*
X146878317Y-86512689D01*
X146887176Y-86503830D01*
X146878317Y-86494971D01*
X146878317Y-85927156D01*
X146764379Y-85832931D01*
X146627019Y-85873434D01*
X146500201Y-85939957D01*
X146402345Y-86018998D01*
X146401463Y-86018116D01*
X146393166Y-86026413D01*
X146388797Y-86029942D01*
X146384583Y-86034996D01*
X146368933Y-86050646D01*
X146370352Y-86052065D01*
X146297089Y-86139932D01*
X146228601Y-86265700D01*
X146185965Y-86402413D01*
X146183748Y-86413562D01*
X129039500Y-86413562D01*
X129039500Y-63253500D01*
X139937510Y-63253500D01*
X139928365Y-63261005D01*
G37*
X139928365Y-63261005D02*
X139875005Y-63326024D01*
X139835355Y-63400204D01*
X139810938Y-63480693D01*
X139802694Y-63564400D01*
X139802694Y-65264400D01*
X139810938Y-65348107D01*
X139835355Y-65428596D01*
X139875005Y-65502776D01*
X139928365Y-65567795D01*
X139993384Y-65621155D01*
X140067564Y-65660805D01*
X140148053Y-65685222D01*
X140231760Y-65693466D01*
X141562049Y-65693466D01*
X140708852Y-66546664D01*
X140687790Y-66563949D01*
X140629060Y-66635512D01*
X140618809Y-66648003D01*
X140567552Y-66743898D01*
X140535989Y-66847950D01*
X140535153Y-66856434D01*
X140230000Y-66856434D01*
X140146293Y-66864678D01*
X140065804Y-66889095D01*
X139991624Y-66928745D01*
X139926605Y-66982105D01*
X139873245Y-67047124D01*
X139833595Y-67121304D01*
X139809178Y-67201793D01*
X139800934Y-67285500D01*
X139800934Y-68985500D01*
X139809178Y-69069207D01*
X139833595Y-69149696D01*
X139838835Y-69159500D01*
X139480553Y-69159500D01*
X139465181Y-69144128D01*
X139329731Y-69053623D01*
X139179227Y-68991282D01*
X139019452Y-68959500D01*
X138856548Y-68959500D01*
X138696773Y-68991282D01*
X138546269Y-69053623D01*
X138410819Y-69144128D01*
X138295628Y-69259319D01*
X138205123Y-69394769D01*
X138142782Y-69545273D01*
X138111000Y-69705048D01*
X138111000Y-69867952D01*
X138142782Y-70027727D01*
X138205123Y-70178231D01*
X138295628Y-70313681D01*
X138311000Y-70329053D01*
X138311001Y-76448287D01*
X134032537Y-80726752D01*
X134069926Y-80636487D01*
X134119000Y-80389774D01*
X134119000Y-80138226D01*
X134069926Y-79891513D01*
X133973663Y-79659114D01*
X133833911Y-79449960D01*
X133656040Y-79272089D01*
X133446886Y-79132337D01*
X133214487Y-79036074D01*
X133002966Y-78994000D01*
X133214487Y-78951926D01*
X133446886Y-78855663D01*
X133656040Y-78715911D01*
X133833911Y-78538040D01*
X133973663Y-78328886D01*
X134069926Y-78096487D01*
X134119000Y-77849774D01*
X134119000Y-77598226D01*
X134069926Y-77351513D01*
X133973663Y-77119114D01*
X133833911Y-76909960D01*
X133656040Y-76732089D01*
X133446886Y-76592337D01*
X133214487Y-76496074D01*
X132967774Y-76447000D01*
X132865002Y-76447000D01*
X132865002Y-76354045D01*
X133064451Y-76441477D01*
X133305498Y-76373917D01*
X133528733Y-76260629D01*
X133725578Y-76105967D01*
X133888467Y-75915874D01*
X134011141Y-75697656D01*
X134088886Y-75459698D01*
X134099476Y-75406451D01*
X134012024Y-75207000D01*
X132865000Y-75207000D01*
X132865000Y-75227000D01*
X132819000Y-75227000D01*
X132819000Y-75207000D01*
X132799000Y-75207000D01*
X132799000Y-75161000D01*
X132819000Y-75161000D01*
X132819000Y-74013956D01*
X132865000Y-74013956D01*
X132865000Y-75161000D01*
X134012024Y-75161000D01*
X134099476Y-74961549D01*
X134088886Y-74908302D01*
X134011141Y-74670344D01*
X133888467Y-74452126D01*
X133725578Y-74262033D01*
X133528733Y-74107371D01*
X133305498Y-73994083D01*
X133064451Y-73926523D01*
X132865000Y-74013956D01*
X132819000Y-74013956D01*
X132641006Y-73935929D01*
X134195538Y-72381397D01*
X134214684Y-72365684D01*
X134277417Y-72289245D01*
X134324031Y-72202036D01*
X134352736Y-72107409D01*
X134360000Y-72033653D01*
X134360000Y-72033643D01*
X134362427Y-72009000D01*
X134360000Y-71984357D01*
X134360000Y-71497274D01*
X134413640Y-71416996D01*
X134460905Y-71302889D01*
X134485000Y-71181754D01*
X134485000Y-71058246D01*
X134460905Y-70937111D01*
X134413640Y-70823004D01*
X134345023Y-70720311D01*
X134257689Y-70632977D01*
X134154996Y-70564360D01*
X134040889Y-70517095D01*
X133919754Y-70493000D01*
X133796246Y-70493000D01*
X133675111Y-70517095D01*
X133561004Y-70564360D01*
X133458311Y-70632977D01*
X133370977Y-70720311D01*
X133302360Y-70823004D01*
X133255095Y-70937111D01*
X133231000Y-71058246D01*
X133231000Y-71181754D01*
X133255095Y-71302889D01*
X133302360Y-71416996D01*
X133356000Y-71497275D01*
X133356001Y-71801064D01*
X131043968Y-74113098D01*
X131024816Y-74128816D01*
X130962083Y-74205255D01*
X130915469Y-74292465D01*
X130886764Y-74387092D01*
X130879500Y-74460848D01*
X130879500Y-74460857D01*
X130877073Y-74485500D01*
X130879500Y-74510143D01*
X130879501Y-76238847D01*
X130877073Y-76263500D01*
X130886765Y-76361909D01*
X130915470Y-76456536D01*
X130962084Y-76543745D01*
X131009101Y-76601035D01*
X131009104Y-76601038D01*
X131024817Y-76620184D01*
X131043963Y-76635897D01*
X131656691Y-77248626D01*
X131614074Y-77351513D01*
X131565000Y-77598226D01*
X131565000Y-77849774D01*
X131614074Y-78096487D01*
X131710337Y-78328886D01*
X131850089Y-78538040D01*
X132027960Y-78715911D01*
X132237114Y-78855663D01*
X132469513Y-78951926D01*
X132681034Y-78994000D01*
X132469513Y-79036074D01*
X132237114Y-79132337D01*
X132027960Y-79272089D01*
X131850089Y-79449960D01*
X131710337Y-79659114D01*
X131614074Y-79891513D01*
X131565000Y-80138226D01*
X131565000Y-80389774D01*
X131614074Y-80636487D01*
X131710337Y-80868886D01*
X131850089Y-81078040D01*
X132027960Y-81255911D01*
X132237114Y-81395663D01*
X132469513Y-81491926D01*
X132635456Y-81524934D01*
X131992000Y-81524934D01*
X131908293Y-81533178D01*
X131827804Y-81557595D01*
X131753624Y-81597245D01*
X131688605Y-81650605D01*
X131635245Y-81715624D01*
X131595595Y-81789804D01*
X131571178Y-81870293D01*
X131562934Y-81954000D01*
X131562934Y-83654000D01*
X131571178Y-83737707D01*
X131595595Y-83818196D01*
X131635245Y-83892376D01*
X131688605Y-83957395D01*
X131753624Y-84010755D01*
X131827804Y-84050405D01*
X131908293Y-84074822D01*
X131992000Y-84083066D01*
X133692000Y-84083066D01*
X133775707Y-84074822D01*
X133856196Y-84050405D01*
X133930376Y-84010755D01*
X133995395Y-83957395D01*
X134048755Y-83892376D01*
X134088405Y-83818196D01*
X134112822Y-83737707D01*
X134121066Y-83654000D01*
X134121066Y-83123246D01*
X144978500Y-83123246D01*
X144978500Y-83246754D01*
X145002595Y-83367889D01*
X145049860Y-83481996D01*
X145118477Y-83584689D01*
X145205811Y-83672023D01*
X145308504Y-83740640D01*
X145422611Y-83787905D01*
X145543746Y-83812000D01*
X145667254Y-83812000D01*
X145788389Y-83787905D01*
X145902496Y-83740640D01*
X146005189Y-83672023D01*
X146092523Y-83584689D01*
X146161140Y-83481996D01*
X146208405Y-83367889D01*
X146232500Y-83246754D01*
X146232500Y-83123246D01*
X146208405Y-83002111D01*
X146161140Y-82888004D01*
X146092523Y-82785311D01*
X146005189Y-82697977D01*
X145902496Y-82629360D01*
X145788389Y-82582095D01*
X145667254Y-82558000D01*
X145543746Y-82558000D01*
X145422611Y-82582095D01*
X145308504Y-82629360D01*
X145205811Y-82697977D01*
X145118477Y-82785311D01*
X145049860Y-82888004D01*
X145002595Y-83002111D01*
X144978500Y-83123246D01*
X134121066Y-83123246D01*
X134121066Y-82411645D01*
X136965465Y-79567246D01*
X139517500Y-79567246D01*
X139517500Y-79690754D01*
X139541595Y-79811889D01*
X139588860Y-79925996D01*
X139602560Y-79946500D01*
X139588860Y-79967004D01*
X139541595Y-80081111D01*
X139517500Y-80202246D01*
X139517500Y-80325754D01*
X139541595Y-80446889D01*
X139588860Y-80560996D01*
X139657477Y-80663689D01*
X139744811Y-80751023D01*
X139847504Y-80819640D01*
X139961611Y-80866905D01*
X140082746Y-80891000D01*
X140206254Y-80891000D01*
X140327389Y-80866905D01*
X140441496Y-80819640D01*
X140521774Y-80766000D01*
X145080066Y-80766000D01*
X148400123Y-84086058D01*
X148303323Y-84136835D01*
X148205467Y-84215876D01*
X148204585Y-84214994D01*
X148196288Y-84223291D01*
X148191919Y-84226820D01*
X148187705Y-84231874D01*
X148172055Y-84247524D01*
X148173473Y-84248942D01*
X148139154Y-84290103D01*
X148134874Y-84279770D01*
X148066257Y-84177077D01*
X147978923Y-84089743D01*
X147876230Y-84021126D01*
X147762123Y-83973861D01*
X147640988Y-83949766D01*
X147517480Y-83949766D01*
X147396345Y-83973861D01*
X147282238Y-84021126D01*
X147179545Y-84089743D01*
X147092211Y-84177077D01*
X147023594Y-84279770D01*
X146976329Y-84393877D01*
X146952234Y-84515012D01*
X146952234Y-84526504D01*
X146940746Y-84526504D01*
X146819611Y-84550599D01*
X146705504Y-84597864D01*
X146602811Y-84666481D01*
X146515477Y-84753815D01*
X146446860Y-84856508D01*
X146399595Y-84970615D01*
X146375500Y-85091750D01*
X146375500Y-85215258D01*
X146399595Y-85336393D01*
X146446860Y-85450500D01*
X146515477Y-85553193D01*
X146602811Y-85640527D01*
X146705504Y-85709144D01*
X146819611Y-85756409D01*
X146940746Y-85780504D01*
X147064254Y-85780504D01*
X147094773Y-85774434D01*
X147085309Y-85785877D01*
X147104945Y-85852469D01*
X147049404Y-85835148D01*
X147038255Y-85832931D01*
X146924317Y-85927156D01*
X146924317Y-86494971D01*
X146915458Y-86503830D01*
X146924317Y-86512689D01*
X146924317Y-86527500D01*
X146939128Y-86527500D01*
X146947987Y-86536359D01*
X146956846Y-86527500D01*
X147524661Y-86527500D01*
X147618886Y-86413562D01*
X147599250Y-86346970D01*
X147654791Y-86364291D01*
X147665940Y-86366508D01*
X147779878Y-86272283D01*
X147779878Y-85704468D01*
X147788737Y-85695609D01*
X147817019Y-85695609D01*
X147825878Y-85704468D01*
X147825878Y-86272283D01*
X147939816Y-86366508D01*
X148006408Y-86346872D01*
X147989087Y-86402413D01*
X147986870Y-86413562D01*
X148081095Y-86527500D01*
X148648910Y-86527500D01*
X148657769Y-86536359D01*
X148666628Y-86527500D01*
X148681439Y-86527500D01*
X148681439Y-86512689D01*
X148690298Y-86503830D01*
X148718580Y-86503830D01*
X148727439Y-86512689D01*
X148727439Y-86527500D01*
X148742250Y-86527500D01*
X148751109Y-86536359D01*
X148759968Y-86527500D01*
X149327783Y-86527500D01*
X149422008Y-86413562D01*
X149402372Y-86346970D01*
X149457913Y-86364291D01*
X149469062Y-86366508D01*
X149583000Y-86272283D01*
X149583000Y-85704468D01*
X149591859Y-85695609D01*
X149583000Y-85686750D01*
X149583000Y-85671939D01*
X149568189Y-85671939D01*
X149559330Y-85663080D01*
X149550471Y-85671939D01*
X148982656Y-85671939D01*
X148888431Y-85785877D01*
X148908067Y-85852469D01*
X148852526Y-85835148D01*
X148841377Y-85832931D01*
X148727439Y-85927156D01*
X148727439Y-86494971D01*
X148718580Y-86503830D01*
X148690298Y-86503830D01*
X148681439Y-86494971D01*
X148681439Y-85927156D01*
X148567501Y-85832931D01*
X148500909Y-85852567D01*
X148518230Y-85797026D01*
X148520447Y-85785877D01*
X148426222Y-85671939D01*
X147858407Y-85671939D01*
X147849548Y-85663080D01*
X147840689Y-85671939D01*
X147825878Y-85671939D01*
X147825878Y-85686750D01*
X147817019Y-85695609D01*
X147788737Y-85695609D01*
X147779878Y-85686750D01*
X147779878Y-85671939D01*
X147765067Y-85671939D01*
X147756208Y-85663080D01*
X147747349Y-85671939D01*
X147355177Y-85671939D01*
X147402189Y-85640527D01*
X147416777Y-85625939D01*
X147747349Y-85625939D01*
X147756208Y-85634798D01*
X147765067Y-85625939D01*
X147779878Y-85625939D01*
X147779878Y-85611128D01*
X147788737Y-85602269D01*
X147779878Y-85593410D01*
X147779878Y-85172317D01*
X147825878Y-85153263D01*
X147825878Y-85593410D01*
X147817019Y-85602269D01*
X147825878Y-85611128D01*
X147825878Y-85625939D01*
X147840689Y-85625939D01*
X147849548Y-85634798D01*
X147858407Y-85625939D01*
X148426222Y-85625939D01*
X148520447Y-85512001D01*
X148500811Y-85445409D01*
X148556352Y-85462730D01*
X148567501Y-85464947D01*
X148681439Y-85370722D01*
X148681439Y-84802907D01*
X148690298Y-84794048D01*
X148681439Y-84785189D01*
X148681439Y-84770378D01*
X148666628Y-84770378D01*
X148657769Y-84761519D01*
X148648910Y-84770378D01*
X148177697Y-84770378D01*
X148182139Y-84759655D01*
X148189156Y-84724378D01*
X148648910Y-84724378D01*
X148657769Y-84733237D01*
X148666628Y-84724378D01*
X148681439Y-84724378D01*
X148681439Y-84709567D01*
X148690298Y-84700708D01*
X148681439Y-84691849D01*
X148681439Y-84367374D01*
X148727439Y-84413374D01*
X148727439Y-84691849D01*
X148718580Y-84700708D01*
X148727439Y-84709567D01*
X148727439Y-84724378D01*
X148742250Y-84724378D01*
X148751109Y-84733237D01*
X148759968Y-84724378D01*
X149038443Y-84724378D01*
X149084443Y-84770378D01*
X148759968Y-84770378D01*
X148751109Y-84761519D01*
X148742250Y-84770378D01*
X148727439Y-84770378D01*
X148727439Y-84785189D01*
X148718580Y-84794048D01*
X148727439Y-84802907D01*
X148727439Y-85370722D01*
X148841377Y-85464947D01*
X148907969Y-85445311D01*
X148890648Y-85500852D01*
X148888431Y-85512001D01*
X148982656Y-85625939D01*
X149550471Y-85625939D01*
X149559330Y-85634798D01*
X149568189Y-85625939D01*
X149583000Y-85625939D01*
X149583000Y-85611128D01*
X149591859Y-85602269D01*
X149583000Y-85593410D01*
X149583000Y-85268935D01*
X149629000Y-85314935D01*
X149629000Y-85593410D01*
X149620141Y-85602269D01*
X149629000Y-85611128D01*
X149629000Y-85625939D01*
X149643811Y-85625939D01*
X149652670Y-85634798D01*
X149661529Y-85625939D01*
X149940004Y-85625939D01*
X149986004Y-85671939D01*
X149661529Y-85671939D01*
X149652670Y-85663080D01*
X149643811Y-85671939D01*
X149629000Y-85671939D01*
X149629000Y-85686750D01*
X149620141Y-85695609D01*
X149629000Y-85704468D01*
X149629000Y-86272283D01*
X149742938Y-86366508D01*
X149809530Y-86346872D01*
X149792209Y-86402413D01*
X149789992Y-86413562D01*
X149884217Y-86527500D01*
X150452032Y-86527500D01*
X150460891Y-86536359D01*
X150469750Y-86527500D01*
X150484561Y-86527500D01*
X150484561Y-86512689D01*
X150493420Y-86503830D01*
X150484561Y-86494971D01*
X150484561Y-86162978D01*
X150499924Y-86175586D01*
X150530561Y-86191962D01*
X150530561Y-86494971D01*
X150521702Y-86503830D01*
X150530561Y-86512689D01*
X150530561Y-86527500D01*
X150545372Y-86527500D01*
X150554231Y-86536359D01*
X150563090Y-86527500D01*
X151130905Y-86527500D01*
X151225130Y-86413562D01*
X151196998Y-86318157D01*
X151295780Y-86359074D01*
X151413563Y-86382502D01*
X151172395Y-86623670D01*
X151130905Y-86573500D01*
X150563090Y-86573500D01*
X150554231Y-86564641D01*
X150545372Y-86573500D01*
X150530561Y-86573500D01*
X150530561Y-86588311D01*
X150521702Y-86597170D01*
X150530561Y-86606029D01*
X150530561Y-87173844D01*
X150580731Y-87215334D01*
X150270834Y-87525231D01*
X150229344Y-87475061D01*
X149661529Y-87475061D01*
X149652670Y-87466202D01*
X149643811Y-87475061D01*
X149629000Y-87475061D01*
X149629000Y-87489872D01*
X149620141Y-87498731D01*
X149629000Y-87507590D01*
X149629000Y-88075405D01*
X149679170Y-88116895D01*
X149369273Y-88426793D01*
X149327783Y-88376622D01*
X148759968Y-88376622D01*
X148751109Y-88367763D01*
X148742250Y-88376622D01*
X148727439Y-88376622D01*
X148727439Y-88391433D01*
X148718580Y-88400292D01*
X148727439Y-88409151D01*
X148727439Y-88715500D01*
X148681439Y-88715500D01*
X148681439Y-88409151D01*
X148690298Y-88400292D01*
X148681439Y-88391433D01*
X148681439Y-88376622D01*
X148666628Y-88376622D01*
X148657769Y-88367763D01*
X148648910Y-88376622D01*
X148081095Y-88376622D01*
X147986870Y-88490560D01*
X148027373Y-88627920D01*
X148093896Y-88754738D01*
X148172937Y-88852594D01*
X148172055Y-88853476D01*
X148180352Y-88861773D01*
X148183881Y-88866142D01*
X148188934Y-88870355D01*
X148204585Y-88886006D01*
X148206004Y-88884587D01*
X148207352Y-88885711D01*
X146630087Y-90462977D01*
X146610941Y-90478690D01*
X146595228Y-90497836D01*
X146595225Y-90497839D01*
X146548208Y-90555129D01*
X146501594Y-90642338D01*
X146472889Y-90736965D01*
X146463197Y-90835374D01*
X146465625Y-90860027D01*
X146465624Y-91382101D01*
X146411984Y-91462380D01*
X146364719Y-91576487D01*
X146340624Y-91697622D01*
X146340624Y-91821130D01*
X146364719Y-91942265D01*
X146411984Y-92056372D01*
X146480601Y-92159065D01*
X146567935Y-92246399D01*
X146670628Y-92315016D01*
X146784735Y-92362281D01*
X146905870Y-92386376D01*
X147029378Y-92386376D01*
X147150513Y-92362281D01*
X147264620Y-92315016D01*
X147367313Y-92246399D01*
X147454647Y-92159065D01*
X147523264Y-92056372D01*
X147570529Y-91942265D01*
X147594624Y-91821130D01*
X147594624Y-91697622D01*
X147570529Y-91576487D01*
X147523264Y-91462380D01*
X147469624Y-91382102D01*
X147469624Y-91043308D01*
X148215000Y-90297932D01*
X148215001Y-91817287D01*
X148166477Y-91865811D01*
X148097860Y-91968504D01*
X148050595Y-92082611D01*
X148026500Y-92203746D01*
X148026500Y-92327254D01*
X148050595Y-92448389D01*
X148097860Y-92562496D01*
X148166477Y-92665189D01*
X148253811Y-92752523D01*
X148356504Y-92821140D01*
X148470611Y-92868405D01*
X148591746Y-92892500D01*
X148715254Y-92892500D01*
X148836389Y-92868405D01*
X148950496Y-92821140D01*
X149053189Y-92752523D01*
X149140523Y-92665189D01*
X149209140Y-92562496D01*
X149256405Y-92448389D01*
X149280500Y-92327254D01*
X149280500Y-92203746D01*
X149256405Y-92082611D01*
X149219000Y-91992308D01*
X149219000Y-91949746D01*
X150503000Y-91949746D01*
X150503000Y-92073254D01*
X150527095Y-92194389D01*
X150574360Y-92308496D01*
X150642977Y-92411189D01*
X150730311Y-92498523D01*
X150833004Y-92567140D01*
X150947111Y-92614405D01*
X151068246Y-92638500D01*
X151191754Y-92638500D01*
X151312889Y-92614405D01*
X151426996Y-92567140D01*
X151529689Y-92498523D01*
X151617023Y-92411189D01*
X151685640Y-92308496D01*
X151732905Y-92194389D01*
X151757000Y-92073254D01*
X151757000Y-91949746D01*
X151732905Y-91828611D01*
X151685640Y-91714504D01*
X151617023Y-91611811D01*
X151529689Y-91524477D01*
X151426996Y-91455860D01*
X151312889Y-91408595D01*
X151191754Y-91384500D01*
X151068246Y-91384500D01*
X150947111Y-91408595D01*
X150833004Y-91455860D01*
X150730311Y-91524477D01*
X150642977Y-91611811D01*
X150574360Y-91714504D01*
X150527095Y-91828611D01*
X150503000Y-91949746D01*
X149219000Y-91949746D01*
X149219000Y-90166274D01*
X149272640Y-90085996D01*
X149319905Y-89971889D01*
X149344000Y-89850754D01*
X149344000Y-89727246D01*
X149341896Y-89716669D01*
X149386909Y-89712236D01*
X149481536Y-89683531D01*
X149568745Y-89636917D01*
X149645184Y-89574184D01*
X149660902Y-89555032D01*
X149869688Y-89346246D01*
X152979500Y-89346246D01*
X152979500Y-89469754D01*
X153003595Y-89590889D01*
X153050860Y-89704996D01*
X153119477Y-89807689D01*
X153206811Y-89895023D01*
X153309504Y-89963640D01*
X153423611Y-90010905D01*
X153544746Y-90035000D01*
X153668254Y-90035000D01*
X153789389Y-90010905D01*
X153903496Y-89963640D01*
X154006189Y-89895023D01*
X154093523Y-89807689D01*
X154162140Y-89704996D01*
X154209405Y-89590889D01*
X154233500Y-89469754D01*
X154233500Y-89346246D01*
X154214247Y-89249451D01*
X165620524Y-89249451D01*
X165631114Y-89302698D01*
X165708859Y-89540656D01*
X165831533Y-89758874D01*
X165994422Y-89948967D01*
X166191267Y-90103629D01*
X166414502Y-90216917D01*
X166655549Y-90284477D01*
X166855000Y-90197044D01*
X166855000Y-89050000D01*
X166901000Y-89050000D01*
X166901000Y-90197044D01*
X167100451Y-90284477D01*
X167341498Y-90216917D01*
X167564733Y-90103629D01*
X167761578Y-89948967D01*
X167924467Y-89758874D01*
X168047141Y-89540656D01*
X168124886Y-89302698D01*
X168135476Y-89249451D01*
X168048024Y-89050000D01*
X166901000Y-89050000D01*
X166855000Y-89050000D01*
X165707976Y-89050000D01*
X165620524Y-89249451D01*
X154214247Y-89249451D01*
X154209405Y-89225111D01*
X154162140Y-89111004D01*
X154093523Y-89008311D01*
X154006189Y-88920977D01*
X153903496Y-88852360D01*
X153789389Y-88805095D01*
X153668254Y-88781000D01*
X153544746Y-88781000D01*
X153423611Y-88805095D01*
X153309504Y-88852360D01*
X153206811Y-88920977D01*
X153119477Y-89008311D01*
X153050860Y-89111004D01*
X153003595Y-89225111D01*
X152979500Y-89346246D01*
X149869688Y-89346246D01*
X152291208Y-86924727D01*
X152310354Y-86909014D01*
X152326067Y-86889868D01*
X152326070Y-86889865D01*
X152373087Y-86832576D01*
X152419701Y-86745367D01*
X152448406Y-86650740D01*
X152449277Y-86641898D01*
X152455670Y-86576983D01*
X152455670Y-86576976D01*
X152458097Y-86552330D01*
X152455670Y-86527685D01*
X152455670Y-85637000D01*
X165598934Y-85637000D01*
X165598934Y-87337000D01*
X165607178Y-87420707D01*
X165631595Y-87501196D01*
X165671245Y-87575376D01*
X165724605Y-87640395D01*
X165789624Y-87693755D01*
X165863804Y-87733405D01*
X165944293Y-87757822D01*
X166028000Y-87766066D01*
X166854998Y-87766066D01*
X166854998Y-87856955D01*
X166655549Y-87769523D01*
X166414502Y-87837083D01*
X166191267Y-87950371D01*
X165994422Y-88105033D01*
X165831533Y-88295126D01*
X165708859Y-88513344D01*
X165631114Y-88751302D01*
X165620524Y-88804549D01*
X165707976Y-89004000D01*
X166855000Y-89004000D01*
X166855000Y-88984000D01*
X166901000Y-88984000D01*
X166901000Y-89004000D01*
X168048024Y-89004000D01*
X168135476Y-88804549D01*
X168124886Y-88751302D01*
X168047141Y-88513344D01*
X167924467Y-88295126D01*
X167761578Y-88105033D01*
X167564733Y-87950371D01*
X167341498Y-87837083D01*
X167100451Y-87769523D01*
X166901002Y-87856955D01*
X166901002Y-87766066D01*
X167728000Y-87766066D01*
X167811707Y-87757822D01*
X167892196Y-87733405D01*
X167966376Y-87693755D01*
X168031395Y-87640395D01*
X168084755Y-87575376D01*
X168124405Y-87501196D01*
X168148822Y-87420707D01*
X168157066Y-87337000D01*
X168157066Y-85637000D01*
X168148822Y-85553293D01*
X168124405Y-85472804D01*
X168084755Y-85398624D01*
X168031395Y-85333605D01*
X167966376Y-85280245D01*
X167892196Y-85240595D01*
X167811707Y-85216178D01*
X167728000Y-85207934D01*
X166028000Y-85207934D01*
X165944293Y-85216178D01*
X165863804Y-85240595D01*
X165789624Y-85280245D01*
X165724605Y-85333605D01*
X165671245Y-85398624D01*
X165631595Y-85472804D01*
X165607178Y-85553293D01*
X165598934Y-85637000D01*
X152455670Y-85637000D01*
X152455670Y-85617264D01*
X153123194Y-84949741D01*
X153217889Y-84930905D01*
X153331996Y-84883640D01*
X153434689Y-84815023D01*
X153522023Y-84727689D01*
X153590640Y-84624996D01*
X153637905Y-84510889D01*
X153662000Y-84389754D01*
X153662000Y-84266246D01*
X153637905Y-84145111D01*
X153590640Y-84031004D01*
X153537000Y-83950726D01*
X153537000Y-83750642D01*
X153539427Y-83725999D01*
X153537000Y-83701356D01*
X153537000Y-83701347D01*
X153529736Y-83627591D01*
X153501031Y-83532964D01*
X153454417Y-83445755D01*
X153391684Y-83369316D01*
X153372538Y-83353603D01*
X153275741Y-83256806D01*
X153256905Y-83162111D01*
X153209640Y-83048004D01*
X153152810Y-82962951D01*
X165620524Y-82962951D01*
X165631114Y-83016198D01*
X165708859Y-83254156D01*
X165831533Y-83472374D01*
X165994422Y-83662467D01*
X166191267Y-83817129D01*
X166414502Y-83930417D01*
X166655549Y-83997977D01*
X166855000Y-83910544D01*
X166855000Y-82763500D01*
X166901000Y-82763500D01*
X166901000Y-83910544D01*
X167100451Y-83997977D01*
X167341498Y-83930417D01*
X167564733Y-83817129D01*
X167761578Y-83662467D01*
X167924467Y-83472374D01*
X168047141Y-83254156D01*
X168124886Y-83016198D01*
X168135476Y-82962951D01*
X168048024Y-82763500D01*
X166901000Y-82763500D01*
X166855000Y-82763500D01*
X165707976Y-82763500D01*
X165620524Y-82962951D01*
X153152810Y-82962951D01*
X153141023Y-82945311D01*
X153053689Y-82857977D01*
X152950996Y-82789360D01*
X152836889Y-82742095D01*
X152715754Y-82718000D01*
X152592246Y-82718000D01*
X152471111Y-82742095D01*
X152357004Y-82789360D01*
X152254311Y-82857977D01*
X152166977Y-82945311D01*
X152098360Y-83048004D01*
X152051095Y-83162111D01*
X152027000Y-83283246D01*
X152027000Y-83406754D01*
X152051095Y-83527889D01*
X152098360Y-83641996D01*
X152166977Y-83744689D01*
X152254311Y-83832023D01*
X152357004Y-83900640D01*
X152471111Y-83947905D01*
X152527403Y-83959102D01*
X152479360Y-84031004D01*
X152432095Y-84145111D01*
X152413259Y-84239806D01*
X151616133Y-85036933D01*
X151596987Y-85052646D01*
X151581274Y-85071792D01*
X151581271Y-85071795D01*
X151534254Y-85129085D01*
X151534209Y-85129169D01*
X151416915Y-85129169D01*
X151365845Y-85139327D01*
X151376004Y-85088254D01*
X151376004Y-84964746D01*
X151351909Y-84843611D01*
X151304644Y-84729504D01*
X151236027Y-84626811D01*
X151148693Y-84539477D01*
X151046000Y-84470860D01*
X150931893Y-84423595D01*
X150837199Y-84404759D01*
X148412686Y-81980246D01*
X156853000Y-81980246D01*
X156853000Y-82103754D01*
X156877095Y-82224889D01*
X156924360Y-82338996D01*
X156992977Y-82441689D01*
X157080311Y-82529023D01*
X157183004Y-82597640D01*
X157297111Y-82644905D01*
X157418246Y-82669000D01*
X157541754Y-82669000D01*
X157662889Y-82644905D01*
X157776996Y-82597640D01*
X157879689Y-82529023D01*
X157967023Y-82441689D01*
X158035640Y-82338996D01*
X158082905Y-82224889D01*
X158107000Y-82103754D01*
X158107000Y-81980246D01*
X158082905Y-81859111D01*
X158035640Y-81745004D01*
X157967023Y-81642311D01*
X157879689Y-81554977D01*
X157776996Y-81486360D01*
X157662889Y-81439095D01*
X157541754Y-81415000D01*
X157418246Y-81415000D01*
X157297111Y-81439095D01*
X157183004Y-81486360D01*
X157080311Y-81554977D01*
X156992977Y-81642311D01*
X156924360Y-81745004D01*
X156877095Y-81859111D01*
X156853000Y-81980246D01*
X148412686Y-81980246D01*
X146547137Y-80114698D01*
X146640189Y-80052523D01*
X146727523Y-79965189D01*
X146796140Y-79862496D01*
X146812000Y-79824207D01*
X146827860Y-79862496D01*
X146896477Y-79965189D01*
X146983811Y-80052523D01*
X147086504Y-80121140D01*
X147200611Y-80168405D01*
X147321746Y-80192500D01*
X147445254Y-80192500D01*
X147566389Y-80168405D01*
X147680496Y-80121140D01*
X147783189Y-80052523D01*
X147870523Y-79965189D01*
X147939140Y-79862496D01*
X147986405Y-79748389D01*
X148010500Y-79627254D01*
X148010500Y-79503746D01*
X148026500Y-79503746D01*
X148026500Y-79627254D01*
X148050595Y-79748389D01*
X148097860Y-79862496D01*
X148166477Y-79965189D01*
X148253811Y-80052523D01*
X148356504Y-80121140D01*
X148470611Y-80168405D01*
X148591746Y-80192500D01*
X148715254Y-80192500D01*
X148836389Y-80168405D01*
X148950496Y-80121140D01*
X149053189Y-80052523D01*
X149140523Y-79965189D01*
X149209140Y-79862496D01*
X149256405Y-79748389D01*
X149280500Y-79627254D01*
X149280500Y-79503746D01*
X149256405Y-79382611D01*
X149243105Y-79350500D01*
X165598934Y-79350500D01*
X165598934Y-81050500D01*
X165607178Y-81134207D01*
X165631595Y-81214696D01*
X165671245Y-81288876D01*
X165724605Y-81353895D01*
X165789624Y-81407255D01*
X165863804Y-81446905D01*
X165944293Y-81471322D01*
X166028000Y-81479566D01*
X166854998Y-81479566D01*
X166854998Y-81570455D01*
X166655549Y-81483023D01*
X166414502Y-81550583D01*
X166191267Y-81663871D01*
X165994422Y-81818533D01*
X165831533Y-82008626D01*
X165708859Y-82226844D01*
X165631114Y-82464802D01*
X165620524Y-82518049D01*
X165707976Y-82717500D01*
X166855000Y-82717500D01*
X166855000Y-82697500D01*
X166901000Y-82697500D01*
X166901000Y-82717500D01*
X168048024Y-82717500D01*
X168135476Y-82518049D01*
X168124886Y-82464802D01*
X168047141Y-82226844D01*
X167924467Y-82008626D01*
X167761578Y-81818533D01*
X167564733Y-81663871D01*
X167341498Y-81550583D01*
X167100451Y-81483023D01*
X166901002Y-81570455D01*
X166901002Y-81479566D01*
X167728000Y-81479566D01*
X167811707Y-81471322D01*
X167892196Y-81446905D01*
X167966376Y-81407255D01*
X168031395Y-81353895D01*
X168084755Y-81288876D01*
X168124405Y-81214696D01*
X168148822Y-81134207D01*
X168157066Y-81050500D01*
X168157066Y-79350500D01*
X168148822Y-79266793D01*
X168124405Y-79186304D01*
X168084755Y-79112124D01*
X168031395Y-79047105D01*
X167966376Y-78993745D01*
X167892196Y-78954095D01*
X167811707Y-78929678D01*
X167728000Y-78921434D01*
X166028000Y-78921434D01*
X165944293Y-78929678D01*
X165863804Y-78954095D01*
X165789624Y-78993745D01*
X165724605Y-79047105D01*
X165671245Y-79112124D01*
X165631595Y-79186304D01*
X165607178Y-79266793D01*
X165598934Y-79350500D01*
X149243105Y-79350500D01*
X149209140Y-79268504D01*
X149140523Y-79165811D01*
X149053189Y-79078477D01*
X148950496Y-79009860D01*
X148836389Y-78962595D01*
X148715254Y-78938500D01*
X148591746Y-78938500D01*
X148470611Y-78962595D01*
X148356504Y-79009860D01*
X148253811Y-79078477D01*
X148166477Y-79165811D01*
X148097860Y-79268504D01*
X148050595Y-79382611D01*
X148026500Y-79503746D01*
X148010500Y-79503746D01*
X147986405Y-79382611D01*
X147939140Y-79268504D01*
X147870523Y-79165811D01*
X147783189Y-79078477D01*
X147680496Y-79009860D01*
X147566389Y-78962595D01*
X147445254Y-78938500D01*
X147321746Y-78938500D01*
X147200611Y-78962595D01*
X147086504Y-79009860D01*
X146983811Y-79078477D01*
X146896477Y-79165811D01*
X146827860Y-79268504D01*
X146812000Y-79306793D01*
X146796140Y-79268504D01*
X146727523Y-79165811D01*
X146640189Y-79078477D01*
X146537496Y-79009860D01*
X146423389Y-78962595D01*
X146302254Y-78938500D01*
X146178746Y-78938500D01*
X146057611Y-78962595D01*
X145943504Y-79009860D01*
X145840811Y-79078477D01*
X145753477Y-79165811D01*
X145691477Y-79258601D01*
X145631749Y-79209583D01*
X145544540Y-79162969D01*
X145449913Y-79134264D01*
X145376157Y-79127000D01*
X145376147Y-79127000D01*
X145351504Y-79124573D01*
X145326861Y-79127000D01*
X140521774Y-79127000D01*
X140441496Y-79073360D01*
X140327389Y-79026095D01*
X140206254Y-79002000D01*
X140082746Y-79002000D01*
X139961611Y-79026095D01*
X139847504Y-79073360D01*
X139744811Y-79141977D01*
X139657477Y-79229311D01*
X139588860Y-79332004D01*
X139541595Y-79446111D01*
X139517500Y-79567246D01*
X136965465Y-79567246D01*
X139359578Y-77173134D01*
X139383501Y-77153501D01*
X139461853Y-77058028D01*
X139520075Y-76949103D01*
X139555927Y-76830913D01*
X139565000Y-76738794D01*
X139568033Y-76708000D01*
X139565000Y-76677206D01*
X139565000Y-75297165D01*
X139657004Y-75358640D01*
X139771111Y-75405905D01*
X139892246Y-75430000D01*
X140015754Y-75430000D01*
X140136889Y-75405905D01*
X140250996Y-75358640D01*
X140353689Y-75290023D01*
X140441023Y-75202689D01*
X140509640Y-75099996D01*
X140556905Y-74985889D01*
X140581000Y-74864754D01*
X140581000Y-74804746D01*
X141105000Y-74804746D01*
X141105000Y-74928254D01*
X141129095Y-75049389D01*
X141176360Y-75163496D01*
X141244977Y-75266189D01*
X141332311Y-75353523D01*
X141435004Y-75422140D01*
X141549111Y-75469405D01*
X141670246Y-75493500D01*
X141793754Y-75493500D01*
X141914889Y-75469405D01*
X142028996Y-75422140D01*
X142131689Y-75353523D01*
X142219023Y-75266189D01*
X142287640Y-75163496D01*
X142334905Y-75049389D01*
X142359000Y-74928254D01*
X142359000Y-74804746D01*
X142334905Y-74683611D01*
X142287640Y-74569504D01*
X142219023Y-74466811D01*
X142131689Y-74379477D01*
X142028996Y-74310860D01*
X141914889Y-74263595D01*
X141793754Y-74239500D01*
X141670246Y-74239500D01*
X141549111Y-74263595D01*
X141435004Y-74310860D01*
X141332311Y-74379477D01*
X141244977Y-74466811D01*
X141176360Y-74569504D01*
X141129095Y-74683611D01*
X141105000Y-74804746D01*
X140581000Y-74804746D01*
X140581000Y-74741246D01*
X140556905Y-74620111D01*
X140509640Y-74506004D01*
X140441023Y-74403311D01*
X140353689Y-74315977D01*
X140250996Y-74247360D01*
X140136889Y-74200095D01*
X140016991Y-74176246D01*
X161545500Y-74176246D01*
X161545500Y-74299754D01*
X161569595Y-74420889D01*
X161616860Y-74534996D01*
X161685477Y-74637689D01*
X161772811Y-74725023D01*
X161875504Y-74793640D01*
X161989611Y-74840905D01*
X162110746Y-74865000D01*
X162234254Y-74865000D01*
X162355389Y-74840905D01*
X162469496Y-74793640D01*
X162572189Y-74725023D01*
X162659523Y-74637689D01*
X162728140Y-74534996D01*
X162775405Y-74420889D01*
X162799500Y-74299754D01*
X162799500Y-74176246D01*
X162775405Y-74055111D01*
X162728140Y-73941004D01*
X162659523Y-73838311D01*
X162572189Y-73750977D01*
X162469496Y-73682360D01*
X162355389Y-73635095D01*
X162234254Y-73611000D01*
X162110746Y-73611000D01*
X161989611Y-73635095D01*
X161875504Y-73682360D01*
X161772811Y-73750977D01*
X161685477Y-73838311D01*
X161616860Y-73941004D01*
X161569595Y-74055111D01*
X161545500Y-74176246D01*
X140016991Y-74176246D01*
X140015754Y-74176000D01*
X139892246Y-74176000D01*
X139771111Y-74200095D01*
X139657004Y-74247360D01*
X139565000Y-74308835D01*
X139565000Y-72772746D01*
X160409000Y-72772746D01*
X160409000Y-72896254D01*
X160433095Y-73017389D01*
X160480360Y-73131496D01*
X160548977Y-73234189D01*
X160636311Y-73321523D01*
X160739004Y-73390140D01*
X160853111Y-73437405D01*
X160974246Y-73461500D01*
X161097754Y-73461500D01*
X161218889Y-73437405D01*
X161332996Y-73390140D01*
X161435689Y-73321523D01*
X161523023Y-73234189D01*
X161591640Y-73131496D01*
X161638905Y-73017389D01*
X161663000Y-72896254D01*
X161663000Y-72772746D01*
X161638905Y-72651611D01*
X161591640Y-72537504D01*
X161523023Y-72434811D01*
X161435689Y-72347477D01*
X161332996Y-72278860D01*
X161218889Y-72231595D01*
X161097754Y-72207500D01*
X160974246Y-72207500D01*
X160853111Y-72231595D01*
X160739004Y-72278860D01*
X160636311Y-72347477D01*
X160548977Y-72434811D01*
X160480360Y-72537504D01*
X160433095Y-72651611D01*
X160409000Y-72772746D01*
X139565000Y-72772746D01*
X139565000Y-70413500D01*
X140300447Y-70413500D01*
X140315819Y-70428872D01*
X140451269Y-70519377D01*
X140601773Y-70581718D01*
X140761548Y-70613500D01*
X140924452Y-70613500D01*
X141084227Y-70581718D01*
X141234731Y-70519377D01*
X141370181Y-70428872D01*
X141385553Y-70413500D01*
X147018206Y-70413500D01*
X147049000Y-70416533D01*
X147079794Y-70413500D01*
X147171913Y-70404427D01*
X147290103Y-70368575D01*
X147399028Y-70310353D01*
X147494501Y-70232001D01*
X147514138Y-70208073D01*
X148353597Y-69368614D01*
X148574226Y-69412500D01*
X148825774Y-69412500D01*
X149072487Y-69363426D01*
X149304886Y-69267163D01*
X149514040Y-69127411D01*
X149691911Y-68949540D01*
X149831663Y-68740386D01*
X149927926Y-68507987D01*
X149970000Y-68296466D01*
X150012074Y-68507987D01*
X150108337Y-68740386D01*
X150248089Y-68949540D01*
X150425960Y-69127411D01*
X150635114Y-69267163D01*
X150867513Y-69363426D01*
X151114226Y-69412500D01*
X151365774Y-69412500D01*
X151612487Y-69363426D01*
X151844886Y-69267163D01*
X152054040Y-69127411D01*
X152231911Y-68949540D01*
X152371663Y-68740386D01*
X152467926Y-68507987D01*
X152517000Y-68261274D01*
X152517000Y-68158502D01*
X152609955Y-68158502D01*
X152522523Y-68357951D01*
X152590083Y-68598998D01*
X152703371Y-68822233D01*
X152858033Y-69019078D01*
X153048126Y-69181967D01*
X153266344Y-69304641D01*
X153504302Y-69382386D01*
X153557549Y-69392976D01*
X153757000Y-69305524D01*
X153757000Y-68158500D01*
X153737000Y-68158500D01*
X153737000Y-68112500D01*
X153757000Y-68112500D01*
X153757000Y-66965476D01*
X153803000Y-66965476D01*
X153803000Y-68112500D01*
X153823000Y-68112500D01*
X153823000Y-68158500D01*
X153803000Y-68158500D01*
X153803000Y-69305524D01*
X154002451Y-69392976D01*
X154055698Y-69382386D01*
X154293656Y-69304641D01*
X154511874Y-69181967D01*
X154701967Y-69019078D01*
X154856629Y-68822233D01*
X154969917Y-68598998D01*
X155037477Y-68357951D01*
X154950045Y-68158502D01*
X155043000Y-68158502D01*
X155043000Y-68261274D01*
X155092074Y-68507987D01*
X155188337Y-68740386D01*
X155328089Y-68949540D01*
X155505960Y-69127411D01*
X155715114Y-69267163D01*
X155947513Y-69363426D01*
X156194226Y-69412500D01*
X156445774Y-69412500D01*
X156692487Y-69363426D01*
X156924886Y-69267163D01*
X157134040Y-69127411D01*
X157311911Y-68949540D01*
X157451663Y-68740386D01*
X157547926Y-68507987D01*
X157590000Y-68296466D01*
X157632074Y-68507987D01*
X157728337Y-68740386D01*
X157868089Y-68949540D01*
X158045960Y-69127411D01*
X158255114Y-69267163D01*
X158487513Y-69363426D01*
X158734226Y-69412500D01*
X158985774Y-69412500D01*
X159232487Y-69363426D01*
X159464886Y-69267163D01*
X159674040Y-69127411D01*
X159851911Y-68949540D01*
X159991663Y-68740386D01*
X160087926Y-68507987D01*
X160137000Y-68261274D01*
X160137000Y-68009726D01*
X160087926Y-67763013D01*
X159991663Y-67530614D01*
X159851911Y-67321460D01*
X159674040Y-67143589D01*
X159464886Y-67003837D01*
X159232487Y-66907574D01*
X158985774Y-66858500D01*
X158734226Y-66858500D01*
X158487513Y-66907574D01*
X158255114Y-67003837D01*
X158045960Y-67143589D01*
X157868089Y-67321460D01*
X157728337Y-67530614D01*
X157632074Y-67763013D01*
X157590000Y-67974534D01*
X157547926Y-67763013D01*
X157451663Y-67530614D01*
X157311911Y-67321460D01*
X157134040Y-67143589D01*
X156924886Y-67003837D01*
X156692487Y-66907574D01*
X156445774Y-66858500D01*
X156194226Y-66858500D01*
X155947513Y-66907574D01*
X155715114Y-67003837D01*
X155505960Y-67143589D01*
X155328089Y-67321460D01*
X155188337Y-67530614D01*
X155092074Y-67763013D01*
X155043000Y-68009726D01*
X155043000Y-68112498D01*
X154950045Y-68112498D01*
X155037477Y-67913049D01*
X154969917Y-67672002D01*
X154856629Y-67448767D01*
X154701967Y-67251922D01*
X154511874Y-67089033D01*
X154293656Y-66966359D01*
X154055698Y-66888614D01*
X154002451Y-66878024D01*
X153803000Y-66965476D01*
X153757000Y-66965476D01*
X153557549Y-66878024D01*
X153504302Y-66888614D01*
X153266344Y-66966359D01*
X153048126Y-67089033D01*
X152858033Y-67251922D01*
X152703371Y-67448767D01*
X152590083Y-67672002D01*
X152522523Y-67913049D01*
X152609955Y-68112498D01*
X152517000Y-68112498D01*
X152517000Y-68009726D01*
X152467926Y-67763013D01*
X152371663Y-67530614D01*
X152231911Y-67321460D01*
X152054040Y-67143589D01*
X151844886Y-67003837D01*
X151612487Y-66907574D01*
X151365774Y-66858500D01*
X151114226Y-66858500D01*
X150867513Y-66907574D01*
X150635114Y-67003837D01*
X150425960Y-67143589D01*
X150248089Y-67321460D01*
X150108337Y-67530614D01*
X150012074Y-67763013D01*
X149970000Y-67974534D01*
X149927926Y-67763013D01*
X149831663Y-67530614D01*
X149691911Y-67321460D01*
X149514040Y-67143589D01*
X149304886Y-67003837D01*
X149072487Y-66907574D01*
X148825774Y-66858500D01*
X148574226Y-66858500D01*
X148327513Y-66907574D01*
X148095114Y-67003837D01*
X147885960Y-67143589D01*
X147708089Y-67321460D01*
X147568337Y-67530614D01*
X147472074Y-67763013D01*
X147430000Y-67974534D01*
X147387926Y-67763013D01*
X147291663Y-67530614D01*
X147151911Y-67321460D01*
X146974040Y-67143589D01*
X146764886Y-67003837D01*
X146532487Y-66907574D01*
X146285774Y-66858500D01*
X146034226Y-66858500D01*
X145787513Y-66907574D01*
X145555114Y-67003837D01*
X145345960Y-67143589D01*
X145168089Y-67321460D01*
X145028337Y-67530614D01*
X144932074Y-67763013D01*
X144890000Y-67974534D01*
X144847926Y-67763013D01*
X144751663Y-67530614D01*
X144611911Y-67321460D01*
X144434040Y-67143589D01*
X144224886Y-67003837D01*
X143992487Y-66907574D01*
X143745774Y-66858500D01*
X143494226Y-66858500D01*
X143247513Y-66907574D01*
X143015114Y-67003837D01*
X142805960Y-67143589D01*
X142628089Y-67321460D01*
X142488337Y-67530614D01*
X142392074Y-67763013D01*
X142359066Y-67928956D01*
X142359066Y-67285500D01*
X142350822Y-67201793D01*
X142326405Y-67121304D01*
X142286755Y-67047124D01*
X142233395Y-66982105D01*
X142168376Y-66928745D01*
X142094196Y-66889095D01*
X142013707Y-66864678D01*
X141957647Y-66859157D01*
X143196386Y-65620419D01*
X143249273Y-65642326D01*
X143495986Y-65691400D01*
X143747534Y-65691400D01*
X143994247Y-65642326D01*
X144226646Y-65546063D01*
X144435800Y-65406311D01*
X144613671Y-65228440D01*
X144753423Y-65019286D01*
X144849686Y-64786887D01*
X144891760Y-64575366D01*
X144933834Y-64786887D01*
X145030097Y-65019286D01*
X145169849Y-65228440D01*
X145347720Y-65406311D01*
X145556874Y-65546063D01*
X145789273Y-65642326D01*
X146035986Y-65691400D01*
X146287534Y-65691400D01*
X146534247Y-65642326D01*
X146766646Y-65546063D01*
X146975800Y-65406311D01*
X147153671Y-65228440D01*
X147293423Y-65019286D01*
X147389686Y-64786887D01*
X147431760Y-64575366D01*
X147473834Y-64786887D01*
X147570097Y-65019286D01*
X147709849Y-65228440D01*
X147887720Y-65406311D01*
X148096874Y-65546063D01*
X148329273Y-65642326D01*
X148575986Y-65691400D01*
X148827534Y-65691400D01*
X149074247Y-65642326D01*
X149306646Y-65546063D01*
X149515800Y-65406311D01*
X149693671Y-65228440D01*
X149833423Y-65019286D01*
X149929686Y-64786887D01*
X149971760Y-64575366D01*
X150013834Y-64786887D01*
X150110097Y-65019286D01*
X150249849Y-65228440D01*
X150427720Y-65406311D01*
X150636874Y-65546063D01*
X150869273Y-65642326D01*
X151115986Y-65691400D01*
X151367534Y-65691400D01*
X151614247Y-65642326D01*
X151846646Y-65546063D01*
X152055800Y-65406311D01*
X152233671Y-65228440D01*
X152373423Y-65019286D01*
X152469686Y-64786887D01*
X152518760Y-64540174D01*
X152518760Y-64437402D01*
X152611715Y-64437402D01*
X152524283Y-64636851D01*
X152591843Y-64877898D01*
X152705131Y-65101133D01*
X152859793Y-65297978D01*
X153049886Y-65460867D01*
X153268104Y-65583541D01*
X153506062Y-65661286D01*
X153559309Y-65671876D01*
X153758760Y-65584424D01*
X153758760Y-64437400D01*
X153738760Y-64437400D01*
X153738760Y-64391400D01*
X153758760Y-64391400D01*
X153758760Y-64371400D01*
X153804760Y-64371400D01*
X153804760Y-64391400D01*
X153824760Y-64391400D01*
X153824760Y-64437400D01*
X153804760Y-64437400D01*
X153804760Y-65584424D01*
X154004211Y-65671876D01*
X154057458Y-65661286D01*
X154295416Y-65583541D01*
X154513634Y-65460867D01*
X154703727Y-65297978D01*
X154858389Y-65101133D01*
X154971677Y-64877898D01*
X155039237Y-64636851D01*
X154951805Y-64437402D01*
X155044760Y-64437402D01*
X155044760Y-64540174D01*
X155093834Y-64786887D01*
X155190097Y-65019286D01*
X155329849Y-65228440D01*
X155507720Y-65406311D01*
X155716874Y-65546063D01*
X155949273Y-65642326D01*
X156195986Y-65691400D01*
X156447534Y-65691400D01*
X156694247Y-65642326D01*
X156926646Y-65546063D01*
X157135800Y-65406311D01*
X157313671Y-65228440D01*
X157453423Y-65019286D01*
X157549686Y-64786887D01*
X157591760Y-64575366D01*
X157633834Y-64786887D01*
X157730097Y-65019286D01*
X157869849Y-65228440D01*
X158047720Y-65406311D01*
X158256874Y-65546063D01*
X158489273Y-65642326D01*
X158735986Y-65691400D01*
X158987534Y-65691400D01*
X159234247Y-65642326D01*
X159466646Y-65546063D01*
X159675800Y-65406311D01*
X159853671Y-65228440D01*
X159993423Y-65019286D01*
X160089686Y-64786887D01*
X160138760Y-64540174D01*
X160138760Y-64288626D01*
X160089686Y-64041913D01*
X159993423Y-63809514D01*
X159853671Y-63600360D01*
X159675800Y-63422489D01*
X159466646Y-63282737D01*
X159396062Y-63253500D01*
X170680500Y-63253500D01*
X170680501Y-102354500D01*
X141855724Y-102354500D01*
X133863970Y-94362746D01*
X153424000Y-94362746D01*
X153424000Y-94486254D01*
X153448095Y-94607389D01*
X153495360Y-94721496D01*
X153563977Y-94824189D01*
X153651311Y-94911523D01*
X153754004Y-94980140D01*
X153868111Y-95027405D01*
X153989246Y-95051500D01*
X154112754Y-95051500D01*
X154233889Y-95027405D01*
X154347996Y-94980140D01*
X154450689Y-94911523D01*
X154538023Y-94824189D01*
X154606640Y-94721496D01*
X154653905Y-94607389D01*
X154678000Y-94486254D01*
X154678000Y-94362746D01*
X154653905Y-94241611D01*
X154606640Y-94127504D01*
X154538023Y-94024811D01*
X154450689Y-93937477D01*
X154347996Y-93868860D01*
X154233889Y-93821595D01*
X154112754Y-93797500D01*
X153989246Y-93797500D01*
X153868111Y-93821595D01*
X153754004Y-93868860D01*
X153651311Y-93937477D01*
X153563977Y-94024811D01*
X153495360Y-94127504D01*
X153448095Y-94241611D01*
X153424000Y-94362746D01*
X133863970Y-94362746D01*
X131069970Y-91568746D01*
X140787500Y-91568746D01*
X140787500Y-91692254D01*
X140811595Y-91813389D01*
X140858860Y-91927496D01*
X140927477Y-92030189D01*
X141014811Y-92117523D01*
X141117504Y-92186140D01*
X141231611Y-92233405D01*
X141352746Y-92257500D01*
X141476254Y-92257500D01*
X141597389Y-92233405D01*
X141711496Y-92186140D01*
X141814189Y-92117523D01*
X141901523Y-92030189D01*
X141970140Y-91927496D01*
X142017405Y-91813389D01*
X142041500Y-91692254D01*
X142041500Y-91568746D01*
X142017405Y-91447611D01*
X141970140Y-91333504D01*
X141901523Y-91230811D01*
X141814189Y-91143477D01*
X141711496Y-91074860D01*
X141597389Y-91027595D01*
X141476254Y-91003500D01*
X141352746Y-91003500D01*
X141231611Y-91027595D01*
X141117504Y-91074860D01*
X141014811Y-91143477D01*
X140927477Y-91230811D01*
X140858860Y-91333504D01*
X140811595Y-91447611D01*
X140787500Y-91568746D01*
X131069970Y-91568746D01*
X129039500Y-89538277D01*
X129039500Y-87588999D01*
X147085309Y-87588999D01*
X147125812Y-87726359D01*
X147192335Y-87853177D01*
X147271376Y-87951033D01*
X147270494Y-87951915D01*
X147278791Y-87960212D01*
X147282320Y-87964581D01*
X147287374Y-87968795D01*
X147303024Y-87984445D01*
X147304443Y-87983026D01*
X147392310Y-88056289D01*
X147518078Y-88124777D01*
X147654791Y-88167413D01*
X147665940Y-88169630D01*
X147779878Y-88075405D01*
X147779878Y-87507590D01*
X147788737Y-87498731D01*
X147817019Y-87498731D01*
X147825878Y-87507590D01*
X147825878Y-88075405D01*
X147939816Y-88169630D01*
X148006408Y-88149994D01*
X147989087Y-88205535D01*
X147986870Y-88216684D01*
X148081095Y-88330622D01*
X148648910Y-88330622D01*
X148657769Y-88339481D01*
X148666628Y-88330622D01*
X148681439Y-88330622D01*
X148681439Y-88315811D01*
X148690298Y-88306952D01*
X148718580Y-88306952D01*
X148727439Y-88315811D01*
X148727439Y-88330622D01*
X148742250Y-88330622D01*
X148751109Y-88339481D01*
X148759968Y-88330622D01*
X149327783Y-88330622D01*
X149422008Y-88216684D01*
X149402372Y-88150092D01*
X149457913Y-88167413D01*
X149469062Y-88169630D01*
X149583000Y-88075405D01*
X149583000Y-87507590D01*
X149591859Y-87498731D01*
X149583000Y-87489872D01*
X149583000Y-87475061D01*
X149568189Y-87475061D01*
X149559330Y-87466202D01*
X149550471Y-87475061D01*
X148982656Y-87475061D01*
X148888431Y-87588999D01*
X148908067Y-87655591D01*
X148852526Y-87638270D01*
X148841377Y-87636053D01*
X148727439Y-87730278D01*
X148727439Y-88298093D01*
X148718580Y-88306952D01*
X148690298Y-88306952D01*
X148681439Y-88298093D01*
X148681439Y-87730278D01*
X148567501Y-87636053D01*
X148500909Y-87655689D01*
X148518230Y-87600148D01*
X148520447Y-87588999D01*
X148426222Y-87475061D01*
X147858407Y-87475061D01*
X147849548Y-87466202D01*
X147840689Y-87475061D01*
X147825878Y-87475061D01*
X147825878Y-87489872D01*
X147817019Y-87498731D01*
X147788737Y-87498731D01*
X147779878Y-87489872D01*
X147779878Y-87475061D01*
X147765067Y-87475061D01*
X147756208Y-87466202D01*
X147747349Y-87475061D01*
X147179534Y-87475061D01*
X147085309Y-87588999D01*
X129039500Y-87588999D01*
X129039500Y-86687438D01*
X146183748Y-86687438D01*
X146224251Y-86824798D01*
X146290774Y-86951616D01*
X146369815Y-87049472D01*
X146368933Y-87050354D01*
X146377230Y-87058651D01*
X146380759Y-87063020D01*
X146385813Y-87067234D01*
X146401463Y-87082884D01*
X146402882Y-87081465D01*
X146490749Y-87154728D01*
X146616517Y-87223216D01*
X146753230Y-87265852D01*
X146764379Y-87268069D01*
X146878317Y-87173844D01*
X146878317Y-86606029D01*
X146887176Y-86597170D01*
X146915458Y-86597170D01*
X146924317Y-86606029D01*
X146924317Y-87173844D01*
X147038255Y-87268069D01*
X147104847Y-87248433D01*
X147087526Y-87303974D01*
X147085309Y-87315123D01*
X147179534Y-87429061D01*
X147747349Y-87429061D01*
X147756208Y-87437920D01*
X147765067Y-87429061D01*
X147779878Y-87429061D01*
X147779878Y-87414250D01*
X147788737Y-87405391D01*
X147817019Y-87405391D01*
X147825878Y-87414250D01*
X147825878Y-87429061D01*
X147840689Y-87429061D01*
X147849548Y-87437920D01*
X147858407Y-87429061D01*
X148426222Y-87429061D01*
X148520447Y-87315123D01*
X148500811Y-87248531D01*
X148556352Y-87265852D01*
X148567501Y-87268069D01*
X148681439Y-87173844D01*
X148681439Y-86606029D01*
X148690298Y-86597170D01*
X148718580Y-86597170D01*
X148727439Y-86606029D01*
X148727439Y-87173844D01*
X148841377Y-87268069D01*
X148907969Y-87248433D01*
X148890648Y-87303974D01*
X148888431Y-87315123D01*
X148982656Y-87429061D01*
X149550471Y-87429061D01*
X149559330Y-87437920D01*
X149568189Y-87429061D01*
X149583000Y-87429061D01*
X149583000Y-87414250D01*
X149591859Y-87405391D01*
X149620141Y-87405391D01*
X149629000Y-87414250D01*
X149629000Y-87429061D01*
X149643811Y-87429061D01*
X149652670Y-87437920D01*
X149661529Y-87429061D01*
X150229344Y-87429061D01*
X150323569Y-87315123D01*
X150303933Y-87248531D01*
X150359474Y-87265852D01*
X150370623Y-87268069D01*
X150484561Y-87173844D01*
X150484561Y-86606029D01*
X150493420Y-86597170D01*
X150484561Y-86588311D01*
X150484561Y-86573500D01*
X150469750Y-86573500D01*
X150460891Y-86564641D01*
X150452032Y-86573500D01*
X149884217Y-86573500D01*
X149789992Y-86687438D01*
X149809628Y-86754030D01*
X149754087Y-86736709D01*
X149742938Y-86734492D01*
X149629000Y-86828717D01*
X149629000Y-87396532D01*
X149620141Y-87405391D01*
X149591859Y-87405391D01*
X149583000Y-87396532D01*
X149583000Y-86828717D01*
X149469062Y-86734492D01*
X149402470Y-86754128D01*
X149419791Y-86698587D01*
X149422008Y-86687438D01*
X149327783Y-86573500D01*
X148759968Y-86573500D01*
X148751109Y-86564641D01*
X148742250Y-86573500D01*
X148727439Y-86573500D01*
X148727439Y-86588311D01*
X148718580Y-86597170D01*
X148690298Y-86597170D01*
X148681439Y-86588311D01*
X148681439Y-86573500D01*
X148666628Y-86573500D01*
X148657769Y-86564641D01*
X148648910Y-86573500D01*
X148081095Y-86573500D01*
X147986870Y-86687438D01*
X148006506Y-86754030D01*
X147950965Y-86736709D01*
X147939816Y-86734492D01*
X147825878Y-86828717D01*
X147825878Y-87396532D01*
X147817019Y-87405391D01*
X147788737Y-87405391D01*
X147779878Y-87396532D01*
X147779878Y-86828717D01*
X147665940Y-86734492D01*
X147599348Y-86754128D01*
X147616669Y-86698587D01*
X147618886Y-86687438D01*
X147524661Y-86573500D01*
X146956846Y-86573500D01*
X146947987Y-86564641D01*
X146939128Y-86573500D01*
X146924317Y-86573500D01*
X146924317Y-86588311D01*
X146915458Y-86597170D01*
X146887176Y-86597170D01*
X146878317Y-86588311D01*
X146878317Y-86573500D01*
X146863506Y-86573500D01*
X146854647Y-86564641D01*
X146845788Y-86573500D01*
X146277973Y-86573500D01*
X146183748Y-86687438D01*
X129039500Y-86687438D01*
X129039500Y-86413562D01*
X146183748Y-86413562D01*
X146277973Y-86527500D01*
X146845788Y-86527500D01*
X146854647Y-86536359D01*
X146863506Y-86527500D01*
X146878317Y-86527500D01*
X146878317Y-86512689D01*
X146887176Y-86503830D01*
X146878317Y-86494971D01*
X146878317Y-85927156D01*
X146764379Y-85832931D01*
X146627019Y-85873434D01*
X146500201Y-85939957D01*
X146402345Y-86018998D01*
X146401463Y-86018116D01*
X146393166Y-86026413D01*
X146388797Y-86029942D01*
X146384583Y-86034996D01*
X146368933Y-86050646D01*
X146370352Y-86052065D01*
X146297089Y-86139932D01*
X146228601Y-86265700D01*
X146185965Y-86402413D01*
X146183748Y-86413562D01*
X129039500Y-86413562D01*
X129039500Y-63253500D01*
X139937510Y-63253500D01*
X139928365Y-63261005D01*
M02*
