G04 #@! TF.GenerationSoftware,KiCad,Pcbnew,(5.1.6)-1*
G04 #@! TF.CreationDate,2024-01-16T16:31:11-05:00*
G04 #@! TF.ProjectId,amiga-500-usb-kb-rp2040,616d6967-612d-4353-9030-2d7573622d6b,rev?*
G04 #@! TF.SameCoordinates,Original*
G04 #@! TF.FileFunction,Soldermask,Top*
G04 #@! TF.FilePolarity,Negative*
%FSLAX46Y46*%
G04 Gerber Fmt 4.6, Leading zero omitted, Abs format (unit mm)*
G04 Created by KiCad (PCBNEW (5.1.6)-1) date 2024-01-16 16:31:11*
%MOMM*%
%LPD*%
G01*
G04 APERTURE LIST*
%ADD10R,2.500000X3.200000*%
%ADD11R,0.950000X0.450000*%
%ADD12R,2.200000X1.500000*%
%ADD13R,0.750000X1.625000*%
%ADD14R,0.700000X1.300000*%
%ADD15R,1.800000X1.800000*%
%ADD16O,1.800000X1.800000*%
%ADD17C,0.100000*%
%ADD18R,0.550000X1.480000*%
%ADD19R,1.575000X2.200000*%
%ADD20R,1.275000X2.000000*%
%ADD21R,2.475000X2.000000*%
G04 APERTURE END LIST*
D10*
X158940500Y-75438000D03*
D11*
X160890500Y-74238000D03*
X160890500Y-75038000D03*
X160890500Y-75838000D03*
X160890500Y-76638000D03*
X156990500Y-76638000D03*
X156990500Y-75838000D03*
X156990500Y-75038000D03*
X156990500Y-74238000D03*
D12*
X157013500Y-101246500D03*
X147913500Y-101246500D03*
X157013500Y-96746500D03*
X147913500Y-96746500D03*
X169183500Y-101274000D03*
X160083500Y-101274000D03*
X169183500Y-96774000D03*
X160083500Y-96774000D03*
D13*
X144843500Y-77769000D03*
X146113500Y-77769000D03*
X147383500Y-77769000D03*
X148653500Y-77769000D03*
X149923500Y-77769000D03*
X151193500Y-77769000D03*
X152463500Y-77769000D03*
X152463500Y-72345000D03*
X151193500Y-72345000D03*
X149923500Y-72345000D03*
X148653500Y-72345000D03*
X147383500Y-72345000D03*
X146113500Y-72345000D03*
X144843500Y-72345000D03*
D14*
X140843000Y-72326500D03*
X139893000Y-72326500D03*
X138943000Y-72326500D03*
X138943000Y-74826500D03*
X140843000Y-74826500D03*
D15*
X132842000Y-82804000D03*
D16*
X132842000Y-80264000D03*
X132842000Y-77724000D03*
X132842000Y-75184000D03*
X158861760Y-64414400D03*
X156321760Y-64414400D03*
X153781760Y-64414400D03*
X151241760Y-64414400D03*
X148701760Y-64414400D03*
X146161760Y-64414400D03*
X143621760Y-64414400D03*
D15*
X141081760Y-64414400D03*
X141080000Y-68135500D03*
D16*
X143620000Y-68135500D03*
X146160000Y-68135500D03*
X148700000Y-68135500D03*
X151240000Y-68135500D03*
X153780000Y-68135500D03*
X156320000Y-68135500D03*
X158860000Y-68135500D03*
X166878000Y-82740500D03*
D15*
X166878000Y-80200500D03*
X166878000Y-86487000D03*
D16*
X166878000Y-89027000D03*
G36*
G01*
X168455500Y-75213738D02*
X168455500Y-76170262D01*
G75*
G02*
X168183762Y-76442000I-271738J0D01*
G01*
X167477238Y-76442000D01*
G75*
G02*
X167205500Y-76170262I0J271738D01*
G01*
X167205500Y-75213738D01*
G75*
G02*
X167477238Y-74942000I271738J0D01*
G01*
X168183762Y-74942000D01*
G75*
G02*
X168455500Y-75213738I0J-271738D01*
G01*
G37*
G36*
G01*
X166405500Y-75213738D02*
X166405500Y-76170262D01*
G75*
G02*
X166133762Y-76442000I-271738J0D01*
G01*
X165427238Y-76442000D01*
G75*
G02*
X165155500Y-76170262I0J271738D01*
G01*
X165155500Y-75213738D01*
G75*
G02*
X165427238Y-74942000I271738J0D01*
G01*
X166133762Y-74942000D01*
G75*
G02*
X166405500Y-75213738I0J-271738D01*
G01*
G37*
G36*
G01*
X166405500Y-73118238D02*
X166405500Y-74074762D01*
G75*
G02*
X166133762Y-74346500I-271738J0D01*
G01*
X165427238Y-74346500D01*
G75*
G02*
X165155500Y-74074762I0J271738D01*
G01*
X165155500Y-73118238D01*
G75*
G02*
X165427238Y-72846500I271738J0D01*
G01*
X166133762Y-72846500D01*
G75*
G02*
X166405500Y-73118238I0J-271738D01*
G01*
G37*
G36*
G01*
X168455500Y-73118238D02*
X168455500Y-74074762D01*
G75*
G02*
X168183762Y-74346500I-271738J0D01*
G01*
X167477238Y-74346500D01*
G75*
G02*
X167205500Y-74074762I0J271738D01*
G01*
X167205500Y-73118238D01*
G75*
G02*
X167477238Y-72846500I271738J0D01*
G01*
X168183762Y-72846500D01*
G75*
G02*
X168455500Y-73118238I0J-271738D01*
G01*
G37*
G36*
G01*
X148898893Y-82466959D02*
X149482257Y-81883595D01*
G75*
G02*
X149588323Y-81883595I53033J-53033D01*
G01*
X149694389Y-81989661D01*
G75*
G02*
X149694389Y-82095727I-53033J-53033D01*
G01*
X149111025Y-82679091D01*
G75*
G02*
X149004959Y-82679091I-53033J53033D01*
G01*
X148898893Y-82573025D01*
G75*
G02*
X148898893Y-82466959I53033J53033D01*
G01*
G37*
G36*
G01*
X149181736Y-82749802D02*
X149765100Y-82166438D01*
G75*
G02*
X149871166Y-82166438I53033J-53033D01*
G01*
X149977232Y-82272504D01*
G75*
G02*
X149977232Y-82378570I-53033J-53033D01*
G01*
X149393868Y-82961934D01*
G75*
G02*
X149287802Y-82961934I-53033J53033D01*
G01*
X149181736Y-82855868D01*
G75*
G02*
X149181736Y-82749802I53033J53033D01*
G01*
G37*
G36*
G01*
X149464578Y-83032644D02*
X150047942Y-82449280D01*
G75*
G02*
X150154008Y-82449280I53033J-53033D01*
G01*
X150260074Y-82555346D01*
G75*
G02*
X150260074Y-82661412I-53033J-53033D01*
G01*
X149676710Y-83244776D01*
G75*
G02*
X149570644Y-83244776I-53033J53033D01*
G01*
X149464578Y-83138710D01*
G75*
G02*
X149464578Y-83032644I53033J53033D01*
G01*
G37*
G36*
G01*
X149747421Y-83315487D02*
X150330785Y-82732123D01*
G75*
G02*
X150436851Y-82732123I53033J-53033D01*
G01*
X150542917Y-82838189D01*
G75*
G02*
X150542917Y-82944255I-53033J-53033D01*
G01*
X149959553Y-83527619D01*
G75*
G02*
X149853487Y-83527619I-53033J53033D01*
G01*
X149747421Y-83421553D01*
G75*
G02*
X149747421Y-83315487I53033J53033D01*
G01*
G37*
G36*
G01*
X150030264Y-83598330D02*
X150613628Y-83014966D01*
G75*
G02*
X150719694Y-83014966I53033J-53033D01*
G01*
X150825760Y-83121032D01*
G75*
G02*
X150825760Y-83227098I-53033J-53033D01*
G01*
X150242396Y-83810462D01*
G75*
G02*
X150136330Y-83810462I-53033J53033D01*
G01*
X150030264Y-83704396D01*
G75*
G02*
X150030264Y-83598330I53033J53033D01*
G01*
G37*
G36*
G01*
X150313106Y-83881172D02*
X150896470Y-83297808D01*
G75*
G02*
X151002536Y-83297808I53033J-53033D01*
G01*
X151108602Y-83403874D01*
G75*
G02*
X151108602Y-83509940I-53033J-53033D01*
G01*
X150525238Y-84093304D01*
G75*
G02*
X150419172Y-84093304I-53033J53033D01*
G01*
X150313106Y-83987238D01*
G75*
G02*
X150313106Y-83881172I53033J53033D01*
G01*
G37*
G36*
G01*
X150595949Y-84164015D02*
X151179313Y-83580651D01*
G75*
G02*
X151285379Y-83580651I53033J-53033D01*
G01*
X151391445Y-83686717D01*
G75*
G02*
X151391445Y-83792783I-53033J-53033D01*
G01*
X150808081Y-84376147D01*
G75*
G02*
X150702015Y-84376147I-53033J53033D01*
G01*
X150595949Y-84270081D01*
G75*
G02*
X150595949Y-84164015I53033J53033D01*
G01*
G37*
G36*
G01*
X150878792Y-84446858D02*
X151462156Y-83863494D01*
G75*
G02*
X151568222Y-83863494I53033J-53033D01*
G01*
X151674288Y-83969560D01*
G75*
G02*
X151674288Y-84075626I-53033J-53033D01*
G01*
X151090924Y-84658990D01*
G75*
G02*
X150984858Y-84658990I-53033J53033D01*
G01*
X150878792Y-84552924D01*
G75*
G02*
X150878792Y-84446858I53033J53033D01*
G01*
G37*
G36*
G01*
X151161635Y-84729701D02*
X151744999Y-84146337D01*
G75*
G02*
X151851065Y-84146337I53033J-53033D01*
G01*
X151957131Y-84252403D01*
G75*
G02*
X151957131Y-84358469I-53033J-53033D01*
G01*
X151373767Y-84941833D01*
G75*
G02*
X151267701Y-84941833I-53033J53033D01*
G01*
X151161635Y-84835767D01*
G75*
G02*
X151161635Y-84729701I53033J53033D01*
G01*
G37*
G36*
G01*
X151444477Y-85012543D02*
X152027841Y-84429179D01*
G75*
G02*
X152133907Y-84429179I53033J-53033D01*
G01*
X152239973Y-84535245D01*
G75*
G02*
X152239973Y-84641311I-53033J-53033D01*
G01*
X151656609Y-85224675D01*
G75*
G02*
X151550543Y-85224675I-53033J53033D01*
G01*
X151444477Y-85118609D01*
G75*
G02*
X151444477Y-85012543I53033J53033D01*
G01*
G37*
G36*
G01*
X151727320Y-85295386D02*
X152310684Y-84712022D01*
G75*
G02*
X152416750Y-84712022I53033J-53033D01*
G01*
X152522816Y-84818088D01*
G75*
G02*
X152522816Y-84924154I-53033J-53033D01*
G01*
X151939452Y-85507518D01*
G75*
G02*
X151833386Y-85507518I-53033J53033D01*
G01*
X151727320Y-85401452D01*
G75*
G02*
X151727320Y-85295386I53033J53033D01*
G01*
G37*
G36*
G01*
X152010163Y-85578229D02*
X152593527Y-84994865D01*
G75*
G02*
X152699593Y-84994865I53033J-53033D01*
G01*
X152805659Y-85100931D01*
G75*
G02*
X152805659Y-85206997I-53033J-53033D01*
G01*
X152222295Y-85790361D01*
G75*
G02*
X152116229Y-85790361I-53033J53033D01*
G01*
X152010163Y-85684295D01*
G75*
G02*
X152010163Y-85578229I53033J53033D01*
G01*
G37*
G36*
G01*
X152293005Y-85861071D02*
X152876369Y-85277707D01*
G75*
G02*
X152982435Y-85277707I53033J-53033D01*
G01*
X153088501Y-85383773D01*
G75*
G02*
X153088501Y-85489839I-53033J-53033D01*
G01*
X152505137Y-86073203D01*
G75*
G02*
X152399071Y-86073203I-53033J53033D01*
G01*
X152293005Y-85967137D01*
G75*
G02*
X152293005Y-85861071I53033J53033D01*
G01*
G37*
G36*
G01*
X152575848Y-86143914D02*
X153159212Y-85560550D01*
G75*
G02*
X153265278Y-85560550I53033J-53033D01*
G01*
X153371344Y-85666616D01*
G75*
G02*
X153371344Y-85772682I-53033J-53033D01*
G01*
X152787980Y-86356046D01*
G75*
G02*
X152681914Y-86356046I-53033J53033D01*
G01*
X152575848Y-86249980D01*
G75*
G02*
X152575848Y-86143914I53033J53033D01*
G01*
G37*
G36*
G01*
X152575848Y-86851020D02*
X152681914Y-86744954D01*
G75*
G02*
X152787980Y-86744954I53033J-53033D01*
G01*
X153371344Y-87328318D01*
G75*
G02*
X153371344Y-87434384I-53033J-53033D01*
G01*
X153265278Y-87540450D01*
G75*
G02*
X153159212Y-87540450I-53033J53033D01*
G01*
X152575848Y-86957086D01*
G75*
G02*
X152575848Y-86851020I53033J53033D01*
G01*
G37*
G36*
G01*
X152293005Y-87133863D02*
X152399071Y-87027797D01*
G75*
G02*
X152505137Y-87027797I53033J-53033D01*
G01*
X153088501Y-87611161D01*
G75*
G02*
X153088501Y-87717227I-53033J-53033D01*
G01*
X152982435Y-87823293D01*
G75*
G02*
X152876369Y-87823293I-53033J53033D01*
G01*
X152293005Y-87239929D01*
G75*
G02*
X152293005Y-87133863I53033J53033D01*
G01*
G37*
G36*
G01*
X152010163Y-87416705D02*
X152116229Y-87310639D01*
G75*
G02*
X152222295Y-87310639I53033J-53033D01*
G01*
X152805659Y-87894003D01*
G75*
G02*
X152805659Y-88000069I-53033J-53033D01*
G01*
X152699593Y-88106135D01*
G75*
G02*
X152593527Y-88106135I-53033J53033D01*
G01*
X152010163Y-87522771D01*
G75*
G02*
X152010163Y-87416705I53033J53033D01*
G01*
G37*
G36*
G01*
X151727320Y-87699548D02*
X151833386Y-87593482D01*
G75*
G02*
X151939452Y-87593482I53033J-53033D01*
G01*
X152522816Y-88176846D01*
G75*
G02*
X152522816Y-88282912I-53033J-53033D01*
G01*
X152416750Y-88388978D01*
G75*
G02*
X152310684Y-88388978I-53033J53033D01*
G01*
X151727320Y-87805614D01*
G75*
G02*
X151727320Y-87699548I53033J53033D01*
G01*
G37*
G36*
G01*
X151444477Y-87982391D02*
X151550543Y-87876325D01*
G75*
G02*
X151656609Y-87876325I53033J-53033D01*
G01*
X152239973Y-88459689D01*
G75*
G02*
X152239973Y-88565755I-53033J-53033D01*
G01*
X152133907Y-88671821D01*
G75*
G02*
X152027841Y-88671821I-53033J53033D01*
G01*
X151444477Y-88088457D01*
G75*
G02*
X151444477Y-87982391I53033J53033D01*
G01*
G37*
G36*
G01*
X151161635Y-88265233D02*
X151267701Y-88159167D01*
G75*
G02*
X151373767Y-88159167I53033J-53033D01*
G01*
X151957131Y-88742531D01*
G75*
G02*
X151957131Y-88848597I-53033J-53033D01*
G01*
X151851065Y-88954663D01*
G75*
G02*
X151744999Y-88954663I-53033J53033D01*
G01*
X151161635Y-88371299D01*
G75*
G02*
X151161635Y-88265233I53033J53033D01*
G01*
G37*
G36*
G01*
X150878792Y-88548076D02*
X150984858Y-88442010D01*
G75*
G02*
X151090924Y-88442010I53033J-53033D01*
G01*
X151674288Y-89025374D01*
G75*
G02*
X151674288Y-89131440I-53033J-53033D01*
G01*
X151568222Y-89237506D01*
G75*
G02*
X151462156Y-89237506I-53033J53033D01*
G01*
X150878792Y-88654142D01*
G75*
G02*
X150878792Y-88548076I53033J53033D01*
G01*
G37*
G36*
G01*
X150595949Y-88830919D02*
X150702015Y-88724853D01*
G75*
G02*
X150808081Y-88724853I53033J-53033D01*
G01*
X151391445Y-89308217D01*
G75*
G02*
X151391445Y-89414283I-53033J-53033D01*
G01*
X151285379Y-89520349D01*
G75*
G02*
X151179313Y-89520349I-53033J53033D01*
G01*
X150595949Y-88936985D01*
G75*
G02*
X150595949Y-88830919I53033J53033D01*
G01*
G37*
G36*
G01*
X150313106Y-89113762D02*
X150419172Y-89007696D01*
G75*
G02*
X150525238Y-89007696I53033J-53033D01*
G01*
X151108602Y-89591060D01*
G75*
G02*
X151108602Y-89697126I-53033J-53033D01*
G01*
X151002536Y-89803192D01*
G75*
G02*
X150896470Y-89803192I-53033J53033D01*
G01*
X150313106Y-89219828D01*
G75*
G02*
X150313106Y-89113762I53033J53033D01*
G01*
G37*
G36*
G01*
X150030264Y-89396604D02*
X150136330Y-89290538D01*
G75*
G02*
X150242396Y-89290538I53033J-53033D01*
G01*
X150825760Y-89873902D01*
G75*
G02*
X150825760Y-89979968I-53033J-53033D01*
G01*
X150719694Y-90086034D01*
G75*
G02*
X150613628Y-90086034I-53033J53033D01*
G01*
X150030264Y-89502670D01*
G75*
G02*
X150030264Y-89396604I53033J53033D01*
G01*
G37*
G36*
G01*
X149747421Y-89679447D02*
X149853487Y-89573381D01*
G75*
G02*
X149959553Y-89573381I53033J-53033D01*
G01*
X150542917Y-90156745D01*
G75*
G02*
X150542917Y-90262811I-53033J-53033D01*
G01*
X150436851Y-90368877D01*
G75*
G02*
X150330785Y-90368877I-53033J53033D01*
G01*
X149747421Y-89785513D01*
G75*
G02*
X149747421Y-89679447I53033J53033D01*
G01*
G37*
G36*
G01*
X149464578Y-89962290D02*
X149570644Y-89856224D01*
G75*
G02*
X149676710Y-89856224I53033J-53033D01*
G01*
X150260074Y-90439588D01*
G75*
G02*
X150260074Y-90545654I-53033J-53033D01*
G01*
X150154008Y-90651720D01*
G75*
G02*
X150047942Y-90651720I-53033J53033D01*
G01*
X149464578Y-90068356D01*
G75*
G02*
X149464578Y-89962290I53033J53033D01*
G01*
G37*
G36*
G01*
X149181736Y-90245132D02*
X149287802Y-90139066D01*
G75*
G02*
X149393868Y-90139066I53033J-53033D01*
G01*
X149977232Y-90722430D01*
G75*
G02*
X149977232Y-90828496I-53033J-53033D01*
G01*
X149871166Y-90934562D01*
G75*
G02*
X149765100Y-90934562I-53033J53033D01*
G01*
X149181736Y-90351198D01*
G75*
G02*
X149181736Y-90245132I53033J53033D01*
G01*
G37*
G36*
G01*
X148898893Y-90527975D02*
X149004959Y-90421909D01*
G75*
G02*
X149111025Y-90421909I53033J-53033D01*
G01*
X149694389Y-91005273D01*
G75*
G02*
X149694389Y-91111339I-53033J-53033D01*
G01*
X149588323Y-91217405D01*
G75*
G02*
X149482257Y-91217405I-53033J53033D01*
G01*
X148898893Y-90634041D01*
G75*
G02*
X148898893Y-90527975I53033J53033D01*
G01*
G37*
G36*
G01*
X147714489Y-91005273D02*
X148297853Y-90421909D01*
G75*
G02*
X148403919Y-90421909I53033J-53033D01*
G01*
X148509985Y-90527975D01*
G75*
G02*
X148509985Y-90634041I-53033J-53033D01*
G01*
X147926621Y-91217405D01*
G75*
G02*
X147820555Y-91217405I-53033J53033D01*
G01*
X147714489Y-91111339D01*
G75*
G02*
X147714489Y-91005273I53033J53033D01*
G01*
G37*
G36*
G01*
X147431646Y-90722430D02*
X148015010Y-90139066D01*
G75*
G02*
X148121076Y-90139066I53033J-53033D01*
G01*
X148227142Y-90245132D01*
G75*
G02*
X148227142Y-90351198I-53033J-53033D01*
G01*
X147643778Y-90934562D01*
G75*
G02*
X147537712Y-90934562I-53033J53033D01*
G01*
X147431646Y-90828496D01*
G75*
G02*
X147431646Y-90722430I53033J53033D01*
G01*
G37*
G36*
G01*
X147148804Y-90439588D02*
X147732168Y-89856224D01*
G75*
G02*
X147838234Y-89856224I53033J-53033D01*
G01*
X147944300Y-89962290D01*
G75*
G02*
X147944300Y-90068356I-53033J-53033D01*
G01*
X147360936Y-90651720D01*
G75*
G02*
X147254870Y-90651720I-53033J53033D01*
G01*
X147148804Y-90545654D01*
G75*
G02*
X147148804Y-90439588I53033J53033D01*
G01*
G37*
G36*
G01*
X146865961Y-90156745D02*
X147449325Y-89573381D01*
G75*
G02*
X147555391Y-89573381I53033J-53033D01*
G01*
X147661457Y-89679447D01*
G75*
G02*
X147661457Y-89785513I-53033J-53033D01*
G01*
X147078093Y-90368877D01*
G75*
G02*
X146972027Y-90368877I-53033J53033D01*
G01*
X146865961Y-90262811D01*
G75*
G02*
X146865961Y-90156745I53033J53033D01*
G01*
G37*
G36*
G01*
X146583118Y-89873902D02*
X147166482Y-89290538D01*
G75*
G02*
X147272548Y-89290538I53033J-53033D01*
G01*
X147378614Y-89396604D01*
G75*
G02*
X147378614Y-89502670I-53033J-53033D01*
G01*
X146795250Y-90086034D01*
G75*
G02*
X146689184Y-90086034I-53033J53033D01*
G01*
X146583118Y-89979968D01*
G75*
G02*
X146583118Y-89873902I53033J53033D01*
G01*
G37*
G36*
G01*
X146300276Y-89591060D02*
X146883640Y-89007696D01*
G75*
G02*
X146989706Y-89007696I53033J-53033D01*
G01*
X147095772Y-89113762D01*
G75*
G02*
X147095772Y-89219828I-53033J-53033D01*
G01*
X146512408Y-89803192D01*
G75*
G02*
X146406342Y-89803192I-53033J53033D01*
G01*
X146300276Y-89697126D01*
G75*
G02*
X146300276Y-89591060I53033J53033D01*
G01*
G37*
G36*
G01*
X146017433Y-89308217D02*
X146600797Y-88724853D01*
G75*
G02*
X146706863Y-88724853I53033J-53033D01*
G01*
X146812929Y-88830919D01*
G75*
G02*
X146812929Y-88936985I-53033J-53033D01*
G01*
X146229565Y-89520349D01*
G75*
G02*
X146123499Y-89520349I-53033J53033D01*
G01*
X146017433Y-89414283D01*
G75*
G02*
X146017433Y-89308217I53033J53033D01*
G01*
G37*
G36*
G01*
X145734590Y-89025374D02*
X146317954Y-88442010D01*
G75*
G02*
X146424020Y-88442010I53033J-53033D01*
G01*
X146530086Y-88548076D01*
G75*
G02*
X146530086Y-88654142I-53033J-53033D01*
G01*
X145946722Y-89237506D01*
G75*
G02*
X145840656Y-89237506I-53033J53033D01*
G01*
X145734590Y-89131440D01*
G75*
G02*
X145734590Y-89025374I53033J53033D01*
G01*
G37*
G36*
G01*
X145451747Y-88742531D02*
X146035111Y-88159167D01*
G75*
G02*
X146141177Y-88159167I53033J-53033D01*
G01*
X146247243Y-88265233D01*
G75*
G02*
X146247243Y-88371299I-53033J-53033D01*
G01*
X145663879Y-88954663D01*
G75*
G02*
X145557813Y-88954663I-53033J53033D01*
G01*
X145451747Y-88848597D01*
G75*
G02*
X145451747Y-88742531I53033J53033D01*
G01*
G37*
G36*
G01*
X145168905Y-88459689D02*
X145752269Y-87876325D01*
G75*
G02*
X145858335Y-87876325I53033J-53033D01*
G01*
X145964401Y-87982391D01*
G75*
G02*
X145964401Y-88088457I-53033J-53033D01*
G01*
X145381037Y-88671821D01*
G75*
G02*
X145274971Y-88671821I-53033J53033D01*
G01*
X145168905Y-88565755D01*
G75*
G02*
X145168905Y-88459689I53033J53033D01*
G01*
G37*
G36*
G01*
X144886062Y-88176846D02*
X145469426Y-87593482D01*
G75*
G02*
X145575492Y-87593482I53033J-53033D01*
G01*
X145681558Y-87699548D01*
G75*
G02*
X145681558Y-87805614I-53033J-53033D01*
G01*
X145098194Y-88388978D01*
G75*
G02*
X144992128Y-88388978I-53033J53033D01*
G01*
X144886062Y-88282912D01*
G75*
G02*
X144886062Y-88176846I53033J53033D01*
G01*
G37*
G36*
G01*
X144603219Y-87894003D02*
X145186583Y-87310639D01*
G75*
G02*
X145292649Y-87310639I53033J-53033D01*
G01*
X145398715Y-87416705D01*
G75*
G02*
X145398715Y-87522771I-53033J-53033D01*
G01*
X144815351Y-88106135D01*
G75*
G02*
X144709285Y-88106135I-53033J53033D01*
G01*
X144603219Y-88000069D01*
G75*
G02*
X144603219Y-87894003I53033J53033D01*
G01*
G37*
G36*
G01*
X144320377Y-87611161D02*
X144903741Y-87027797D01*
G75*
G02*
X145009807Y-87027797I53033J-53033D01*
G01*
X145115873Y-87133863D01*
G75*
G02*
X145115873Y-87239929I-53033J-53033D01*
G01*
X144532509Y-87823293D01*
G75*
G02*
X144426443Y-87823293I-53033J53033D01*
G01*
X144320377Y-87717227D01*
G75*
G02*
X144320377Y-87611161I53033J53033D01*
G01*
G37*
G36*
G01*
X144037534Y-87328318D02*
X144620898Y-86744954D01*
G75*
G02*
X144726964Y-86744954I53033J-53033D01*
G01*
X144833030Y-86851020D01*
G75*
G02*
X144833030Y-86957086I-53033J-53033D01*
G01*
X144249666Y-87540450D01*
G75*
G02*
X144143600Y-87540450I-53033J53033D01*
G01*
X144037534Y-87434384D01*
G75*
G02*
X144037534Y-87328318I53033J53033D01*
G01*
G37*
G36*
G01*
X144037534Y-85666616D02*
X144143600Y-85560550D01*
G75*
G02*
X144249666Y-85560550I53033J-53033D01*
G01*
X144833030Y-86143914D01*
G75*
G02*
X144833030Y-86249980I-53033J-53033D01*
G01*
X144726964Y-86356046D01*
G75*
G02*
X144620898Y-86356046I-53033J53033D01*
G01*
X144037534Y-85772682D01*
G75*
G02*
X144037534Y-85666616I53033J53033D01*
G01*
G37*
G36*
G01*
X144320377Y-85383773D02*
X144426443Y-85277707D01*
G75*
G02*
X144532509Y-85277707I53033J-53033D01*
G01*
X145115873Y-85861071D01*
G75*
G02*
X145115873Y-85967137I-53033J-53033D01*
G01*
X145009807Y-86073203D01*
G75*
G02*
X144903741Y-86073203I-53033J53033D01*
G01*
X144320377Y-85489839D01*
G75*
G02*
X144320377Y-85383773I53033J53033D01*
G01*
G37*
G36*
G01*
X144603219Y-85100931D02*
X144709285Y-84994865D01*
G75*
G02*
X144815351Y-84994865I53033J-53033D01*
G01*
X145398715Y-85578229D01*
G75*
G02*
X145398715Y-85684295I-53033J-53033D01*
G01*
X145292649Y-85790361D01*
G75*
G02*
X145186583Y-85790361I-53033J53033D01*
G01*
X144603219Y-85206997D01*
G75*
G02*
X144603219Y-85100931I53033J53033D01*
G01*
G37*
G36*
G01*
X144886062Y-84818088D02*
X144992128Y-84712022D01*
G75*
G02*
X145098194Y-84712022I53033J-53033D01*
G01*
X145681558Y-85295386D01*
G75*
G02*
X145681558Y-85401452I-53033J-53033D01*
G01*
X145575492Y-85507518D01*
G75*
G02*
X145469426Y-85507518I-53033J53033D01*
G01*
X144886062Y-84924154D01*
G75*
G02*
X144886062Y-84818088I53033J53033D01*
G01*
G37*
G36*
G01*
X145168905Y-84535245D02*
X145274971Y-84429179D01*
G75*
G02*
X145381037Y-84429179I53033J-53033D01*
G01*
X145964401Y-85012543D01*
G75*
G02*
X145964401Y-85118609I-53033J-53033D01*
G01*
X145858335Y-85224675D01*
G75*
G02*
X145752269Y-85224675I-53033J53033D01*
G01*
X145168905Y-84641311D01*
G75*
G02*
X145168905Y-84535245I53033J53033D01*
G01*
G37*
G36*
G01*
X145451747Y-84252403D02*
X145557813Y-84146337D01*
G75*
G02*
X145663879Y-84146337I53033J-53033D01*
G01*
X146247243Y-84729701D01*
G75*
G02*
X146247243Y-84835767I-53033J-53033D01*
G01*
X146141177Y-84941833D01*
G75*
G02*
X146035111Y-84941833I-53033J53033D01*
G01*
X145451747Y-84358469D01*
G75*
G02*
X145451747Y-84252403I53033J53033D01*
G01*
G37*
G36*
G01*
X145734590Y-83969560D02*
X145840656Y-83863494D01*
G75*
G02*
X145946722Y-83863494I53033J-53033D01*
G01*
X146530086Y-84446858D01*
G75*
G02*
X146530086Y-84552924I-53033J-53033D01*
G01*
X146424020Y-84658990D01*
G75*
G02*
X146317954Y-84658990I-53033J53033D01*
G01*
X145734590Y-84075626D01*
G75*
G02*
X145734590Y-83969560I53033J53033D01*
G01*
G37*
G36*
G01*
X146017433Y-83686717D02*
X146123499Y-83580651D01*
G75*
G02*
X146229565Y-83580651I53033J-53033D01*
G01*
X146812929Y-84164015D01*
G75*
G02*
X146812929Y-84270081I-53033J-53033D01*
G01*
X146706863Y-84376147D01*
G75*
G02*
X146600797Y-84376147I-53033J53033D01*
G01*
X146017433Y-83792783D01*
G75*
G02*
X146017433Y-83686717I53033J53033D01*
G01*
G37*
G36*
G01*
X146300276Y-83403874D02*
X146406342Y-83297808D01*
G75*
G02*
X146512408Y-83297808I53033J-53033D01*
G01*
X147095772Y-83881172D01*
G75*
G02*
X147095772Y-83987238I-53033J-53033D01*
G01*
X146989706Y-84093304D01*
G75*
G02*
X146883640Y-84093304I-53033J53033D01*
G01*
X146300276Y-83509940D01*
G75*
G02*
X146300276Y-83403874I53033J53033D01*
G01*
G37*
G36*
G01*
X146583118Y-83121032D02*
X146689184Y-83014966D01*
G75*
G02*
X146795250Y-83014966I53033J-53033D01*
G01*
X147378614Y-83598330D01*
G75*
G02*
X147378614Y-83704396I-53033J-53033D01*
G01*
X147272548Y-83810462D01*
G75*
G02*
X147166482Y-83810462I-53033J53033D01*
G01*
X146583118Y-83227098D01*
G75*
G02*
X146583118Y-83121032I53033J53033D01*
G01*
G37*
G36*
G01*
X146865961Y-82838189D02*
X146972027Y-82732123D01*
G75*
G02*
X147078093Y-82732123I53033J-53033D01*
G01*
X147661457Y-83315487D01*
G75*
G02*
X147661457Y-83421553I-53033J-53033D01*
G01*
X147555391Y-83527619D01*
G75*
G02*
X147449325Y-83527619I-53033J53033D01*
G01*
X146865961Y-82944255D01*
G75*
G02*
X146865961Y-82838189I53033J53033D01*
G01*
G37*
G36*
G01*
X147148804Y-82555346D02*
X147254870Y-82449280D01*
G75*
G02*
X147360936Y-82449280I53033J-53033D01*
G01*
X147944300Y-83032644D01*
G75*
G02*
X147944300Y-83138710I-53033J-53033D01*
G01*
X147838234Y-83244776D01*
G75*
G02*
X147732168Y-83244776I-53033J53033D01*
G01*
X147148804Y-82661412D01*
G75*
G02*
X147148804Y-82555346I53033J53033D01*
G01*
G37*
G36*
G01*
X147431646Y-82272504D02*
X147537712Y-82166438D01*
G75*
G02*
X147643778Y-82166438I53033J-53033D01*
G01*
X148227142Y-82749802D01*
G75*
G02*
X148227142Y-82855868I-53033J-53033D01*
G01*
X148121076Y-82961934D01*
G75*
G02*
X148015010Y-82961934I-53033J53033D01*
G01*
X147431646Y-82378570D01*
G75*
G02*
X147431646Y-82272504I53033J53033D01*
G01*
G37*
G36*
G01*
X147714489Y-81989661D02*
X147820555Y-81883595D01*
G75*
G02*
X147926621Y-81883595I53033J-53033D01*
G01*
X148509985Y-82466959D01*
G75*
G02*
X148509985Y-82573025I-53033J-53033D01*
G01*
X148403919Y-82679091D01*
G75*
G02*
X148297853Y-82679091I-53033J53033D01*
G01*
X147714489Y-82095727D01*
G75*
G02*
X147714489Y-81989661I53033J53033D01*
G01*
G37*
G36*
G01*
X146475992Y-86445495D02*
X148599434Y-84322053D01*
G75*
G02*
X148809444Y-84322053I105005J-105005D01*
G01*
X150932886Y-86445495D01*
G75*
G02*
X150932886Y-86655505I-105005J-105005D01*
G01*
X148809444Y-88778947D01*
G75*
G02*
X148599434Y-88778947I-105005J105005D01*
G01*
X146475992Y-86655505D01*
G75*
G02*
X146475992Y-86445495I105005J105005D01*
G01*
G37*
D17*
G36*
X137007180Y-94938315D02*
G01*
X132976671Y-90907806D01*
X134532306Y-89352171D01*
X138562815Y-93382680D01*
X137007180Y-94938315D01*
G37*
G36*
X143724694Y-101655829D02*
G01*
X139694185Y-97625320D01*
X141249820Y-96069685D01*
X145280329Y-100100194D01*
X143724694Y-101655829D01*
G37*
G36*
G01*
X143137500Y-78362500D02*
X142612500Y-78362500D01*
G75*
G02*
X142350000Y-78100000I0J262500D01*
G01*
X142350000Y-77475000D01*
G75*
G02*
X142612500Y-77212500I262500J0D01*
G01*
X143137500Y-77212500D01*
G75*
G02*
X143400000Y-77475000I0J-262500D01*
G01*
X143400000Y-78100000D01*
G75*
G02*
X143137500Y-78362500I-262500J0D01*
G01*
G37*
G36*
G01*
X143137500Y-76612500D02*
X142612500Y-76612500D01*
G75*
G02*
X142350000Y-76350000I0J262500D01*
G01*
X142350000Y-75725000D01*
G75*
G02*
X142612500Y-75462500I262500J0D01*
G01*
X143137500Y-75462500D01*
G75*
G02*
X143400000Y-75725000I0J-262500D01*
G01*
X143400000Y-76350000D01*
G75*
G02*
X143137500Y-76612500I-262500J0D01*
G01*
G37*
G36*
G01*
X143137500Y-72993000D02*
X142612500Y-72993000D01*
G75*
G02*
X142350000Y-72730500I0J262500D01*
G01*
X142350000Y-72105500D01*
G75*
G02*
X142612500Y-71843000I262500J0D01*
G01*
X143137500Y-71843000D01*
G75*
G02*
X143400000Y-72105500I0J-262500D01*
G01*
X143400000Y-72730500D01*
G75*
G02*
X143137500Y-72993000I-262500J0D01*
G01*
G37*
G36*
G01*
X143137500Y-74743000D02*
X142612500Y-74743000D01*
G75*
G02*
X142350000Y-74480500I0J262500D01*
G01*
X142350000Y-73855500D01*
G75*
G02*
X142612500Y-73593000I262500J0D01*
G01*
X143137500Y-73593000D01*
G75*
G02*
X143400000Y-73855500I0J-262500D01*
G01*
X143400000Y-74480500D01*
G75*
G02*
X143137500Y-74743000I-262500J0D01*
G01*
G37*
G36*
G01*
X147604471Y-92943298D02*
X147975702Y-93314529D01*
G75*
G02*
X147975702Y-93685761I-185616J-185616D01*
G01*
X147533761Y-94127702D01*
G75*
G02*
X147162529Y-94127702I-185616J185616D01*
G01*
X146791298Y-93756471D01*
G75*
G02*
X146791298Y-93385239I185616J185616D01*
G01*
X147233239Y-92943298D01*
G75*
G02*
X147604471Y-92943298I185616J-185616D01*
G01*
G37*
G36*
G01*
X146367035Y-94180734D02*
X146738266Y-94551965D01*
G75*
G02*
X146738266Y-94923197I-185616J-185616D01*
G01*
X146296325Y-95365138D01*
G75*
G02*
X145925093Y-95365138I-185616J185616D01*
G01*
X145553862Y-94993907D01*
G75*
G02*
X145553862Y-94622675I185616J185616D01*
G01*
X145995803Y-94180734D01*
G75*
G02*
X146367035Y-94180734I185616J-185616D01*
G01*
G37*
G36*
G01*
X140273593Y-89713638D02*
X139902362Y-89342407D01*
G75*
G02*
X139902362Y-88971175I185616J185616D01*
G01*
X140344303Y-88529234D01*
G75*
G02*
X140715535Y-88529234I185616J-185616D01*
G01*
X141086766Y-88900465D01*
G75*
G02*
X141086766Y-89271697I-185616J-185616D01*
G01*
X140644825Y-89713638D01*
G75*
G02*
X140273593Y-89713638I-185616J185616D01*
G01*
G37*
G36*
G01*
X141511029Y-88476202D02*
X141139798Y-88104971D01*
G75*
G02*
X141139798Y-87733739I185616J185616D01*
G01*
X141581739Y-87291798D01*
G75*
G02*
X141952971Y-87291798I185616J-185616D01*
G01*
X142324202Y-87663029D01*
G75*
G02*
X142324202Y-88034261I-185616J-185616D01*
G01*
X141882261Y-88476202D01*
G75*
G02*
X141511029Y-88476202I-185616J185616D01*
G01*
G37*
G36*
G01*
X160180029Y-80856202D02*
X159808798Y-80484971D01*
G75*
G02*
X159808798Y-80113739I185616J185616D01*
G01*
X160250739Y-79671798D01*
G75*
G02*
X160621971Y-79671798I185616J-185616D01*
G01*
X160993202Y-80043029D01*
G75*
G02*
X160993202Y-80414261I-185616J-185616D01*
G01*
X160551261Y-80856202D01*
G75*
G02*
X160180029Y-80856202I-185616J185616D01*
G01*
G37*
G36*
G01*
X158942593Y-82093638D02*
X158571362Y-81722407D01*
G75*
G02*
X158571362Y-81351175I185616J185616D01*
G01*
X159013303Y-80909234D01*
G75*
G02*
X159384535Y-80909234I185616J-185616D01*
G01*
X159755766Y-81280465D01*
G75*
G02*
X159755766Y-81651697I-185616J-185616D01*
G01*
X159313825Y-82093638D01*
G75*
G02*
X158942593Y-82093638I-185616J185616D01*
G01*
G37*
G36*
G01*
X156593093Y-86665638D02*
X156221862Y-86294407D01*
G75*
G02*
X156221862Y-85923175I185616J185616D01*
G01*
X156663803Y-85481234D01*
G75*
G02*
X157035035Y-85481234I185616J-185616D01*
G01*
X157406266Y-85852465D01*
G75*
G02*
X157406266Y-86223697I-185616J-185616D01*
G01*
X156964325Y-86665638D01*
G75*
G02*
X156593093Y-86665638I-185616J185616D01*
G01*
G37*
G36*
G01*
X157830529Y-85428202D02*
X157459298Y-85056971D01*
G75*
G02*
X157459298Y-84685739I185616J185616D01*
G01*
X157901239Y-84243798D01*
G75*
G02*
X158272471Y-84243798I185616J-185616D01*
G01*
X158643702Y-84615029D01*
G75*
G02*
X158643702Y-84986261I-185616J-185616D01*
G01*
X158201761Y-85428202D01*
G75*
G02*
X157830529Y-85428202I-185616J185616D01*
G01*
G37*
G36*
G01*
X158973529Y-86571202D02*
X158602298Y-86199971D01*
G75*
G02*
X158602298Y-85828739I185616J185616D01*
G01*
X159044239Y-85386798D01*
G75*
G02*
X159415471Y-85386798I185616J-185616D01*
G01*
X159786702Y-85758029D01*
G75*
G02*
X159786702Y-86129261I-185616J-185616D01*
G01*
X159344761Y-86571202D01*
G75*
G02*
X158973529Y-86571202I-185616J185616D01*
G01*
G37*
G36*
G01*
X157736093Y-87808638D02*
X157364862Y-87437407D01*
G75*
G02*
X157364862Y-87066175I185616J185616D01*
G01*
X157806803Y-86624234D01*
G75*
G02*
X158178035Y-86624234I185616J-185616D01*
G01*
X158549266Y-86995465D01*
G75*
G02*
X158549266Y-87366697I-185616J-185616D01*
G01*
X158107325Y-87808638D01*
G75*
G02*
X157736093Y-87808638I-185616J185616D01*
G01*
G37*
G36*
G01*
X146308420Y-81357689D02*
X145937189Y-81728920D01*
G75*
G02*
X145565957Y-81728920I-185616J185616D01*
G01*
X145124016Y-81286979D01*
G75*
G02*
X145124016Y-80915747I185616J185616D01*
G01*
X145495247Y-80544516D01*
G75*
G02*
X145866479Y-80544516I185616J-185616D01*
G01*
X146308420Y-80986457D01*
G75*
G02*
X146308420Y-81357689I-185616J-185616D01*
G01*
G37*
G36*
G01*
X145070984Y-80120253D02*
X144699753Y-80491484D01*
G75*
G02*
X144328521Y-80491484I-185616J185616D01*
G01*
X143886580Y-80049543D01*
G75*
G02*
X143886580Y-79678311I185616J185616D01*
G01*
X144257811Y-79307080D01*
G75*
G02*
X144629043Y-79307080I185616J-185616D01*
G01*
X145070984Y-79749021D01*
G75*
G02*
X145070984Y-80120253I-185616J-185616D01*
G01*
G37*
G36*
G01*
X143229484Y-82088753D02*
X142858253Y-82459984D01*
G75*
G02*
X142487021Y-82459984I-185616J185616D01*
G01*
X142045080Y-82018043D01*
G75*
G02*
X142045080Y-81646811I185616J185616D01*
G01*
X142416311Y-81275580D01*
G75*
G02*
X142787543Y-81275580I185616J-185616D01*
G01*
X143229484Y-81717521D01*
G75*
G02*
X143229484Y-82088753I-185616J-185616D01*
G01*
G37*
G36*
G01*
X144466920Y-83326189D02*
X144095689Y-83697420D01*
G75*
G02*
X143724457Y-83697420I-185616J185616D01*
G01*
X143282516Y-83255479D01*
G75*
G02*
X143282516Y-82884247I185616J185616D01*
G01*
X143653747Y-82513016D01*
G75*
G02*
X144024979Y-82513016I185616J-185616D01*
G01*
X144466920Y-82954957D01*
G75*
G02*
X144466920Y-83326189I-185616J-185616D01*
G01*
G37*
G36*
G01*
X144269907Y-89610362D02*
X144641138Y-89981593D01*
G75*
G02*
X144641138Y-90352825I-185616J-185616D01*
G01*
X144199197Y-90794766D01*
G75*
G02*
X143827965Y-90794766I-185616J185616D01*
G01*
X143456734Y-90423535D01*
G75*
G02*
X143456734Y-90052303I185616J185616D01*
G01*
X143898675Y-89610362D01*
G75*
G02*
X144269907Y-89610362I185616J-185616D01*
G01*
G37*
G36*
G01*
X143032471Y-90847798D02*
X143403702Y-91219029D01*
G75*
G02*
X143403702Y-91590261I-185616J-185616D01*
G01*
X142961761Y-92032202D01*
G75*
G02*
X142590529Y-92032202I-185616J185616D01*
G01*
X142219298Y-91660971D01*
G75*
G02*
X142219298Y-91289739I185616J185616D01*
G01*
X142661239Y-90847798D01*
G75*
G02*
X143032471Y-90847798I185616J-185616D01*
G01*
G37*
G36*
G01*
X155093516Y-89615247D02*
X155464747Y-89244016D01*
G75*
G02*
X155835979Y-89244016I185616J-185616D01*
G01*
X156277920Y-89685957D01*
G75*
G02*
X156277920Y-90057189I-185616J-185616D01*
G01*
X155906689Y-90428420D01*
G75*
G02*
X155535457Y-90428420I-185616J185616D01*
G01*
X155093516Y-89986479D01*
G75*
G02*
X155093516Y-89615247I185616J185616D01*
G01*
G37*
G36*
G01*
X153856080Y-88377811D02*
X154227311Y-88006580D01*
G75*
G02*
X154598543Y-88006580I185616J-185616D01*
G01*
X155040484Y-88448521D01*
G75*
G02*
X155040484Y-88819753I-185616J-185616D01*
G01*
X154669253Y-89190984D01*
G75*
G02*
X154298021Y-89190984I-185616J185616D01*
G01*
X153856080Y-88749043D01*
G75*
G02*
X153856080Y-88377811I185616J185616D01*
G01*
G37*
G36*
G01*
X151316080Y-90981311D02*
X151687311Y-90610080D01*
G75*
G02*
X152058543Y-90610080I185616J-185616D01*
G01*
X152500484Y-91052021D01*
G75*
G02*
X152500484Y-91423253I-185616J-185616D01*
G01*
X152129253Y-91794484D01*
G75*
G02*
X151758021Y-91794484I-185616J185616D01*
G01*
X151316080Y-91352543D01*
G75*
G02*
X151316080Y-90981311I185616J185616D01*
G01*
G37*
G36*
G01*
X152553516Y-92218747D02*
X152924747Y-91847516D01*
G75*
G02*
X153295979Y-91847516I185616J-185616D01*
G01*
X153737920Y-92289457D01*
G75*
G02*
X153737920Y-92660689I-185616J-185616D01*
G01*
X153366689Y-93031920D01*
G75*
G02*
X152995457Y-93031920I-185616J185616D01*
G01*
X152553516Y-92589979D01*
G75*
G02*
X152553516Y-92218747I185616J185616D01*
G01*
G37*
G36*
G01*
X155575465Y-83174766D02*
X155204234Y-82803535D01*
G75*
G02*
X155204234Y-82432303I185616J185616D01*
G01*
X155646175Y-81990362D01*
G75*
G02*
X156017407Y-81990362I185616J-185616D01*
G01*
X156388638Y-82361593D01*
G75*
G02*
X156388638Y-82732825I-185616J-185616D01*
G01*
X155946697Y-83174766D01*
G75*
G02*
X155575465Y-83174766I-185616J185616D01*
G01*
G37*
G36*
G01*
X154338029Y-84412202D02*
X153966798Y-84040971D01*
G75*
G02*
X153966798Y-83669739I185616J185616D01*
G01*
X154408739Y-83227798D01*
G75*
G02*
X154779971Y-83227798I185616J-185616D01*
G01*
X155151202Y-83599029D01*
G75*
G02*
X155151202Y-83970261I-185616J-185616D01*
G01*
X154709261Y-84412202D01*
G75*
G02*
X154338029Y-84412202I-185616J185616D01*
G01*
G37*
G36*
G01*
X153227593Y-83300138D02*
X152856362Y-82928907D01*
G75*
G02*
X152856362Y-82557675I185616J185616D01*
G01*
X153298303Y-82115734D01*
G75*
G02*
X153669535Y-82115734I185616J-185616D01*
G01*
X154040766Y-82486965D01*
G75*
G02*
X154040766Y-82858197I-185616J-185616D01*
G01*
X153598825Y-83300138D01*
G75*
G02*
X153227593Y-83300138I-185616J185616D01*
G01*
G37*
G36*
G01*
X154465029Y-82062702D02*
X154093798Y-81691471D01*
G75*
G02*
X154093798Y-81320239I185616J185616D01*
G01*
X154535739Y-80878298D01*
G75*
G02*
X154906971Y-80878298I185616J-185616D01*
G01*
X155278202Y-81249529D01*
G75*
G02*
X155278202Y-81620761I-185616J-185616D01*
G01*
X154836261Y-82062702D01*
G75*
G02*
X154465029Y-82062702I-185616J185616D01*
G01*
G37*
G36*
G01*
X144144535Y-91958234D02*
X144515766Y-92329465D01*
G75*
G02*
X144515766Y-92700697I-185616J-185616D01*
G01*
X144073825Y-93142638D01*
G75*
G02*
X143702593Y-93142638I-185616J185616D01*
G01*
X143331362Y-92771407D01*
G75*
G02*
X143331362Y-92400175I185616J185616D01*
G01*
X143773303Y-91958234D01*
G75*
G02*
X144144535Y-91958234I185616J-185616D01*
G01*
G37*
G36*
G01*
X145381971Y-90720798D02*
X145753202Y-91092029D01*
G75*
G02*
X145753202Y-91463261I-185616J-185616D01*
G01*
X145311261Y-91905202D01*
G75*
G02*
X144940029Y-91905202I-185616J185616D01*
G01*
X144568798Y-91533971D01*
G75*
G02*
X144568798Y-91162739I185616J185616D01*
G01*
X145010739Y-90720798D01*
G75*
G02*
X145381971Y-90720798I185616J-185616D01*
G01*
G37*
G36*
G01*
X146508689Y-91816580D02*
X146879920Y-92187811D01*
G75*
G02*
X146879920Y-92559043I-185616J-185616D01*
G01*
X146437979Y-93000984D01*
G75*
G02*
X146066747Y-93000984I-185616J185616D01*
G01*
X145695516Y-92629753D01*
G75*
G02*
X145695516Y-92258521I185616J185616D01*
G01*
X146137457Y-91816580D01*
G75*
G02*
X146508689Y-91816580I185616J-185616D01*
G01*
G37*
G36*
G01*
X145271253Y-93054016D02*
X145642484Y-93425247D01*
G75*
G02*
X145642484Y-93796479I-185616J-185616D01*
G01*
X145200543Y-94238420D01*
G75*
G02*
X144829311Y-94238420I-185616J185616D01*
G01*
X144458080Y-93867189D01*
G75*
G02*
X144458080Y-93495957I185616J185616D01*
G01*
X144900021Y-93054016D01*
G75*
G02*
X145271253Y-93054016I185616J-185616D01*
G01*
G37*
G36*
G01*
X136897500Y-71779500D02*
X137422500Y-71779500D01*
G75*
G02*
X137685000Y-72042000I0J-262500D01*
G01*
X137685000Y-72667000D01*
G75*
G02*
X137422500Y-72929500I-262500J0D01*
G01*
X136897500Y-72929500D01*
G75*
G02*
X136635000Y-72667000I0J262500D01*
G01*
X136635000Y-72042000D01*
G75*
G02*
X136897500Y-71779500I262500J0D01*
G01*
G37*
G36*
G01*
X136897500Y-73529500D02*
X137422500Y-73529500D01*
G75*
G02*
X137685000Y-73792000I0J-262500D01*
G01*
X137685000Y-74417000D01*
G75*
G02*
X137422500Y-74679500I-262500J0D01*
G01*
X136897500Y-74679500D01*
G75*
G02*
X136635000Y-74417000I0J262500D01*
G01*
X136635000Y-73792000D01*
G75*
G02*
X136897500Y-73529500I262500J0D01*
G01*
G37*
G36*
G01*
X140644000Y-77756000D02*
X141169000Y-77756000D01*
G75*
G02*
X141431500Y-78018500I0J-262500D01*
G01*
X141431500Y-78643500D01*
G75*
G02*
X141169000Y-78906000I-262500J0D01*
G01*
X140644000Y-78906000D01*
G75*
G02*
X140381500Y-78643500I0J262500D01*
G01*
X140381500Y-78018500D01*
G75*
G02*
X140644000Y-77756000I262500J0D01*
G01*
G37*
G36*
G01*
X140644000Y-76006000D02*
X141169000Y-76006000D01*
G75*
G02*
X141431500Y-76268500I0J-262500D01*
G01*
X141431500Y-76893500D01*
G75*
G02*
X141169000Y-77156000I-262500J0D01*
G01*
X140644000Y-77156000D01*
G75*
G02*
X140381500Y-76893500I0J262500D01*
G01*
X140381500Y-76268500D01*
G75*
G02*
X140644000Y-76006000I262500J0D01*
G01*
G37*
G36*
G01*
X162678500Y-76704500D02*
X163203500Y-76704500D01*
G75*
G02*
X163466000Y-76967000I0J-262500D01*
G01*
X163466000Y-77592000D01*
G75*
G02*
X163203500Y-77854500I-262500J0D01*
G01*
X162678500Y-77854500D01*
G75*
G02*
X162416000Y-77592000I0J262500D01*
G01*
X162416000Y-76967000D01*
G75*
G02*
X162678500Y-76704500I262500J0D01*
G01*
G37*
G36*
G01*
X162678500Y-74954500D02*
X163203500Y-74954500D01*
G75*
G02*
X163466000Y-75217000I0J-262500D01*
G01*
X163466000Y-75842000D01*
G75*
G02*
X163203500Y-76104500I-262500J0D01*
G01*
X162678500Y-76104500D01*
G75*
G02*
X162416000Y-75842000I0J262500D01*
G01*
X162416000Y-75217000D01*
G75*
G02*
X162678500Y-74954500I262500J0D01*
G01*
G37*
G36*
G01*
X155030000Y-72064000D02*
X155030000Y-72589000D01*
G75*
G02*
X154767500Y-72851500I-262500J0D01*
G01*
X154142500Y-72851500D01*
G75*
G02*
X153880000Y-72589000I0J262500D01*
G01*
X153880000Y-72064000D01*
G75*
G02*
X154142500Y-71801500I262500J0D01*
G01*
X154767500Y-71801500D01*
G75*
G02*
X155030000Y-72064000I0J-262500D01*
G01*
G37*
G36*
G01*
X156780000Y-72064000D02*
X156780000Y-72589000D01*
G75*
G02*
X156517500Y-72851500I-262500J0D01*
G01*
X155892500Y-72851500D01*
G75*
G02*
X155630000Y-72589000I0J262500D01*
G01*
X155630000Y-72064000D01*
G75*
G02*
X155892500Y-71801500I262500J0D01*
G01*
X156517500Y-71801500D01*
G75*
G02*
X156780000Y-72064000I0J-262500D01*
G01*
G37*
G36*
G01*
X154696500Y-94687000D02*
X154696500Y-94162000D01*
G75*
G02*
X154959000Y-93899500I262500J0D01*
G01*
X155584000Y-93899500D01*
G75*
G02*
X155846500Y-94162000I0J-262500D01*
G01*
X155846500Y-94687000D01*
G75*
G02*
X155584000Y-94949500I-262500J0D01*
G01*
X154959000Y-94949500D01*
G75*
G02*
X154696500Y-94687000I0J262500D01*
G01*
G37*
G36*
G01*
X156446500Y-94687000D02*
X156446500Y-94162000D01*
G75*
G02*
X156709000Y-93899500I262500J0D01*
G01*
X157334000Y-93899500D01*
G75*
G02*
X157596500Y-94162000I0J-262500D01*
G01*
X157596500Y-94687000D01*
G75*
G02*
X157334000Y-94949500I-262500J0D01*
G01*
X156709000Y-94949500D01*
G75*
G02*
X156446500Y-94687000I0J262500D01*
G01*
G37*
G36*
G01*
X161223000Y-94687000D02*
X161223000Y-94162000D01*
G75*
G02*
X161485500Y-93899500I262500J0D01*
G01*
X162110500Y-93899500D01*
G75*
G02*
X162373000Y-94162000I0J-262500D01*
G01*
X162373000Y-94687000D01*
G75*
G02*
X162110500Y-94949500I-262500J0D01*
G01*
X161485500Y-94949500D01*
G75*
G02*
X161223000Y-94687000I0J262500D01*
G01*
G37*
G36*
G01*
X159473000Y-94687000D02*
X159473000Y-94162000D01*
G75*
G02*
X159735500Y-93899500I262500J0D01*
G01*
X160360500Y-93899500D01*
G75*
G02*
X160623000Y-94162000I0J-262500D01*
G01*
X160623000Y-94687000D01*
G75*
G02*
X160360500Y-94949500I-262500J0D01*
G01*
X159735500Y-94949500D01*
G75*
G02*
X159473000Y-94687000I0J262500D01*
G01*
G37*
G36*
G01*
X141447529Y-90889202D02*
X141076298Y-90517971D01*
G75*
G02*
X141076298Y-90146739I185616J185616D01*
G01*
X141518239Y-89704798D01*
G75*
G02*
X141889471Y-89704798I185616J-185616D01*
G01*
X142260702Y-90076029D01*
G75*
G02*
X142260702Y-90447261I-185616J-185616D01*
G01*
X141818761Y-90889202D01*
G75*
G02*
X141447529Y-90889202I-185616J185616D01*
G01*
G37*
G36*
G01*
X142684965Y-89651766D02*
X142313734Y-89280535D01*
G75*
G02*
X142313734Y-88909303I185616J185616D01*
G01*
X142755675Y-88467362D01*
G75*
G02*
X143126907Y-88467362I185616J-185616D01*
G01*
X143498138Y-88838593D01*
G75*
G02*
X143498138Y-89209825I-185616J-185616D01*
G01*
X143056197Y-89651766D01*
G75*
G02*
X142684965Y-89651766I-185616J185616D01*
G01*
G37*
G36*
G01*
X160440000Y-72064000D02*
X160440000Y-72589000D01*
G75*
G02*
X160177500Y-72851500I-262500J0D01*
G01*
X159552500Y-72851500D01*
G75*
G02*
X159290000Y-72589000I0J262500D01*
G01*
X159290000Y-72064000D01*
G75*
G02*
X159552500Y-71801500I262500J0D01*
G01*
X160177500Y-71801500D01*
G75*
G02*
X160440000Y-72064000I0J-262500D01*
G01*
G37*
G36*
G01*
X158690000Y-72064000D02*
X158690000Y-72589000D01*
G75*
G02*
X158427500Y-72851500I-262500J0D01*
G01*
X157802500Y-72851500D01*
G75*
G02*
X157540000Y-72589000I0J262500D01*
G01*
X157540000Y-72064000D01*
G75*
G02*
X157802500Y-71801500I262500J0D01*
G01*
X158427500Y-71801500D01*
G75*
G02*
X158690000Y-72064000I0J-262500D01*
G01*
G37*
G36*
G01*
X156687529Y-84285202D02*
X156316298Y-83913971D01*
G75*
G02*
X156316298Y-83542739I185616J185616D01*
G01*
X156758239Y-83100798D01*
G75*
G02*
X157129471Y-83100798I185616J-185616D01*
G01*
X157500702Y-83472029D01*
G75*
G02*
X157500702Y-83843261I-185616J-185616D01*
G01*
X157058761Y-84285202D01*
G75*
G02*
X156687529Y-84285202I-185616J185616D01*
G01*
G37*
G36*
G01*
X155450093Y-85522638D02*
X155078862Y-85151407D01*
G75*
G02*
X155078862Y-84780175I185616J185616D01*
G01*
X155520803Y-84338234D01*
G75*
G02*
X155892035Y-84338234I185616J-185616D01*
G01*
X156263266Y-84709465D01*
G75*
G02*
X156263266Y-85080697I-185616J-185616D01*
G01*
X155821325Y-85522638D01*
G75*
G02*
X155450093Y-85522638I-185616J185616D01*
G01*
G37*
G36*
G01*
X136613000Y-77986500D02*
X136613000Y-77461500D01*
G75*
G02*
X136875500Y-77199000I262500J0D01*
G01*
X137500500Y-77199000D01*
G75*
G02*
X137763000Y-77461500I0J-262500D01*
G01*
X137763000Y-77986500D01*
G75*
G02*
X137500500Y-78249000I-262500J0D01*
G01*
X136875500Y-78249000D01*
G75*
G02*
X136613000Y-77986500I0J262500D01*
G01*
G37*
G36*
G01*
X138363000Y-77986500D02*
X138363000Y-77461500D01*
G75*
G02*
X138625500Y-77199000I262500J0D01*
G01*
X139250500Y-77199000D01*
G75*
G02*
X139513000Y-77461500I0J-262500D01*
G01*
X139513000Y-77986500D01*
G75*
G02*
X139250500Y-78249000I-262500J0D01*
G01*
X138625500Y-78249000D01*
G75*
G02*
X138363000Y-77986500I0J262500D01*
G01*
G37*
G36*
G01*
X137763000Y-80001500D02*
X137763000Y-80526500D01*
G75*
G02*
X137500500Y-80789000I-262500J0D01*
G01*
X136875500Y-80789000D01*
G75*
G02*
X136613000Y-80526500I0J262500D01*
G01*
X136613000Y-80001500D01*
G75*
G02*
X136875500Y-79739000I262500J0D01*
G01*
X137500500Y-79739000D01*
G75*
G02*
X137763000Y-80001500I0J-262500D01*
G01*
G37*
G36*
G01*
X139513000Y-80001500D02*
X139513000Y-80526500D01*
G75*
G02*
X139250500Y-80789000I-262500J0D01*
G01*
X138625500Y-80789000D01*
G75*
G02*
X138363000Y-80526500I0J262500D01*
G01*
X138363000Y-80001500D01*
G75*
G02*
X138625500Y-79739000I262500J0D01*
G01*
X139250500Y-79739000D01*
G75*
G02*
X139513000Y-80001500I0J-262500D01*
G01*
G37*
D18*
X135128000Y-67500500D03*
X134478000Y-67500500D03*
X133828000Y-67500500D03*
X133178000Y-67500500D03*
X132528000Y-67500500D03*
D19*
X131375500Y-67140500D03*
X136280500Y-67140500D03*
D20*
X134665500Y-64840500D03*
X132990500Y-64840500D03*
D21*
X136740500Y-64840500D03*
X130915500Y-64840500D03*
M02*
