%FSLAX45Y45*%
G04 Gerber Fmt 4.5, Leading zero omitted, Abs format (unit mm)*
G04 Created by KiCad (PCBNEW (5.1.6)-1) date 2024-01-16 16:31:16*
%MOMM*%
%LPD*%
G01*
G04 APERTURE LIST*
%TA.AperFunction,Profile*%
%ADD10C,0.050000*%
%TD*%
%ADD11C,0.200000*%
%ADD12C,0.300000*%
G04 APERTURE END LIST*
D10*
X14166850Y-10280650D02*
X12858750Y-8972550D01*
X17113250Y-6280150D02*
X17113250Y-10280650D01*
X17113250Y-6280150D02*
X12858750Y-6280150D01*
X14166850Y-10280650D02*
X17113250Y-10280650D01*
X12858750Y-6280150D02*
X12858750Y-8972550D01*
D11*
D12*
X13142678Y-10748864D02*
X13142678Y-10448864D01*
X13214107Y-10448864D01*
X13256964Y-10463150D01*
X13285536Y-10491722D01*
X13299821Y-10520293D01*
X13314107Y-10577436D01*
X13314107Y-10620293D01*
X13299821Y-10677436D01*
X13285536Y-10706007D01*
X13256964Y-10734579D01*
X13214107Y-10748864D01*
X13142678Y-10748864D01*
X13442678Y-10748864D02*
X13442678Y-10548864D01*
X13442678Y-10606007D02*
X13456964Y-10577436D01*
X13471250Y-10563150D01*
X13499821Y-10548864D01*
X13528393Y-10548864D01*
X13628393Y-10748864D02*
X13628393Y-10548864D01*
X13628393Y-10448864D02*
X13614107Y-10463150D01*
X13628393Y-10477436D01*
X13642678Y-10463150D01*
X13628393Y-10448864D01*
X13628393Y-10477436D01*
X13814107Y-10748864D02*
X13785536Y-10734579D01*
X13771250Y-10706007D01*
X13771250Y-10448864D01*
X13971250Y-10748864D02*
X13942678Y-10734579D01*
X13928393Y-10706007D01*
X13928393Y-10448864D01*
X14314107Y-10748864D02*
X14314107Y-10448864D01*
X14414107Y-10663150D01*
X14514107Y-10448864D01*
X14514107Y-10748864D01*
X14785536Y-10748864D02*
X14785536Y-10591722D01*
X14771250Y-10563150D01*
X14742678Y-10548864D01*
X14685536Y-10548864D01*
X14656964Y-10563150D01*
X14785536Y-10734579D02*
X14756964Y-10748864D01*
X14685536Y-10748864D01*
X14656964Y-10734579D01*
X14642678Y-10706007D01*
X14642678Y-10677436D01*
X14656964Y-10648864D01*
X14685536Y-10634579D01*
X14756964Y-10634579D01*
X14785536Y-10620293D01*
X14928393Y-10548864D02*
X14928393Y-10848864D01*
X14928393Y-10563150D02*
X14956964Y-10548864D01*
X15014107Y-10548864D01*
X15042678Y-10563150D01*
X15056964Y-10577436D01*
X15071250Y-10606007D01*
X15071250Y-10691722D01*
X15056964Y-10720293D01*
X15042678Y-10734579D01*
X15014107Y-10748864D01*
X14956964Y-10748864D01*
X14928393Y-10734579D01*
X15199821Y-10720293D02*
X15214107Y-10734579D01*
X15199821Y-10748864D01*
X15185536Y-10734579D01*
X15199821Y-10720293D01*
X15199821Y-10748864D01*
X15199821Y-10563150D02*
X15214107Y-10577436D01*
X15199821Y-10591722D01*
X15185536Y-10577436D01*
X15199821Y-10563150D01*
X15199821Y-10591722D01*
M02*
