G04 #@! TF.GenerationSoftware,KiCad,Pcbnew,(5.1.6)-1*
G04 #@! TF.CreationDate,2024-01-16T15:06:30-05:00*
G04 #@! TF.ProjectId,amiga-500-usb-kb-rp2040,616d6967-612d-4353-9030-2d7573622d6b,rev?*
G04 #@! TF.SameCoordinates,Original*
G04 #@! TF.FileFunction,Copper,L2,Inr*
G04 #@! TF.FilePolarity,Positive*
%FSLAX46Y46*%
G04 Gerber Fmt 4.6, Leading zero omitted, Abs format (unit mm)*
G04 Created by KiCad (PCBNEW (5.1.6)-1) date 2024-01-16 15:06:30*
%MOMM*%
%LPD*%
G01*
G04 APERTURE LIST*
G04 #@! TA.AperFunction,ViaPad*
%ADD10R,1.700000X1.700000*%
G04 #@! TD*
G04 #@! TA.AperFunction,ViaPad*
%ADD11O,1.700000X1.700000*%
G04 #@! TD*
G04 #@! TA.AperFunction,ViaPad*
%ADD12C,0.600000*%
G04 #@! TD*
G04 #@! TA.AperFunction,ViaPad*
%ADD13C,0.400000*%
G04 #@! TD*
G04 #@! TA.AperFunction,ViaPad*
%ADD14C,0.800000*%
G04 #@! TD*
G04 #@! TA.AperFunction,Conductor*
%ADD15C,0.254000*%
G04 #@! TD*
G04 APERTURE END LIST*
D10*
X132842000Y-82804000D03*
D11*
X132842000Y-80264000D03*
X132842000Y-77724000D03*
X132842000Y-75184000D03*
X158861760Y-64414400D03*
X156321760Y-64414400D03*
X153781760Y-64414400D03*
X151241760Y-64414400D03*
X148701760Y-64414400D03*
X146161760Y-64414400D03*
X143621760Y-64414400D03*
D10*
X141081760Y-64414400D03*
X141080000Y-68135500D03*
D11*
X143620000Y-68135500D03*
X146160000Y-68135500D03*
X148700000Y-68135500D03*
X151240000Y-68135500D03*
X153780000Y-68135500D03*
X156320000Y-68135500D03*
X158860000Y-68135500D03*
X166878000Y-82740500D03*
D10*
X166878000Y-80200500D03*
X166878000Y-86487000D03*
D11*
X166878000Y-89027000D03*
D12*
X148704439Y-88353622D03*
X147802878Y-87452061D03*
X146901317Y-86550500D03*
X149606000Y-87452061D03*
X148704439Y-86550500D03*
X147802878Y-85648939D03*
X150507561Y-86550500D03*
X149606000Y-85648939D03*
X148704439Y-84747378D03*
D13*
X153606500Y-89408000D03*
X151130000Y-92011500D03*
X154051000Y-94424500D03*
X157480000Y-82042000D03*
X161036000Y-72834500D03*
X162172500Y-74238000D03*
X141414500Y-91630500D03*
X141732000Y-74866500D03*
X139954000Y-74803000D03*
X147383500Y-66230500D03*
X157543500Y-66230500D03*
X157162500Y-70612000D03*
X144780000Y-66294000D03*
X141986000Y-71056500D03*
X135318500Y-78994000D03*
X147891500Y-95186500D03*
X146304000Y-87566500D03*
X156019500Y-76644500D03*
D14*
X131953000Y-69278500D03*
X138938000Y-69786500D03*
X140843000Y-69786500D03*
D13*
X148653500Y-79565500D03*
X147579234Y-84576766D03*
X146240500Y-79565500D03*
X145605500Y-83185000D03*
X147383500Y-79565500D03*
X147002500Y-85153504D03*
X133858000Y-71120000D03*
X148717000Y-89789000D03*
X148653500Y-92265500D03*
X146967624Y-91759376D03*
X153035000Y-84328000D03*
X152654000Y-83345000D03*
X140144500Y-79629000D03*
X150749004Y-85026500D03*
X140144500Y-80264000D03*
X151478669Y-85756169D03*
D15*
G36*
X139928365Y-63261005D02*
G01*
X139875005Y-63326024D01*
X139835355Y-63400204D01*
X139810938Y-63480693D01*
X139802694Y-63564400D01*
X139802694Y-65264400D01*
X139810938Y-65348107D01*
X139835355Y-65428596D01*
X139875005Y-65502776D01*
X139928365Y-65567795D01*
X139993384Y-65621155D01*
X140067564Y-65660805D01*
X140148053Y-65685222D01*
X140231760Y-65693466D01*
X141931760Y-65693466D01*
X142015467Y-65685222D01*
X142095956Y-65660805D01*
X142170136Y-65621155D01*
X142235155Y-65567795D01*
X142288515Y-65502776D01*
X142328165Y-65428596D01*
X142352582Y-65348107D01*
X142360826Y-65264400D01*
X142360826Y-64620944D01*
X142393834Y-64786887D01*
X142490097Y-65019286D01*
X142629849Y-65228440D01*
X142807720Y-65406311D01*
X143016874Y-65546063D01*
X143249273Y-65642326D01*
X143495986Y-65691400D01*
X143747534Y-65691400D01*
X143994247Y-65642326D01*
X144226646Y-65546063D01*
X144435800Y-65406311D01*
X144613671Y-65228440D01*
X144753423Y-65019286D01*
X144849686Y-64786887D01*
X144891760Y-64575366D01*
X144933834Y-64786887D01*
X145030097Y-65019286D01*
X145169849Y-65228440D01*
X145347720Y-65406311D01*
X145556874Y-65546063D01*
X145789273Y-65642326D01*
X146035986Y-65691400D01*
X146287534Y-65691400D01*
X146534247Y-65642326D01*
X146766646Y-65546063D01*
X146975800Y-65406311D01*
X147153671Y-65228440D01*
X147293423Y-65019286D01*
X147389686Y-64786887D01*
X147431760Y-64575366D01*
X147473834Y-64786887D01*
X147570097Y-65019286D01*
X147709849Y-65228440D01*
X147887720Y-65406311D01*
X148096874Y-65546063D01*
X148329273Y-65642326D01*
X148575986Y-65691400D01*
X148827534Y-65691400D01*
X149074247Y-65642326D01*
X149306646Y-65546063D01*
X149515800Y-65406311D01*
X149693671Y-65228440D01*
X149833423Y-65019286D01*
X149929686Y-64786887D01*
X149971760Y-64575366D01*
X150013834Y-64786887D01*
X150110097Y-65019286D01*
X150249849Y-65228440D01*
X150427720Y-65406311D01*
X150636874Y-65546063D01*
X150869273Y-65642326D01*
X151115986Y-65691400D01*
X151367534Y-65691400D01*
X151614247Y-65642326D01*
X151846646Y-65546063D01*
X152055800Y-65406311D01*
X152233671Y-65228440D01*
X152373423Y-65019286D01*
X152469686Y-64786887D01*
X152511760Y-64575366D01*
X152553834Y-64786887D01*
X152650097Y-65019286D01*
X152789849Y-65228440D01*
X152967720Y-65406311D01*
X153176874Y-65546063D01*
X153409273Y-65642326D01*
X153655986Y-65691400D01*
X153907534Y-65691400D01*
X154154247Y-65642326D01*
X154386646Y-65546063D01*
X154595800Y-65406311D01*
X154773671Y-65228440D01*
X154913423Y-65019286D01*
X155009686Y-64786887D01*
X155051760Y-64575366D01*
X155093834Y-64786887D01*
X155190097Y-65019286D01*
X155329849Y-65228440D01*
X155507720Y-65406311D01*
X155716874Y-65546063D01*
X155949273Y-65642326D01*
X156195986Y-65691400D01*
X156447534Y-65691400D01*
X156694247Y-65642326D01*
X156926646Y-65546063D01*
X157135800Y-65406311D01*
X157313671Y-65228440D01*
X157453423Y-65019286D01*
X157549686Y-64786887D01*
X157591760Y-64575366D01*
X157633834Y-64786887D01*
X157730097Y-65019286D01*
X157869849Y-65228440D01*
X158047720Y-65406311D01*
X158256874Y-65546063D01*
X158489273Y-65642326D01*
X158735986Y-65691400D01*
X158987534Y-65691400D01*
X159234247Y-65642326D01*
X159466646Y-65546063D01*
X159675800Y-65406311D01*
X159853671Y-65228440D01*
X159993423Y-65019286D01*
X160089686Y-64786887D01*
X160138760Y-64540174D01*
X160138760Y-64288626D01*
X160089686Y-64041913D01*
X159993423Y-63809514D01*
X159853671Y-63600360D01*
X159675800Y-63422489D01*
X159466646Y-63282737D01*
X159396062Y-63253500D01*
X170680500Y-63253500D01*
X170680501Y-102354500D01*
X141855724Y-102354500D01*
X134625970Y-95124746D01*
X147264500Y-95124746D01*
X147264500Y-95248254D01*
X147288595Y-95369389D01*
X147335860Y-95483496D01*
X147404477Y-95586189D01*
X147491811Y-95673523D01*
X147594504Y-95742140D01*
X147708611Y-95789405D01*
X147829746Y-95813500D01*
X147953254Y-95813500D01*
X148074389Y-95789405D01*
X148188496Y-95742140D01*
X148291189Y-95673523D01*
X148378523Y-95586189D01*
X148447140Y-95483496D01*
X148494405Y-95369389D01*
X148518500Y-95248254D01*
X148518500Y-95124746D01*
X148494405Y-95003611D01*
X148447140Y-94889504D01*
X148378523Y-94786811D01*
X148291189Y-94699477D01*
X148188496Y-94630860D01*
X148074389Y-94583595D01*
X147953254Y-94559500D01*
X147829746Y-94559500D01*
X147708611Y-94583595D01*
X147594504Y-94630860D01*
X147491811Y-94699477D01*
X147404477Y-94786811D01*
X147335860Y-94889504D01*
X147288595Y-95003611D01*
X147264500Y-95124746D01*
X134625970Y-95124746D01*
X131198846Y-91697622D01*
X146340624Y-91697622D01*
X146340624Y-91821130D01*
X146364719Y-91942265D01*
X146411984Y-92056372D01*
X146480601Y-92159065D01*
X146567935Y-92246399D01*
X146670628Y-92315016D01*
X146784735Y-92362281D01*
X146905870Y-92386376D01*
X147029378Y-92386376D01*
X147150513Y-92362281D01*
X147264620Y-92315016D01*
X147367313Y-92246399D01*
X147409966Y-92203746D01*
X148026500Y-92203746D01*
X148026500Y-92327254D01*
X148050595Y-92448389D01*
X148097860Y-92562496D01*
X148166477Y-92665189D01*
X148253811Y-92752523D01*
X148356504Y-92821140D01*
X148470611Y-92868405D01*
X148591746Y-92892500D01*
X148715254Y-92892500D01*
X148836389Y-92868405D01*
X148950496Y-92821140D01*
X149053189Y-92752523D01*
X149140523Y-92665189D01*
X149209140Y-92562496D01*
X149256405Y-92448389D01*
X149280500Y-92327254D01*
X149280500Y-92203746D01*
X149256405Y-92082611D01*
X149209140Y-91968504D01*
X149140523Y-91865811D01*
X149053189Y-91778477D01*
X148950496Y-91709860D01*
X148836389Y-91662595D01*
X148715254Y-91638500D01*
X148591746Y-91638500D01*
X148470611Y-91662595D01*
X148356504Y-91709860D01*
X148253811Y-91778477D01*
X148166477Y-91865811D01*
X148097860Y-91968504D01*
X148050595Y-92082611D01*
X148026500Y-92203746D01*
X147409966Y-92203746D01*
X147454647Y-92159065D01*
X147523264Y-92056372D01*
X147570529Y-91942265D01*
X147594624Y-91821130D01*
X147594624Y-91697622D01*
X147570529Y-91576487D01*
X147523264Y-91462380D01*
X147454647Y-91359687D01*
X147367313Y-91272353D01*
X147264620Y-91203736D01*
X147150513Y-91156471D01*
X147029378Y-91132376D01*
X146905870Y-91132376D01*
X146784735Y-91156471D01*
X146670628Y-91203736D01*
X146567935Y-91272353D01*
X146480601Y-91359687D01*
X146411984Y-91462380D01*
X146364719Y-91576487D01*
X146340624Y-91697622D01*
X131198846Y-91697622D01*
X129228470Y-89727246D01*
X148090000Y-89727246D01*
X148090000Y-89850754D01*
X148114095Y-89971889D01*
X148161360Y-90085996D01*
X148229977Y-90188689D01*
X148317311Y-90276023D01*
X148420004Y-90344640D01*
X148534111Y-90391905D01*
X148655246Y-90416000D01*
X148778754Y-90416000D01*
X148899889Y-90391905D01*
X149013996Y-90344640D01*
X149116689Y-90276023D01*
X149204023Y-90188689D01*
X149272640Y-90085996D01*
X149319905Y-89971889D01*
X149344000Y-89850754D01*
X149344000Y-89727246D01*
X149319905Y-89606111D01*
X149272640Y-89492004D01*
X149204023Y-89389311D01*
X149116689Y-89301977D01*
X149013996Y-89233360D01*
X148899889Y-89186095D01*
X148778754Y-89162000D01*
X148655246Y-89162000D01*
X148534111Y-89186095D01*
X148420004Y-89233360D01*
X148317311Y-89301977D01*
X148229977Y-89389311D01*
X148161360Y-89492004D01*
X148114095Y-89606111D01*
X148090000Y-89727246D01*
X129228470Y-89727246D01*
X129039500Y-89538277D01*
X129039500Y-87504746D01*
X145677000Y-87504746D01*
X145677000Y-87628254D01*
X145701095Y-87749389D01*
X145748360Y-87863496D01*
X145816977Y-87966189D01*
X145904311Y-88053523D01*
X146007004Y-88122140D01*
X146121111Y-88169405D01*
X146242246Y-88193500D01*
X146365754Y-88193500D01*
X146486889Y-88169405D01*
X146600996Y-88122140D01*
X146703689Y-88053523D01*
X146791023Y-87966189D01*
X146859640Y-87863496D01*
X146906905Y-87749389D01*
X146931000Y-87628254D01*
X146931000Y-87504746D01*
X146906905Y-87383611D01*
X146862952Y-87277500D01*
X146972920Y-87277500D01*
X147101442Y-87251936D01*
X147075878Y-87380458D01*
X147075878Y-87523664D01*
X147103816Y-87664119D01*
X147158619Y-87796425D01*
X147238180Y-87915497D01*
X147339442Y-88016759D01*
X147458514Y-88096320D01*
X147590820Y-88151123D01*
X147731275Y-88179061D01*
X147874481Y-88179061D01*
X148003003Y-88153497D01*
X147977439Y-88282019D01*
X147977439Y-88425225D01*
X148005377Y-88565680D01*
X148060180Y-88697986D01*
X148139741Y-88817058D01*
X148241003Y-88918320D01*
X148360075Y-88997881D01*
X148492381Y-89052684D01*
X148632836Y-89080622D01*
X148776042Y-89080622D01*
X148916497Y-89052684D01*
X149048803Y-88997881D01*
X149167875Y-88918320D01*
X149269137Y-88817058D01*
X149348698Y-88697986D01*
X149403501Y-88565680D01*
X149431439Y-88425225D01*
X149431439Y-88282019D01*
X149405875Y-88153497D01*
X149534397Y-88179061D01*
X149677603Y-88179061D01*
X149818058Y-88151123D01*
X149950364Y-88096320D01*
X150069436Y-88016759D01*
X150170698Y-87915497D01*
X150250259Y-87796425D01*
X150305062Y-87664119D01*
X150333000Y-87523664D01*
X150333000Y-87380458D01*
X150307436Y-87251936D01*
X150435958Y-87277500D01*
X150579164Y-87277500D01*
X150719619Y-87249562D01*
X150851925Y-87194759D01*
X150970997Y-87115198D01*
X151072259Y-87013936D01*
X151151820Y-86894864D01*
X151206623Y-86762558D01*
X151234561Y-86622103D01*
X151234561Y-86478897D01*
X151206623Y-86338442D01*
X151198474Y-86318768D01*
X151295780Y-86359074D01*
X151416915Y-86383169D01*
X151540423Y-86383169D01*
X151661558Y-86359074D01*
X151775665Y-86311809D01*
X151878358Y-86243192D01*
X151965692Y-86155858D01*
X152034309Y-86053165D01*
X152081574Y-85939058D01*
X152105669Y-85817923D01*
X152105669Y-85694415D01*
X152094249Y-85637000D01*
X165598934Y-85637000D01*
X165598934Y-87337000D01*
X165607178Y-87420707D01*
X165631595Y-87501196D01*
X165671245Y-87575376D01*
X165724605Y-87640395D01*
X165789624Y-87693755D01*
X165863804Y-87733405D01*
X165944293Y-87757822D01*
X166028000Y-87766066D01*
X166671456Y-87766066D01*
X166505513Y-87799074D01*
X166273114Y-87895337D01*
X166063960Y-88035089D01*
X165886089Y-88212960D01*
X165746337Y-88422114D01*
X165650074Y-88654513D01*
X165601000Y-88901226D01*
X165601000Y-89152774D01*
X165650074Y-89399487D01*
X165746337Y-89631886D01*
X165886089Y-89841040D01*
X166063960Y-90018911D01*
X166273114Y-90158663D01*
X166505513Y-90254926D01*
X166752226Y-90304000D01*
X167003774Y-90304000D01*
X167250487Y-90254926D01*
X167482886Y-90158663D01*
X167692040Y-90018911D01*
X167869911Y-89841040D01*
X168009663Y-89631886D01*
X168105926Y-89399487D01*
X168155000Y-89152774D01*
X168155000Y-88901226D01*
X168105926Y-88654513D01*
X168009663Y-88422114D01*
X167869911Y-88212960D01*
X167692040Y-88035089D01*
X167482886Y-87895337D01*
X167250487Y-87799074D01*
X167084544Y-87766066D01*
X167728000Y-87766066D01*
X167811707Y-87757822D01*
X167892196Y-87733405D01*
X167966376Y-87693755D01*
X168031395Y-87640395D01*
X168084755Y-87575376D01*
X168124405Y-87501196D01*
X168148822Y-87420707D01*
X168157066Y-87337000D01*
X168157066Y-85637000D01*
X168148822Y-85553293D01*
X168124405Y-85472804D01*
X168084755Y-85398624D01*
X168031395Y-85333605D01*
X167966376Y-85280245D01*
X167892196Y-85240595D01*
X167811707Y-85216178D01*
X167728000Y-85207934D01*
X166028000Y-85207934D01*
X165944293Y-85216178D01*
X165863804Y-85240595D01*
X165789624Y-85280245D01*
X165724605Y-85333605D01*
X165671245Y-85398624D01*
X165631595Y-85472804D01*
X165607178Y-85553293D01*
X165598934Y-85637000D01*
X152094249Y-85637000D01*
X152081574Y-85573280D01*
X152034309Y-85459173D01*
X151965692Y-85356480D01*
X151878358Y-85269146D01*
X151775665Y-85200529D01*
X151661558Y-85153264D01*
X151540423Y-85129169D01*
X151416915Y-85129169D01*
X151365845Y-85139327D01*
X151376004Y-85088254D01*
X151376004Y-84964746D01*
X151351909Y-84843611D01*
X151304644Y-84729504D01*
X151236027Y-84626811D01*
X151148693Y-84539477D01*
X151046000Y-84470860D01*
X150931893Y-84423595D01*
X150810758Y-84399500D01*
X150687250Y-84399500D01*
X150566115Y-84423595D01*
X150452008Y-84470860D01*
X150349315Y-84539477D01*
X150261981Y-84626811D01*
X150193364Y-84729504D01*
X150146099Y-84843611D01*
X150122004Y-84964746D01*
X150122004Y-85088254D01*
X150134060Y-85148865D01*
X150069436Y-85084241D01*
X149950364Y-85004680D01*
X149818058Y-84949877D01*
X149677603Y-84921939D01*
X149534397Y-84921939D01*
X149405875Y-84947503D01*
X149431439Y-84818981D01*
X149431439Y-84675775D01*
X149403501Y-84535320D01*
X149348698Y-84403014D01*
X149269137Y-84283942D01*
X149167875Y-84182680D01*
X149048803Y-84103119D01*
X148916497Y-84048316D01*
X148776042Y-84020378D01*
X148632836Y-84020378D01*
X148492381Y-84048316D01*
X148360075Y-84103119D01*
X148241003Y-84182680D01*
X148139741Y-84283942D01*
X148137803Y-84286842D01*
X148134874Y-84279770D01*
X148066257Y-84177077D01*
X147978923Y-84089743D01*
X147876230Y-84021126D01*
X147762123Y-83973861D01*
X147640988Y-83949766D01*
X147517480Y-83949766D01*
X147396345Y-83973861D01*
X147282238Y-84021126D01*
X147179545Y-84089743D01*
X147092211Y-84177077D01*
X147023594Y-84279770D01*
X146976329Y-84393877D01*
X146952234Y-84515012D01*
X146952234Y-84526504D01*
X146940746Y-84526504D01*
X146819611Y-84550599D01*
X146705504Y-84597864D01*
X146602811Y-84666481D01*
X146515477Y-84753815D01*
X146446860Y-84856508D01*
X146399595Y-84970615D01*
X146375500Y-85091750D01*
X146375500Y-85215258D01*
X146399595Y-85336393D01*
X146446860Y-85450500D01*
X146515477Y-85553193D01*
X146602811Y-85640527D01*
X146705504Y-85709144D01*
X146819611Y-85756409D01*
X146940746Y-85780504D01*
X147064254Y-85780504D01*
X147086909Y-85775998D01*
X147101442Y-85849064D01*
X146972920Y-85823500D01*
X146829714Y-85823500D01*
X146689259Y-85851438D01*
X146556953Y-85906241D01*
X146437881Y-85985802D01*
X146336619Y-86087064D01*
X146257058Y-86206136D01*
X146202255Y-86338442D01*
X146174317Y-86478897D01*
X146174317Y-86622103D01*
X146202255Y-86762558D01*
X146257058Y-86894864D01*
X146286883Y-86939500D01*
X146242246Y-86939500D01*
X146121111Y-86963595D01*
X146007004Y-87010860D01*
X145904311Y-87079477D01*
X145816977Y-87166811D01*
X145748360Y-87269504D01*
X145701095Y-87383611D01*
X145677000Y-87504746D01*
X129039500Y-87504746D01*
X129039500Y-81954000D01*
X131562934Y-81954000D01*
X131562934Y-83654000D01*
X131571178Y-83737707D01*
X131595595Y-83818196D01*
X131635245Y-83892376D01*
X131688605Y-83957395D01*
X131753624Y-84010755D01*
X131827804Y-84050405D01*
X131908293Y-84074822D01*
X131992000Y-84083066D01*
X133692000Y-84083066D01*
X133775707Y-84074822D01*
X133856196Y-84050405D01*
X133930376Y-84010755D01*
X133995395Y-83957395D01*
X134048755Y-83892376D01*
X134088405Y-83818196D01*
X134112822Y-83737707D01*
X134121066Y-83654000D01*
X134121066Y-83123246D01*
X144978500Y-83123246D01*
X144978500Y-83246754D01*
X145002595Y-83367889D01*
X145049860Y-83481996D01*
X145118477Y-83584689D01*
X145205811Y-83672023D01*
X145308504Y-83740640D01*
X145422611Y-83787905D01*
X145543746Y-83812000D01*
X145667254Y-83812000D01*
X145788389Y-83787905D01*
X145902496Y-83740640D01*
X146005189Y-83672023D01*
X146092523Y-83584689D01*
X146161140Y-83481996D01*
X146208405Y-83367889D01*
X146225241Y-83283246D01*
X152027000Y-83283246D01*
X152027000Y-83406754D01*
X152051095Y-83527889D01*
X152098360Y-83641996D01*
X152166977Y-83744689D01*
X152254311Y-83832023D01*
X152357004Y-83900640D01*
X152471111Y-83947905D01*
X152527403Y-83959102D01*
X152479360Y-84031004D01*
X152432095Y-84145111D01*
X152408000Y-84266246D01*
X152408000Y-84389754D01*
X152432095Y-84510889D01*
X152479360Y-84624996D01*
X152547977Y-84727689D01*
X152635311Y-84815023D01*
X152738004Y-84883640D01*
X152852111Y-84930905D01*
X152973246Y-84955000D01*
X153096754Y-84955000D01*
X153217889Y-84930905D01*
X153331996Y-84883640D01*
X153434689Y-84815023D01*
X153522023Y-84727689D01*
X153590640Y-84624996D01*
X153637905Y-84510889D01*
X153662000Y-84389754D01*
X153662000Y-84266246D01*
X153637905Y-84145111D01*
X153590640Y-84031004D01*
X153522023Y-83928311D01*
X153434689Y-83840977D01*
X153331996Y-83772360D01*
X153217889Y-83725095D01*
X153161597Y-83713898D01*
X153209640Y-83641996D01*
X153256905Y-83527889D01*
X153281000Y-83406754D01*
X153281000Y-83283246D01*
X153256905Y-83162111D01*
X153209640Y-83048004D01*
X153141023Y-82945311D01*
X153053689Y-82857977D01*
X152950996Y-82789360D01*
X152836889Y-82742095D01*
X152715754Y-82718000D01*
X152592246Y-82718000D01*
X152471111Y-82742095D01*
X152357004Y-82789360D01*
X152254311Y-82857977D01*
X152166977Y-82945311D01*
X152098360Y-83048004D01*
X152051095Y-83162111D01*
X152027000Y-83283246D01*
X146225241Y-83283246D01*
X146232500Y-83246754D01*
X146232500Y-83123246D01*
X146208405Y-83002111D01*
X146161140Y-82888004D01*
X146092523Y-82785311D01*
X146005189Y-82697977D01*
X145902496Y-82629360D01*
X145788389Y-82582095D01*
X145667254Y-82558000D01*
X145543746Y-82558000D01*
X145422611Y-82582095D01*
X145308504Y-82629360D01*
X145205811Y-82697977D01*
X145118477Y-82785311D01*
X145049860Y-82888004D01*
X145002595Y-83002111D01*
X144978500Y-83123246D01*
X134121066Y-83123246D01*
X134121066Y-81954000D01*
X134112822Y-81870293D01*
X134088405Y-81789804D01*
X134048755Y-81715624D01*
X133995395Y-81650605D01*
X133930376Y-81597245D01*
X133856196Y-81557595D01*
X133775707Y-81533178D01*
X133692000Y-81524934D01*
X133048544Y-81524934D01*
X133214487Y-81491926D01*
X133446886Y-81395663D01*
X133656040Y-81255911D01*
X133833911Y-81078040D01*
X133973663Y-80868886D01*
X134069926Y-80636487D01*
X134119000Y-80389774D01*
X134119000Y-80138226D01*
X134069926Y-79891513D01*
X133973663Y-79659114D01*
X133833911Y-79449960D01*
X133656040Y-79272089D01*
X133446886Y-79132337D01*
X133214487Y-79036074D01*
X133002966Y-78994000D01*
X133214487Y-78951926D01*
X133261998Y-78932246D01*
X134691500Y-78932246D01*
X134691500Y-79055754D01*
X134715595Y-79176889D01*
X134762860Y-79290996D01*
X134831477Y-79393689D01*
X134918811Y-79481023D01*
X135021504Y-79549640D01*
X135135611Y-79596905D01*
X135256746Y-79621000D01*
X135380254Y-79621000D01*
X135501389Y-79596905D01*
X135572991Y-79567246D01*
X139517500Y-79567246D01*
X139517500Y-79690754D01*
X139541595Y-79811889D01*
X139588860Y-79925996D01*
X139602560Y-79946500D01*
X139588860Y-79967004D01*
X139541595Y-80081111D01*
X139517500Y-80202246D01*
X139517500Y-80325754D01*
X139541595Y-80446889D01*
X139588860Y-80560996D01*
X139657477Y-80663689D01*
X139744811Y-80751023D01*
X139847504Y-80819640D01*
X139961611Y-80866905D01*
X140082746Y-80891000D01*
X140206254Y-80891000D01*
X140327389Y-80866905D01*
X140441496Y-80819640D01*
X140544189Y-80751023D01*
X140631523Y-80663689D01*
X140700140Y-80560996D01*
X140747405Y-80446889D01*
X140771500Y-80325754D01*
X140771500Y-80202246D01*
X140747405Y-80081111D01*
X140700140Y-79967004D01*
X140686440Y-79946500D01*
X140700140Y-79925996D01*
X140747405Y-79811889D01*
X140771500Y-79690754D01*
X140771500Y-79567246D01*
X140758870Y-79503746D01*
X145613500Y-79503746D01*
X145613500Y-79627254D01*
X145637595Y-79748389D01*
X145684860Y-79862496D01*
X145753477Y-79965189D01*
X145840811Y-80052523D01*
X145943504Y-80121140D01*
X146057611Y-80168405D01*
X146178746Y-80192500D01*
X146302254Y-80192500D01*
X146423389Y-80168405D01*
X146537496Y-80121140D01*
X146640189Y-80052523D01*
X146727523Y-79965189D01*
X146796140Y-79862496D01*
X146812000Y-79824207D01*
X146827860Y-79862496D01*
X146896477Y-79965189D01*
X146983811Y-80052523D01*
X147086504Y-80121140D01*
X147200611Y-80168405D01*
X147321746Y-80192500D01*
X147445254Y-80192500D01*
X147566389Y-80168405D01*
X147680496Y-80121140D01*
X147783189Y-80052523D01*
X147870523Y-79965189D01*
X147939140Y-79862496D01*
X147986405Y-79748389D01*
X148010500Y-79627254D01*
X148010500Y-79503746D01*
X148026500Y-79503746D01*
X148026500Y-79627254D01*
X148050595Y-79748389D01*
X148097860Y-79862496D01*
X148166477Y-79965189D01*
X148253811Y-80052523D01*
X148356504Y-80121140D01*
X148470611Y-80168405D01*
X148591746Y-80192500D01*
X148715254Y-80192500D01*
X148836389Y-80168405D01*
X148950496Y-80121140D01*
X149053189Y-80052523D01*
X149140523Y-79965189D01*
X149209140Y-79862496D01*
X149256405Y-79748389D01*
X149280500Y-79627254D01*
X149280500Y-79503746D01*
X149256405Y-79382611D01*
X149243105Y-79350500D01*
X165598934Y-79350500D01*
X165598934Y-81050500D01*
X165607178Y-81134207D01*
X165631595Y-81214696D01*
X165671245Y-81288876D01*
X165724605Y-81353895D01*
X165789624Y-81407255D01*
X165863804Y-81446905D01*
X165944293Y-81471322D01*
X166028000Y-81479566D01*
X166671456Y-81479566D01*
X166505513Y-81512574D01*
X166273114Y-81608837D01*
X166063960Y-81748589D01*
X165886089Y-81926460D01*
X165746337Y-82135614D01*
X165650074Y-82368013D01*
X165601000Y-82614726D01*
X165601000Y-82866274D01*
X165650074Y-83112987D01*
X165746337Y-83345386D01*
X165886089Y-83554540D01*
X166063960Y-83732411D01*
X166273114Y-83872163D01*
X166505513Y-83968426D01*
X166752226Y-84017500D01*
X167003774Y-84017500D01*
X167250487Y-83968426D01*
X167482886Y-83872163D01*
X167692040Y-83732411D01*
X167869911Y-83554540D01*
X168009663Y-83345386D01*
X168105926Y-83112987D01*
X168155000Y-82866274D01*
X168155000Y-82614726D01*
X168105926Y-82368013D01*
X168009663Y-82135614D01*
X167869911Y-81926460D01*
X167692040Y-81748589D01*
X167482886Y-81608837D01*
X167250487Y-81512574D01*
X167084544Y-81479566D01*
X167728000Y-81479566D01*
X167811707Y-81471322D01*
X167892196Y-81446905D01*
X167966376Y-81407255D01*
X168031395Y-81353895D01*
X168084755Y-81288876D01*
X168124405Y-81214696D01*
X168148822Y-81134207D01*
X168157066Y-81050500D01*
X168157066Y-79350500D01*
X168148822Y-79266793D01*
X168124405Y-79186304D01*
X168084755Y-79112124D01*
X168031395Y-79047105D01*
X167966376Y-78993745D01*
X167892196Y-78954095D01*
X167811707Y-78929678D01*
X167728000Y-78921434D01*
X166028000Y-78921434D01*
X165944293Y-78929678D01*
X165863804Y-78954095D01*
X165789624Y-78993745D01*
X165724605Y-79047105D01*
X165671245Y-79112124D01*
X165631595Y-79186304D01*
X165607178Y-79266793D01*
X165598934Y-79350500D01*
X149243105Y-79350500D01*
X149209140Y-79268504D01*
X149140523Y-79165811D01*
X149053189Y-79078477D01*
X148950496Y-79009860D01*
X148836389Y-78962595D01*
X148715254Y-78938500D01*
X148591746Y-78938500D01*
X148470611Y-78962595D01*
X148356504Y-79009860D01*
X148253811Y-79078477D01*
X148166477Y-79165811D01*
X148097860Y-79268504D01*
X148050595Y-79382611D01*
X148026500Y-79503746D01*
X148010500Y-79503746D01*
X147986405Y-79382611D01*
X147939140Y-79268504D01*
X147870523Y-79165811D01*
X147783189Y-79078477D01*
X147680496Y-79009860D01*
X147566389Y-78962595D01*
X147445254Y-78938500D01*
X147321746Y-78938500D01*
X147200611Y-78962595D01*
X147086504Y-79009860D01*
X146983811Y-79078477D01*
X146896477Y-79165811D01*
X146827860Y-79268504D01*
X146812000Y-79306793D01*
X146796140Y-79268504D01*
X146727523Y-79165811D01*
X146640189Y-79078477D01*
X146537496Y-79009860D01*
X146423389Y-78962595D01*
X146302254Y-78938500D01*
X146178746Y-78938500D01*
X146057611Y-78962595D01*
X145943504Y-79009860D01*
X145840811Y-79078477D01*
X145753477Y-79165811D01*
X145684860Y-79268504D01*
X145637595Y-79382611D01*
X145613500Y-79503746D01*
X140758870Y-79503746D01*
X140747405Y-79446111D01*
X140700140Y-79332004D01*
X140631523Y-79229311D01*
X140544189Y-79141977D01*
X140441496Y-79073360D01*
X140327389Y-79026095D01*
X140206254Y-79002000D01*
X140082746Y-79002000D01*
X139961611Y-79026095D01*
X139847504Y-79073360D01*
X139744811Y-79141977D01*
X139657477Y-79229311D01*
X139588860Y-79332004D01*
X139541595Y-79446111D01*
X139517500Y-79567246D01*
X135572991Y-79567246D01*
X135615496Y-79549640D01*
X135718189Y-79481023D01*
X135805523Y-79393689D01*
X135874140Y-79290996D01*
X135921405Y-79176889D01*
X135945500Y-79055754D01*
X135945500Y-78932246D01*
X135921405Y-78811111D01*
X135874140Y-78697004D01*
X135805523Y-78594311D01*
X135718189Y-78506977D01*
X135615496Y-78438360D01*
X135501389Y-78391095D01*
X135380254Y-78367000D01*
X135256746Y-78367000D01*
X135135611Y-78391095D01*
X135021504Y-78438360D01*
X134918811Y-78506977D01*
X134831477Y-78594311D01*
X134762860Y-78697004D01*
X134715595Y-78811111D01*
X134691500Y-78932246D01*
X133261998Y-78932246D01*
X133446886Y-78855663D01*
X133656040Y-78715911D01*
X133833911Y-78538040D01*
X133973663Y-78328886D01*
X134069926Y-78096487D01*
X134119000Y-77849774D01*
X134119000Y-77598226D01*
X134069926Y-77351513D01*
X133973663Y-77119114D01*
X133833911Y-76909960D01*
X133656040Y-76732089D01*
X133446886Y-76592337D01*
X133423732Y-76582746D01*
X155392500Y-76582746D01*
X155392500Y-76706254D01*
X155416595Y-76827389D01*
X155463860Y-76941496D01*
X155532477Y-77044189D01*
X155619811Y-77131523D01*
X155722504Y-77200140D01*
X155836611Y-77247405D01*
X155957746Y-77271500D01*
X156081254Y-77271500D01*
X156202389Y-77247405D01*
X156316496Y-77200140D01*
X156419189Y-77131523D01*
X156506523Y-77044189D01*
X156575140Y-76941496D01*
X156622405Y-76827389D01*
X156646500Y-76706254D01*
X156646500Y-76582746D01*
X156622405Y-76461611D01*
X156575140Y-76347504D01*
X156506523Y-76244811D01*
X156419189Y-76157477D01*
X156316496Y-76088860D01*
X156202389Y-76041595D01*
X156081254Y-76017500D01*
X155957746Y-76017500D01*
X155836611Y-76041595D01*
X155722504Y-76088860D01*
X155619811Y-76157477D01*
X155532477Y-76244811D01*
X155463860Y-76347504D01*
X155416595Y-76461611D01*
X155392500Y-76582746D01*
X133423732Y-76582746D01*
X133214487Y-76496074D01*
X133002966Y-76454000D01*
X133214487Y-76411926D01*
X133446886Y-76315663D01*
X133656040Y-76175911D01*
X133833911Y-75998040D01*
X133973663Y-75788886D01*
X134069926Y-75556487D01*
X134119000Y-75309774D01*
X134119000Y-75058226D01*
X134069926Y-74811513D01*
X133973663Y-74579114D01*
X133833911Y-74369960D01*
X133656040Y-74192089D01*
X133446886Y-74052337D01*
X133214487Y-73956074D01*
X132967774Y-73907000D01*
X132716226Y-73907000D01*
X132469513Y-73956074D01*
X132237114Y-74052337D01*
X132027960Y-74192089D01*
X131850089Y-74369960D01*
X131710337Y-74579114D01*
X131614074Y-74811513D01*
X131565000Y-75058226D01*
X131565000Y-75309774D01*
X131614074Y-75556487D01*
X131710337Y-75788886D01*
X131850089Y-75998040D01*
X132027960Y-76175911D01*
X132237114Y-76315663D01*
X132469513Y-76411926D01*
X132681034Y-76454000D01*
X132469513Y-76496074D01*
X132237114Y-76592337D01*
X132027960Y-76732089D01*
X131850089Y-76909960D01*
X131710337Y-77119114D01*
X131614074Y-77351513D01*
X131565000Y-77598226D01*
X131565000Y-77849774D01*
X131614074Y-78096487D01*
X131710337Y-78328886D01*
X131850089Y-78538040D01*
X132027960Y-78715911D01*
X132237114Y-78855663D01*
X132469513Y-78951926D01*
X132681034Y-78994000D01*
X132469513Y-79036074D01*
X132237114Y-79132337D01*
X132027960Y-79272089D01*
X131850089Y-79449960D01*
X131710337Y-79659114D01*
X131614074Y-79891513D01*
X131565000Y-80138226D01*
X131565000Y-80389774D01*
X131614074Y-80636487D01*
X131710337Y-80868886D01*
X131850089Y-81078040D01*
X132027960Y-81255911D01*
X132237114Y-81395663D01*
X132469513Y-81491926D01*
X132635456Y-81524934D01*
X131992000Y-81524934D01*
X131908293Y-81533178D01*
X131827804Y-81557595D01*
X131753624Y-81597245D01*
X131688605Y-81650605D01*
X131635245Y-81715624D01*
X131595595Y-81789804D01*
X131571178Y-81870293D01*
X131562934Y-81954000D01*
X129039500Y-81954000D01*
X129039500Y-71058246D01*
X133231000Y-71058246D01*
X133231000Y-71181754D01*
X133255095Y-71302889D01*
X133302360Y-71416996D01*
X133370977Y-71519689D01*
X133458311Y-71607023D01*
X133561004Y-71675640D01*
X133675111Y-71722905D01*
X133796246Y-71747000D01*
X133919754Y-71747000D01*
X134040889Y-71722905D01*
X134154996Y-71675640D01*
X134257689Y-71607023D01*
X134345023Y-71519689D01*
X134413640Y-71416996D01*
X134460905Y-71302889D01*
X134485000Y-71181754D01*
X134485000Y-71058246D01*
X134472370Y-70994746D01*
X141359000Y-70994746D01*
X141359000Y-71118254D01*
X141383095Y-71239389D01*
X141430360Y-71353496D01*
X141498977Y-71456189D01*
X141586311Y-71543523D01*
X141689004Y-71612140D01*
X141803111Y-71659405D01*
X141924246Y-71683500D01*
X142047754Y-71683500D01*
X142168889Y-71659405D01*
X142282996Y-71612140D01*
X142385689Y-71543523D01*
X142473023Y-71456189D01*
X142541640Y-71353496D01*
X142588905Y-71239389D01*
X142613000Y-71118254D01*
X142613000Y-70994746D01*
X142588905Y-70873611D01*
X142541640Y-70759504D01*
X142473023Y-70656811D01*
X142385689Y-70569477D01*
X142356908Y-70550246D01*
X156535500Y-70550246D01*
X156535500Y-70673754D01*
X156559595Y-70794889D01*
X156606860Y-70908996D01*
X156675477Y-71011689D01*
X156762811Y-71099023D01*
X156865504Y-71167640D01*
X156979611Y-71214905D01*
X157100746Y-71239000D01*
X157224254Y-71239000D01*
X157345389Y-71214905D01*
X157459496Y-71167640D01*
X157562189Y-71099023D01*
X157649523Y-71011689D01*
X157718140Y-70908996D01*
X157765405Y-70794889D01*
X157789500Y-70673754D01*
X157789500Y-70550246D01*
X157765405Y-70429111D01*
X157718140Y-70315004D01*
X157649523Y-70212311D01*
X157562189Y-70124977D01*
X157459496Y-70056360D01*
X157345389Y-70009095D01*
X157224254Y-69985000D01*
X157100746Y-69985000D01*
X156979611Y-70009095D01*
X156865504Y-70056360D01*
X156762811Y-70124977D01*
X156675477Y-70212311D01*
X156606860Y-70315004D01*
X156559595Y-70429111D01*
X156535500Y-70550246D01*
X142356908Y-70550246D01*
X142282996Y-70500860D01*
X142168889Y-70453595D01*
X142047754Y-70429500D01*
X141924246Y-70429500D01*
X141803111Y-70453595D01*
X141689004Y-70500860D01*
X141586311Y-70569477D01*
X141498977Y-70656811D01*
X141430360Y-70759504D01*
X141383095Y-70873611D01*
X141359000Y-70994746D01*
X134472370Y-70994746D01*
X134460905Y-70937111D01*
X134413640Y-70823004D01*
X134345023Y-70720311D01*
X134257689Y-70632977D01*
X134154996Y-70564360D01*
X134040889Y-70517095D01*
X133919754Y-70493000D01*
X133796246Y-70493000D01*
X133675111Y-70517095D01*
X133561004Y-70564360D01*
X133458311Y-70632977D01*
X133370977Y-70720311D01*
X133302360Y-70823004D01*
X133255095Y-70937111D01*
X133231000Y-71058246D01*
X129039500Y-71058246D01*
X129039500Y-69197048D01*
X131126000Y-69197048D01*
X131126000Y-69359952D01*
X131157782Y-69519727D01*
X131220123Y-69670231D01*
X131310628Y-69805681D01*
X131425819Y-69920872D01*
X131561269Y-70011377D01*
X131711773Y-70073718D01*
X131871548Y-70105500D01*
X132034452Y-70105500D01*
X132194227Y-70073718D01*
X132344731Y-70011377D01*
X132480181Y-69920872D01*
X132595372Y-69805681D01*
X132662612Y-69705048D01*
X138111000Y-69705048D01*
X138111000Y-69867952D01*
X138142782Y-70027727D01*
X138205123Y-70178231D01*
X138295628Y-70313681D01*
X138410819Y-70428872D01*
X138546269Y-70519377D01*
X138696773Y-70581718D01*
X138856548Y-70613500D01*
X139019452Y-70613500D01*
X139179227Y-70581718D01*
X139329731Y-70519377D01*
X139465181Y-70428872D01*
X139580372Y-70313681D01*
X139670877Y-70178231D01*
X139733218Y-70027727D01*
X139765000Y-69867952D01*
X139765000Y-69705048D01*
X139733218Y-69545273D01*
X139670877Y-69394769D01*
X139580372Y-69259319D01*
X139465181Y-69144128D01*
X139329731Y-69053623D01*
X139179227Y-68991282D01*
X139019452Y-68959500D01*
X138856548Y-68959500D01*
X138696773Y-68991282D01*
X138546269Y-69053623D01*
X138410819Y-69144128D01*
X138295628Y-69259319D01*
X138205123Y-69394769D01*
X138142782Y-69545273D01*
X138111000Y-69705048D01*
X132662612Y-69705048D01*
X132685877Y-69670231D01*
X132748218Y-69519727D01*
X132780000Y-69359952D01*
X132780000Y-69197048D01*
X132748218Y-69037273D01*
X132685877Y-68886769D01*
X132595372Y-68751319D01*
X132480181Y-68636128D01*
X132344731Y-68545623D01*
X132194227Y-68483282D01*
X132034452Y-68451500D01*
X131871548Y-68451500D01*
X131711773Y-68483282D01*
X131561269Y-68545623D01*
X131425819Y-68636128D01*
X131310628Y-68751319D01*
X131220123Y-68886769D01*
X131157782Y-69037273D01*
X131126000Y-69197048D01*
X129039500Y-69197048D01*
X129039500Y-67285500D01*
X139800934Y-67285500D01*
X139800934Y-68985500D01*
X139809178Y-69069207D01*
X139833595Y-69149696D01*
X139873245Y-69223876D01*
X139926605Y-69288895D01*
X139991624Y-69342255D01*
X140065804Y-69381905D01*
X140109909Y-69395285D01*
X140047782Y-69545273D01*
X140016000Y-69705048D01*
X140016000Y-69867952D01*
X140047782Y-70027727D01*
X140110123Y-70178231D01*
X140200628Y-70313681D01*
X140315819Y-70428872D01*
X140451269Y-70519377D01*
X140601773Y-70581718D01*
X140761548Y-70613500D01*
X140924452Y-70613500D01*
X141084227Y-70581718D01*
X141234731Y-70519377D01*
X141370181Y-70428872D01*
X141485372Y-70313681D01*
X141575877Y-70178231D01*
X141638218Y-70027727D01*
X141670000Y-69867952D01*
X141670000Y-69705048D01*
X141638218Y-69545273D01*
X141584077Y-69414566D01*
X141930000Y-69414566D01*
X142013707Y-69406322D01*
X142094196Y-69381905D01*
X142168376Y-69342255D01*
X142233395Y-69288895D01*
X142286755Y-69223876D01*
X142326405Y-69149696D01*
X142350822Y-69069207D01*
X142359066Y-68985500D01*
X142359066Y-68342044D01*
X142392074Y-68507987D01*
X142488337Y-68740386D01*
X142628089Y-68949540D01*
X142805960Y-69127411D01*
X143015114Y-69267163D01*
X143247513Y-69363426D01*
X143494226Y-69412500D01*
X143745774Y-69412500D01*
X143992487Y-69363426D01*
X144224886Y-69267163D01*
X144434040Y-69127411D01*
X144611911Y-68949540D01*
X144751663Y-68740386D01*
X144847926Y-68507987D01*
X144890000Y-68296466D01*
X144932074Y-68507987D01*
X145028337Y-68740386D01*
X145168089Y-68949540D01*
X145345960Y-69127411D01*
X145555114Y-69267163D01*
X145787513Y-69363426D01*
X146034226Y-69412500D01*
X146285774Y-69412500D01*
X146532487Y-69363426D01*
X146764886Y-69267163D01*
X146974040Y-69127411D01*
X147151911Y-68949540D01*
X147291663Y-68740386D01*
X147387926Y-68507987D01*
X147430000Y-68296466D01*
X147472074Y-68507987D01*
X147568337Y-68740386D01*
X147708089Y-68949540D01*
X147885960Y-69127411D01*
X148095114Y-69267163D01*
X148327513Y-69363426D01*
X148574226Y-69412500D01*
X148825774Y-69412500D01*
X149072487Y-69363426D01*
X149304886Y-69267163D01*
X149514040Y-69127411D01*
X149691911Y-68949540D01*
X149831663Y-68740386D01*
X149927926Y-68507987D01*
X149970000Y-68296466D01*
X150012074Y-68507987D01*
X150108337Y-68740386D01*
X150248089Y-68949540D01*
X150425960Y-69127411D01*
X150635114Y-69267163D01*
X150867513Y-69363426D01*
X151114226Y-69412500D01*
X151365774Y-69412500D01*
X151612487Y-69363426D01*
X151844886Y-69267163D01*
X152054040Y-69127411D01*
X152231911Y-68949540D01*
X152371663Y-68740386D01*
X152467926Y-68507987D01*
X152510000Y-68296466D01*
X152552074Y-68507987D01*
X152648337Y-68740386D01*
X152788089Y-68949540D01*
X152965960Y-69127411D01*
X153175114Y-69267163D01*
X153407513Y-69363426D01*
X153654226Y-69412500D01*
X153905774Y-69412500D01*
X154152487Y-69363426D01*
X154384886Y-69267163D01*
X154594040Y-69127411D01*
X154771911Y-68949540D01*
X154911663Y-68740386D01*
X155007926Y-68507987D01*
X155050000Y-68296466D01*
X155092074Y-68507987D01*
X155188337Y-68740386D01*
X155328089Y-68949540D01*
X155505960Y-69127411D01*
X155715114Y-69267163D01*
X155947513Y-69363426D01*
X156194226Y-69412500D01*
X156445774Y-69412500D01*
X156692487Y-69363426D01*
X156924886Y-69267163D01*
X157134040Y-69127411D01*
X157311911Y-68949540D01*
X157451663Y-68740386D01*
X157547926Y-68507987D01*
X157590000Y-68296466D01*
X157632074Y-68507987D01*
X157728337Y-68740386D01*
X157868089Y-68949540D01*
X158045960Y-69127411D01*
X158255114Y-69267163D01*
X158487513Y-69363426D01*
X158734226Y-69412500D01*
X158985774Y-69412500D01*
X159232487Y-69363426D01*
X159464886Y-69267163D01*
X159674040Y-69127411D01*
X159851911Y-68949540D01*
X159991663Y-68740386D01*
X160087926Y-68507987D01*
X160137000Y-68261274D01*
X160137000Y-68009726D01*
X160087926Y-67763013D01*
X159991663Y-67530614D01*
X159851911Y-67321460D01*
X159674040Y-67143589D01*
X159464886Y-67003837D01*
X159232487Y-66907574D01*
X158985774Y-66858500D01*
X158734226Y-66858500D01*
X158487513Y-66907574D01*
X158255114Y-67003837D01*
X158045960Y-67143589D01*
X157868089Y-67321460D01*
X157728337Y-67530614D01*
X157632074Y-67763013D01*
X157590000Y-67974534D01*
X157547926Y-67763013D01*
X157451663Y-67530614D01*
X157311911Y-67321460D01*
X157134040Y-67143589D01*
X156924886Y-67003837D01*
X156692487Y-66907574D01*
X156445774Y-66858500D01*
X156194226Y-66858500D01*
X155947513Y-66907574D01*
X155715114Y-67003837D01*
X155505960Y-67143589D01*
X155328089Y-67321460D01*
X155188337Y-67530614D01*
X155092074Y-67763013D01*
X155050000Y-67974534D01*
X155007926Y-67763013D01*
X154911663Y-67530614D01*
X154771911Y-67321460D01*
X154594040Y-67143589D01*
X154384886Y-67003837D01*
X154152487Y-66907574D01*
X153905774Y-66858500D01*
X153654226Y-66858500D01*
X153407513Y-66907574D01*
X153175114Y-67003837D01*
X152965960Y-67143589D01*
X152788089Y-67321460D01*
X152648337Y-67530614D01*
X152552074Y-67763013D01*
X152510000Y-67974534D01*
X152467926Y-67763013D01*
X152371663Y-67530614D01*
X152231911Y-67321460D01*
X152054040Y-67143589D01*
X151844886Y-67003837D01*
X151612487Y-66907574D01*
X151365774Y-66858500D01*
X151114226Y-66858500D01*
X150867513Y-66907574D01*
X150635114Y-67003837D01*
X150425960Y-67143589D01*
X150248089Y-67321460D01*
X150108337Y-67530614D01*
X150012074Y-67763013D01*
X149970000Y-67974534D01*
X149927926Y-67763013D01*
X149831663Y-67530614D01*
X149691911Y-67321460D01*
X149514040Y-67143589D01*
X149304886Y-67003837D01*
X149072487Y-66907574D01*
X148825774Y-66858500D01*
X148574226Y-66858500D01*
X148327513Y-66907574D01*
X148095114Y-67003837D01*
X147885960Y-67143589D01*
X147708089Y-67321460D01*
X147568337Y-67530614D01*
X147472074Y-67763013D01*
X147430000Y-67974534D01*
X147387926Y-67763013D01*
X147291663Y-67530614D01*
X147151911Y-67321460D01*
X146974040Y-67143589D01*
X146764886Y-67003837D01*
X146532487Y-66907574D01*
X146285774Y-66858500D01*
X146034226Y-66858500D01*
X145787513Y-66907574D01*
X145555114Y-67003837D01*
X145345960Y-67143589D01*
X145168089Y-67321460D01*
X145028337Y-67530614D01*
X144932074Y-67763013D01*
X144890000Y-67974534D01*
X144847926Y-67763013D01*
X144751663Y-67530614D01*
X144611911Y-67321460D01*
X144434040Y-67143589D01*
X144224886Y-67003837D01*
X143992487Y-66907574D01*
X143745774Y-66858500D01*
X143494226Y-66858500D01*
X143247513Y-66907574D01*
X143015114Y-67003837D01*
X142805960Y-67143589D01*
X142628089Y-67321460D01*
X142488337Y-67530614D01*
X142392074Y-67763013D01*
X142359066Y-67928956D01*
X142359066Y-67285500D01*
X142350822Y-67201793D01*
X142326405Y-67121304D01*
X142286755Y-67047124D01*
X142233395Y-66982105D01*
X142168376Y-66928745D01*
X142094196Y-66889095D01*
X142013707Y-66864678D01*
X141930000Y-66856434D01*
X140230000Y-66856434D01*
X140146293Y-66864678D01*
X140065804Y-66889095D01*
X139991624Y-66928745D01*
X139926605Y-66982105D01*
X139873245Y-67047124D01*
X139833595Y-67121304D01*
X139809178Y-67201793D01*
X139800934Y-67285500D01*
X129039500Y-67285500D01*
X129039500Y-66232246D01*
X144153000Y-66232246D01*
X144153000Y-66355754D01*
X144177095Y-66476889D01*
X144224360Y-66590996D01*
X144292977Y-66693689D01*
X144380311Y-66781023D01*
X144483004Y-66849640D01*
X144597111Y-66896905D01*
X144718246Y-66921000D01*
X144841754Y-66921000D01*
X144962889Y-66896905D01*
X145076996Y-66849640D01*
X145179689Y-66781023D01*
X145267023Y-66693689D01*
X145335640Y-66590996D01*
X145382905Y-66476889D01*
X145407000Y-66355754D01*
X145407000Y-66232246D01*
X145394370Y-66168746D01*
X146756500Y-66168746D01*
X146756500Y-66292254D01*
X146780595Y-66413389D01*
X146827860Y-66527496D01*
X146896477Y-66630189D01*
X146983811Y-66717523D01*
X147086504Y-66786140D01*
X147200611Y-66833405D01*
X147321746Y-66857500D01*
X147445254Y-66857500D01*
X147566389Y-66833405D01*
X147680496Y-66786140D01*
X147783189Y-66717523D01*
X147870523Y-66630189D01*
X147939140Y-66527496D01*
X147986405Y-66413389D01*
X148010500Y-66292254D01*
X148010500Y-66168746D01*
X156916500Y-66168746D01*
X156916500Y-66292254D01*
X156940595Y-66413389D01*
X156987860Y-66527496D01*
X157056477Y-66630189D01*
X157143811Y-66717523D01*
X157246504Y-66786140D01*
X157360611Y-66833405D01*
X157481746Y-66857500D01*
X157605254Y-66857500D01*
X157726389Y-66833405D01*
X157840496Y-66786140D01*
X157943189Y-66717523D01*
X158030523Y-66630189D01*
X158099140Y-66527496D01*
X158146405Y-66413389D01*
X158170500Y-66292254D01*
X158170500Y-66168746D01*
X158146405Y-66047611D01*
X158099140Y-65933504D01*
X158030523Y-65830811D01*
X157943189Y-65743477D01*
X157840496Y-65674860D01*
X157726389Y-65627595D01*
X157605254Y-65603500D01*
X157481746Y-65603500D01*
X157360611Y-65627595D01*
X157246504Y-65674860D01*
X157143811Y-65743477D01*
X157056477Y-65830811D01*
X156987860Y-65933504D01*
X156940595Y-66047611D01*
X156916500Y-66168746D01*
X148010500Y-66168746D01*
X147986405Y-66047611D01*
X147939140Y-65933504D01*
X147870523Y-65830811D01*
X147783189Y-65743477D01*
X147680496Y-65674860D01*
X147566389Y-65627595D01*
X147445254Y-65603500D01*
X147321746Y-65603500D01*
X147200611Y-65627595D01*
X147086504Y-65674860D01*
X146983811Y-65743477D01*
X146896477Y-65830811D01*
X146827860Y-65933504D01*
X146780595Y-66047611D01*
X146756500Y-66168746D01*
X145394370Y-66168746D01*
X145382905Y-66111111D01*
X145335640Y-65997004D01*
X145267023Y-65894311D01*
X145179689Y-65806977D01*
X145076996Y-65738360D01*
X144962889Y-65691095D01*
X144841754Y-65667000D01*
X144718246Y-65667000D01*
X144597111Y-65691095D01*
X144483004Y-65738360D01*
X144380311Y-65806977D01*
X144292977Y-65894311D01*
X144224360Y-65997004D01*
X144177095Y-66111111D01*
X144153000Y-66232246D01*
X129039500Y-66232246D01*
X129039500Y-63253500D01*
X139937510Y-63253500D01*
X139928365Y-63261005D01*
G37*
X139928365Y-63261005D02*
X139875005Y-63326024D01*
X139835355Y-63400204D01*
X139810938Y-63480693D01*
X139802694Y-63564400D01*
X139802694Y-65264400D01*
X139810938Y-65348107D01*
X139835355Y-65428596D01*
X139875005Y-65502776D01*
X139928365Y-65567795D01*
X139993384Y-65621155D01*
X140067564Y-65660805D01*
X140148053Y-65685222D01*
X140231760Y-65693466D01*
X141931760Y-65693466D01*
X142015467Y-65685222D01*
X142095956Y-65660805D01*
X142170136Y-65621155D01*
X142235155Y-65567795D01*
X142288515Y-65502776D01*
X142328165Y-65428596D01*
X142352582Y-65348107D01*
X142360826Y-65264400D01*
X142360826Y-64620944D01*
X142393834Y-64786887D01*
X142490097Y-65019286D01*
X142629849Y-65228440D01*
X142807720Y-65406311D01*
X143016874Y-65546063D01*
X143249273Y-65642326D01*
X143495986Y-65691400D01*
X143747534Y-65691400D01*
X143994247Y-65642326D01*
X144226646Y-65546063D01*
X144435800Y-65406311D01*
X144613671Y-65228440D01*
X144753423Y-65019286D01*
X144849686Y-64786887D01*
X144891760Y-64575366D01*
X144933834Y-64786887D01*
X145030097Y-65019286D01*
X145169849Y-65228440D01*
X145347720Y-65406311D01*
X145556874Y-65546063D01*
X145789273Y-65642326D01*
X146035986Y-65691400D01*
X146287534Y-65691400D01*
X146534247Y-65642326D01*
X146766646Y-65546063D01*
X146975800Y-65406311D01*
X147153671Y-65228440D01*
X147293423Y-65019286D01*
X147389686Y-64786887D01*
X147431760Y-64575366D01*
X147473834Y-64786887D01*
X147570097Y-65019286D01*
X147709849Y-65228440D01*
X147887720Y-65406311D01*
X148096874Y-65546063D01*
X148329273Y-65642326D01*
X148575986Y-65691400D01*
X148827534Y-65691400D01*
X149074247Y-65642326D01*
X149306646Y-65546063D01*
X149515800Y-65406311D01*
X149693671Y-65228440D01*
X149833423Y-65019286D01*
X149929686Y-64786887D01*
X149971760Y-64575366D01*
X150013834Y-64786887D01*
X150110097Y-65019286D01*
X150249849Y-65228440D01*
X150427720Y-65406311D01*
X150636874Y-65546063D01*
X150869273Y-65642326D01*
X151115986Y-65691400D01*
X151367534Y-65691400D01*
X151614247Y-65642326D01*
X151846646Y-65546063D01*
X152055800Y-65406311D01*
X152233671Y-65228440D01*
X152373423Y-65019286D01*
X152469686Y-64786887D01*
X152511760Y-64575366D01*
X152553834Y-64786887D01*
X152650097Y-65019286D01*
X152789849Y-65228440D01*
X152967720Y-65406311D01*
X153176874Y-65546063D01*
X153409273Y-65642326D01*
X153655986Y-65691400D01*
X153907534Y-65691400D01*
X154154247Y-65642326D01*
X154386646Y-65546063D01*
X154595800Y-65406311D01*
X154773671Y-65228440D01*
X154913423Y-65019286D01*
X155009686Y-64786887D01*
X155051760Y-64575366D01*
X155093834Y-64786887D01*
X155190097Y-65019286D01*
X155329849Y-65228440D01*
X155507720Y-65406311D01*
X155716874Y-65546063D01*
X155949273Y-65642326D01*
X156195986Y-65691400D01*
X156447534Y-65691400D01*
X156694247Y-65642326D01*
X156926646Y-65546063D01*
X157135800Y-65406311D01*
X157313671Y-65228440D01*
X157453423Y-65019286D01*
X157549686Y-64786887D01*
X157591760Y-64575366D01*
X157633834Y-64786887D01*
X157730097Y-65019286D01*
X157869849Y-65228440D01*
X158047720Y-65406311D01*
X158256874Y-65546063D01*
X158489273Y-65642326D01*
X158735986Y-65691400D01*
X158987534Y-65691400D01*
X159234247Y-65642326D01*
X159466646Y-65546063D01*
X159675800Y-65406311D01*
X159853671Y-65228440D01*
X159993423Y-65019286D01*
X160089686Y-64786887D01*
X160138760Y-64540174D01*
X160138760Y-64288626D01*
X160089686Y-64041913D01*
X159993423Y-63809514D01*
X159853671Y-63600360D01*
X159675800Y-63422489D01*
X159466646Y-63282737D01*
X159396062Y-63253500D01*
X170680500Y-63253500D01*
X170680501Y-102354500D01*
X141855724Y-102354500D01*
X134625970Y-95124746D01*
X147264500Y-95124746D01*
X147264500Y-95248254D01*
X147288595Y-95369389D01*
X147335860Y-95483496D01*
X147404477Y-95586189D01*
X147491811Y-95673523D01*
X147594504Y-95742140D01*
X147708611Y-95789405D01*
X147829746Y-95813500D01*
X147953254Y-95813500D01*
X148074389Y-95789405D01*
X148188496Y-95742140D01*
X148291189Y-95673523D01*
X148378523Y-95586189D01*
X148447140Y-95483496D01*
X148494405Y-95369389D01*
X148518500Y-95248254D01*
X148518500Y-95124746D01*
X148494405Y-95003611D01*
X148447140Y-94889504D01*
X148378523Y-94786811D01*
X148291189Y-94699477D01*
X148188496Y-94630860D01*
X148074389Y-94583595D01*
X147953254Y-94559500D01*
X147829746Y-94559500D01*
X147708611Y-94583595D01*
X147594504Y-94630860D01*
X147491811Y-94699477D01*
X147404477Y-94786811D01*
X147335860Y-94889504D01*
X147288595Y-95003611D01*
X147264500Y-95124746D01*
X134625970Y-95124746D01*
X131198846Y-91697622D01*
X146340624Y-91697622D01*
X146340624Y-91821130D01*
X146364719Y-91942265D01*
X146411984Y-92056372D01*
X146480601Y-92159065D01*
X146567935Y-92246399D01*
X146670628Y-92315016D01*
X146784735Y-92362281D01*
X146905870Y-92386376D01*
X147029378Y-92386376D01*
X147150513Y-92362281D01*
X147264620Y-92315016D01*
X147367313Y-92246399D01*
X147409966Y-92203746D01*
X148026500Y-92203746D01*
X148026500Y-92327254D01*
X148050595Y-92448389D01*
X148097860Y-92562496D01*
X148166477Y-92665189D01*
X148253811Y-92752523D01*
X148356504Y-92821140D01*
X148470611Y-92868405D01*
X148591746Y-92892500D01*
X148715254Y-92892500D01*
X148836389Y-92868405D01*
X148950496Y-92821140D01*
X149053189Y-92752523D01*
X149140523Y-92665189D01*
X149209140Y-92562496D01*
X149256405Y-92448389D01*
X149280500Y-92327254D01*
X149280500Y-92203746D01*
X149256405Y-92082611D01*
X149209140Y-91968504D01*
X149140523Y-91865811D01*
X149053189Y-91778477D01*
X148950496Y-91709860D01*
X148836389Y-91662595D01*
X148715254Y-91638500D01*
X148591746Y-91638500D01*
X148470611Y-91662595D01*
X148356504Y-91709860D01*
X148253811Y-91778477D01*
X148166477Y-91865811D01*
X148097860Y-91968504D01*
X148050595Y-92082611D01*
X148026500Y-92203746D01*
X147409966Y-92203746D01*
X147454647Y-92159065D01*
X147523264Y-92056372D01*
X147570529Y-91942265D01*
X147594624Y-91821130D01*
X147594624Y-91697622D01*
X147570529Y-91576487D01*
X147523264Y-91462380D01*
X147454647Y-91359687D01*
X147367313Y-91272353D01*
X147264620Y-91203736D01*
X147150513Y-91156471D01*
X147029378Y-91132376D01*
X146905870Y-91132376D01*
X146784735Y-91156471D01*
X146670628Y-91203736D01*
X146567935Y-91272353D01*
X146480601Y-91359687D01*
X146411984Y-91462380D01*
X146364719Y-91576487D01*
X146340624Y-91697622D01*
X131198846Y-91697622D01*
X129228470Y-89727246D01*
X148090000Y-89727246D01*
X148090000Y-89850754D01*
X148114095Y-89971889D01*
X148161360Y-90085996D01*
X148229977Y-90188689D01*
X148317311Y-90276023D01*
X148420004Y-90344640D01*
X148534111Y-90391905D01*
X148655246Y-90416000D01*
X148778754Y-90416000D01*
X148899889Y-90391905D01*
X149013996Y-90344640D01*
X149116689Y-90276023D01*
X149204023Y-90188689D01*
X149272640Y-90085996D01*
X149319905Y-89971889D01*
X149344000Y-89850754D01*
X149344000Y-89727246D01*
X149319905Y-89606111D01*
X149272640Y-89492004D01*
X149204023Y-89389311D01*
X149116689Y-89301977D01*
X149013996Y-89233360D01*
X148899889Y-89186095D01*
X148778754Y-89162000D01*
X148655246Y-89162000D01*
X148534111Y-89186095D01*
X148420004Y-89233360D01*
X148317311Y-89301977D01*
X148229977Y-89389311D01*
X148161360Y-89492004D01*
X148114095Y-89606111D01*
X148090000Y-89727246D01*
X129228470Y-89727246D01*
X129039500Y-89538277D01*
X129039500Y-87504746D01*
X145677000Y-87504746D01*
X145677000Y-87628254D01*
X145701095Y-87749389D01*
X145748360Y-87863496D01*
X145816977Y-87966189D01*
X145904311Y-88053523D01*
X146007004Y-88122140D01*
X146121111Y-88169405D01*
X146242246Y-88193500D01*
X146365754Y-88193500D01*
X146486889Y-88169405D01*
X146600996Y-88122140D01*
X146703689Y-88053523D01*
X146791023Y-87966189D01*
X146859640Y-87863496D01*
X146906905Y-87749389D01*
X146931000Y-87628254D01*
X146931000Y-87504746D01*
X146906905Y-87383611D01*
X146862952Y-87277500D01*
X146972920Y-87277500D01*
X147101442Y-87251936D01*
X147075878Y-87380458D01*
X147075878Y-87523664D01*
X147103816Y-87664119D01*
X147158619Y-87796425D01*
X147238180Y-87915497D01*
X147339442Y-88016759D01*
X147458514Y-88096320D01*
X147590820Y-88151123D01*
X147731275Y-88179061D01*
X147874481Y-88179061D01*
X148003003Y-88153497D01*
X147977439Y-88282019D01*
X147977439Y-88425225D01*
X148005377Y-88565680D01*
X148060180Y-88697986D01*
X148139741Y-88817058D01*
X148241003Y-88918320D01*
X148360075Y-88997881D01*
X148492381Y-89052684D01*
X148632836Y-89080622D01*
X148776042Y-89080622D01*
X148916497Y-89052684D01*
X149048803Y-88997881D01*
X149167875Y-88918320D01*
X149269137Y-88817058D01*
X149348698Y-88697986D01*
X149403501Y-88565680D01*
X149431439Y-88425225D01*
X149431439Y-88282019D01*
X149405875Y-88153497D01*
X149534397Y-88179061D01*
X149677603Y-88179061D01*
X149818058Y-88151123D01*
X149950364Y-88096320D01*
X150069436Y-88016759D01*
X150170698Y-87915497D01*
X150250259Y-87796425D01*
X150305062Y-87664119D01*
X150333000Y-87523664D01*
X150333000Y-87380458D01*
X150307436Y-87251936D01*
X150435958Y-87277500D01*
X150579164Y-87277500D01*
X150719619Y-87249562D01*
X150851925Y-87194759D01*
X150970997Y-87115198D01*
X151072259Y-87013936D01*
X151151820Y-86894864D01*
X151206623Y-86762558D01*
X151234561Y-86622103D01*
X151234561Y-86478897D01*
X151206623Y-86338442D01*
X151198474Y-86318768D01*
X151295780Y-86359074D01*
X151416915Y-86383169D01*
X151540423Y-86383169D01*
X151661558Y-86359074D01*
X151775665Y-86311809D01*
X151878358Y-86243192D01*
X151965692Y-86155858D01*
X152034309Y-86053165D01*
X152081574Y-85939058D01*
X152105669Y-85817923D01*
X152105669Y-85694415D01*
X152094249Y-85637000D01*
X165598934Y-85637000D01*
X165598934Y-87337000D01*
X165607178Y-87420707D01*
X165631595Y-87501196D01*
X165671245Y-87575376D01*
X165724605Y-87640395D01*
X165789624Y-87693755D01*
X165863804Y-87733405D01*
X165944293Y-87757822D01*
X166028000Y-87766066D01*
X166671456Y-87766066D01*
X166505513Y-87799074D01*
X166273114Y-87895337D01*
X166063960Y-88035089D01*
X165886089Y-88212960D01*
X165746337Y-88422114D01*
X165650074Y-88654513D01*
X165601000Y-88901226D01*
X165601000Y-89152774D01*
X165650074Y-89399487D01*
X165746337Y-89631886D01*
X165886089Y-89841040D01*
X166063960Y-90018911D01*
X166273114Y-90158663D01*
X166505513Y-90254926D01*
X166752226Y-90304000D01*
X167003774Y-90304000D01*
X167250487Y-90254926D01*
X167482886Y-90158663D01*
X167692040Y-90018911D01*
X167869911Y-89841040D01*
X168009663Y-89631886D01*
X168105926Y-89399487D01*
X168155000Y-89152774D01*
X168155000Y-88901226D01*
X168105926Y-88654513D01*
X168009663Y-88422114D01*
X167869911Y-88212960D01*
X167692040Y-88035089D01*
X167482886Y-87895337D01*
X167250487Y-87799074D01*
X167084544Y-87766066D01*
X167728000Y-87766066D01*
X167811707Y-87757822D01*
X167892196Y-87733405D01*
X167966376Y-87693755D01*
X168031395Y-87640395D01*
X168084755Y-87575376D01*
X168124405Y-87501196D01*
X168148822Y-87420707D01*
X168157066Y-87337000D01*
X168157066Y-85637000D01*
X168148822Y-85553293D01*
X168124405Y-85472804D01*
X168084755Y-85398624D01*
X168031395Y-85333605D01*
X167966376Y-85280245D01*
X167892196Y-85240595D01*
X167811707Y-85216178D01*
X167728000Y-85207934D01*
X166028000Y-85207934D01*
X165944293Y-85216178D01*
X165863804Y-85240595D01*
X165789624Y-85280245D01*
X165724605Y-85333605D01*
X165671245Y-85398624D01*
X165631595Y-85472804D01*
X165607178Y-85553293D01*
X165598934Y-85637000D01*
X152094249Y-85637000D01*
X152081574Y-85573280D01*
X152034309Y-85459173D01*
X151965692Y-85356480D01*
X151878358Y-85269146D01*
X151775665Y-85200529D01*
X151661558Y-85153264D01*
X151540423Y-85129169D01*
X151416915Y-85129169D01*
X151365845Y-85139327D01*
X151376004Y-85088254D01*
X151376004Y-84964746D01*
X151351909Y-84843611D01*
X151304644Y-84729504D01*
X151236027Y-84626811D01*
X151148693Y-84539477D01*
X151046000Y-84470860D01*
X150931893Y-84423595D01*
X150810758Y-84399500D01*
X150687250Y-84399500D01*
X150566115Y-84423595D01*
X150452008Y-84470860D01*
X150349315Y-84539477D01*
X150261981Y-84626811D01*
X150193364Y-84729504D01*
X150146099Y-84843611D01*
X150122004Y-84964746D01*
X150122004Y-85088254D01*
X150134060Y-85148865D01*
X150069436Y-85084241D01*
X149950364Y-85004680D01*
X149818058Y-84949877D01*
X149677603Y-84921939D01*
X149534397Y-84921939D01*
X149405875Y-84947503D01*
X149431439Y-84818981D01*
X149431439Y-84675775D01*
X149403501Y-84535320D01*
X149348698Y-84403014D01*
X149269137Y-84283942D01*
X149167875Y-84182680D01*
X149048803Y-84103119D01*
X148916497Y-84048316D01*
X148776042Y-84020378D01*
X148632836Y-84020378D01*
X148492381Y-84048316D01*
X148360075Y-84103119D01*
X148241003Y-84182680D01*
X148139741Y-84283942D01*
X148137803Y-84286842D01*
X148134874Y-84279770D01*
X148066257Y-84177077D01*
X147978923Y-84089743D01*
X147876230Y-84021126D01*
X147762123Y-83973861D01*
X147640988Y-83949766D01*
X147517480Y-83949766D01*
X147396345Y-83973861D01*
X147282238Y-84021126D01*
X147179545Y-84089743D01*
X147092211Y-84177077D01*
X147023594Y-84279770D01*
X146976329Y-84393877D01*
X146952234Y-84515012D01*
X146952234Y-84526504D01*
X146940746Y-84526504D01*
X146819611Y-84550599D01*
X146705504Y-84597864D01*
X146602811Y-84666481D01*
X146515477Y-84753815D01*
X146446860Y-84856508D01*
X146399595Y-84970615D01*
X146375500Y-85091750D01*
X146375500Y-85215258D01*
X146399595Y-85336393D01*
X146446860Y-85450500D01*
X146515477Y-85553193D01*
X146602811Y-85640527D01*
X146705504Y-85709144D01*
X146819611Y-85756409D01*
X146940746Y-85780504D01*
X147064254Y-85780504D01*
X147086909Y-85775998D01*
X147101442Y-85849064D01*
X146972920Y-85823500D01*
X146829714Y-85823500D01*
X146689259Y-85851438D01*
X146556953Y-85906241D01*
X146437881Y-85985802D01*
X146336619Y-86087064D01*
X146257058Y-86206136D01*
X146202255Y-86338442D01*
X146174317Y-86478897D01*
X146174317Y-86622103D01*
X146202255Y-86762558D01*
X146257058Y-86894864D01*
X146286883Y-86939500D01*
X146242246Y-86939500D01*
X146121111Y-86963595D01*
X146007004Y-87010860D01*
X145904311Y-87079477D01*
X145816977Y-87166811D01*
X145748360Y-87269504D01*
X145701095Y-87383611D01*
X145677000Y-87504746D01*
X129039500Y-87504746D01*
X129039500Y-81954000D01*
X131562934Y-81954000D01*
X131562934Y-83654000D01*
X131571178Y-83737707D01*
X131595595Y-83818196D01*
X131635245Y-83892376D01*
X131688605Y-83957395D01*
X131753624Y-84010755D01*
X131827804Y-84050405D01*
X131908293Y-84074822D01*
X131992000Y-84083066D01*
X133692000Y-84083066D01*
X133775707Y-84074822D01*
X133856196Y-84050405D01*
X133930376Y-84010755D01*
X133995395Y-83957395D01*
X134048755Y-83892376D01*
X134088405Y-83818196D01*
X134112822Y-83737707D01*
X134121066Y-83654000D01*
X134121066Y-83123246D01*
X144978500Y-83123246D01*
X144978500Y-83246754D01*
X145002595Y-83367889D01*
X145049860Y-83481996D01*
X145118477Y-83584689D01*
X145205811Y-83672023D01*
X145308504Y-83740640D01*
X145422611Y-83787905D01*
X145543746Y-83812000D01*
X145667254Y-83812000D01*
X145788389Y-83787905D01*
X145902496Y-83740640D01*
X146005189Y-83672023D01*
X146092523Y-83584689D01*
X146161140Y-83481996D01*
X146208405Y-83367889D01*
X146225241Y-83283246D01*
X152027000Y-83283246D01*
X152027000Y-83406754D01*
X152051095Y-83527889D01*
X152098360Y-83641996D01*
X152166977Y-83744689D01*
X152254311Y-83832023D01*
X152357004Y-83900640D01*
X152471111Y-83947905D01*
X152527403Y-83959102D01*
X152479360Y-84031004D01*
X152432095Y-84145111D01*
X152408000Y-84266246D01*
X152408000Y-84389754D01*
X152432095Y-84510889D01*
X152479360Y-84624996D01*
X152547977Y-84727689D01*
X152635311Y-84815023D01*
X152738004Y-84883640D01*
X152852111Y-84930905D01*
X152973246Y-84955000D01*
X153096754Y-84955000D01*
X153217889Y-84930905D01*
X153331996Y-84883640D01*
X153434689Y-84815023D01*
X153522023Y-84727689D01*
X153590640Y-84624996D01*
X153637905Y-84510889D01*
X153662000Y-84389754D01*
X153662000Y-84266246D01*
X153637905Y-84145111D01*
X153590640Y-84031004D01*
X153522023Y-83928311D01*
X153434689Y-83840977D01*
X153331996Y-83772360D01*
X153217889Y-83725095D01*
X153161597Y-83713898D01*
X153209640Y-83641996D01*
X153256905Y-83527889D01*
X153281000Y-83406754D01*
X153281000Y-83283246D01*
X153256905Y-83162111D01*
X153209640Y-83048004D01*
X153141023Y-82945311D01*
X153053689Y-82857977D01*
X152950996Y-82789360D01*
X152836889Y-82742095D01*
X152715754Y-82718000D01*
X152592246Y-82718000D01*
X152471111Y-82742095D01*
X152357004Y-82789360D01*
X152254311Y-82857977D01*
X152166977Y-82945311D01*
X152098360Y-83048004D01*
X152051095Y-83162111D01*
X152027000Y-83283246D01*
X146225241Y-83283246D01*
X146232500Y-83246754D01*
X146232500Y-83123246D01*
X146208405Y-83002111D01*
X146161140Y-82888004D01*
X146092523Y-82785311D01*
X146005189Y-82697977D01*
X145902496Y-82629360D01*
X145788389Y-82582095D01*
X145667254Y-82558000D01*
X145543746Y-82558000D01*
X145422611Y-82582095D01*
X145308504Y-82629360D01*
X145205811Y-82697977D01*
X145118477Y-82785311D01*
X145049860Y-82888004D01*
X145002595Y-83002111D01*
X144978500Y-83123246D01*
X134121066Y-83123246D01*
X134121066Y-81954000D01*
X134112822Y-81870293D01*
X134088405Y-81789804D01*
X134048755Y-81715624D01*
X133995395Y-81650605D01*
X133930376Y-81597245D01*
X133856196Y-81557595D01*
X133775707Y-81533178D01*
X133692000Y-81524934D01*
X133048544Y-81524934D01*
X133214487Y-81491926D01*
X133446886Y-81395663D01*
X133656040Y-81255911D01*
X133833911Y-81078040D01*
X133973663Y-80868886D01*
X134069926Y-80636487D01*
X134119000Y-80389774D01*
X134119000Y-80138226D01*
X134069926Y-79891513D01*
X133973663Y-79659114D01*
X133833911Y-79449960D01*
X133656040Y-79272089D01*
X133446886Y-79132337D01*
X133214487Y-79036074D01*
X133002966Y-78994000D01*
X133214487Y-78951926D01*
X133261998Y-78932246D01*
X134691500Y-78932246D01*
X134691500Y-79055754D01*
X134715595Y-79176889D01*
X134762860Y-79290996D01*
X134831477Y-79393689D01*
X134918811Y-79481023D01*
X135021504Y-79549640D01*
X135135611Y-79596905D01*
X135256746Y-79621000D01*
X135380254Y-79621000D01*
X135501389Y-79596905D01*
X135572991Y-79567246D01*
X139517500Y-79567246D01*
X139517500Y-79690754D01*
X139541595Y-79811889D01*
X139588860Y-79925996D01*
X139602560Y-79946500D01*
X139588860Y-79967004D01*
X139541595Y-80081111D01*
X139517500Y-80202246D01*
X139517500Y-80325754D01*
X139541595Y-80446889D01*
X139588860Y-80560996D01*
X139657477Y-80663689D01*
X139744811Y-80751023D01*
X139847504Y-80819640D01*
X139961611Y-80866905D01*
X140082746Y-80891000D01*
X140206254Y-80891000D01*
X140327389Y-80866905D01*
X140441496Y-80819640D01*
X140544189Y-80751023D01*
X140631523Y-80663689D01*
X140700140Y-80560996D01*
X140747405Y-80446889D01*
X140771500Y-80325754D01*
X140771500Y-80202246D01*
X140747405Y-80081111D01*
X140700140Y-79967004D01*
X140686440Y-79946500D01*
X140700140Y-79925996D01*
X140747405Y-79811889D01*
X140771500Y-79690754D01*
X140771500Y-79567246D01*
X140758870Y-79503746D01*
X145613500Y-79503746D01*
X145613500Y-79627254D01*
X145637595Y-79748389D01*
X145684860Y-79862496D01*
X145753477Y-79965189D01*
X145840811Y-80052523D01*
X145943504Y-80121140D01*
X146057611Y-80168405D01*
X146178746Y-80192500D01*
X146302254Y-80192500D01*
X146423389Y-80168405D01*
X146537496Y-80121140D01*
X146640189Y-80052523D01*
X146727523Y-79965189D01*
X146796140Y-79862496D01*
X146812000Y-79824207D01*
X146827860Y-79862496D01*
X146896477Y-79965189D01*
X146983811Y-80052523D01*
X147086504Y-80121140D01*
X147200611Y-80168405D01*
X147321746Y-80192500D01*
X147445254Y-80192500D01*
X147566389Y-80168405D01*
X147680496Y-80121140D01*
X147783189Y-80052523D01*
X147870523Y-79965189D01*
X147939140Y-79862496D01*
X147986405Y-79748389D01*
X148010500Y-79627254D01*
X148010500Y-79503746D01*
X148026500Y-79503746D01*
X148026500Y-79627254D01*
X148050595Y-79748389D01*
X148097860Y-79862496D01*
X148166477Y-79965189D01*
X148253811Y-80052523D01*
X148356504Y-80121140D01*
X148470611Y-80168405D01*
X148591746Y-80192500D01*
X148715254Y-80192500D01*
X148836389Y-80168405D01*
X148950496Y-80121140D01*
X149053189Y-80052523D01*
X149140523Y-79965189D01*
X149209140Y-79862496D01*
X149256405Y-79748389D01*
X149280500Y-79627254D01*
X149280500Y-79503746D01*
X149256405Y-79382611D01*
X149243105Y-79350500D01*
X165598934Y-79350500D01*
X165598934Y-81050500D01*
X165607178Y-81134207D01*
X165631595Y-81214696D01*
X165671245Y-81288876D01*
X165724605Y-81353895D01*
X165789624Y-81407255D01*
X165863804Y-81446905D01*
X165944293Y-81471322D01*
X166028000Y-81479566D01*
X166671456Y-81479566D01*
X166505513Y-81512574D01*
X166273114Y-81608837D01*
X166063960Y-81748589D01*
X165886089Y-81926460D01*
X165746337Y-82135614D01*
X165650074Y-82368013D01*
X165601000Y-82614726D01*
X165601000Y-82866274D01*
X165650074Y-83112987D01*
X165746337Y-83345386D01*
X165886089Y-83554540D01*
X166063960Y-83732411D01*
X166273114Y-83872163D01*
X166505513Y-83968426D01*
X166752226Y-84017500D01*
X167003774Y-84017500D01*
X167250487Y-83968426D01*
X167482886Y-83872163D01*
X167692040Y-83732411D01*
X167869911Y-83554540D01*
X168009663Y-83345386D01*
X168105926Y-83112987D01*
X168155000Y-82866274D01*
X168155000Y-82614726D01*
X168105926Y-82368013D01*
X168009663Y-82135614D01*
X167869911Y-81926460D01*
X167692040Y-81748589D01*
X167482886Y-81608837D01*
X167250487Y-81512574D01*
X167084544Y-81479566D01*
X167728000Y-81479566D01*
X167811707Y-81471322D01*
X167892196Y-81446905D01*
X167966376Y-81407255D01*
X168031395Y-81353895D01*
X168084755Y-81288876D01*
X168124405Y-81214696D01*
X168148822Y-81134207D01*
X168157066Y-81050500D01*
X168157066Y-79350500D01*
X168148822Y-79266793D01*
X168124405Y-79186304D01*
X168084755Y-79112124D01*
X168031395Y-79047105D01*
X167966376Y-78993745D01*
X167892196Y-78954095D01*
X167811707Y-78929678D01*
X167728000Y-78921434D01*
X166028000Y-78921434D01*
X165944293Y-78929678D01*
X165863804Y-78954095D01*
X165789624Y-78993745D01*
X165724605Y-79047105D01*
X165671245Y-79112124D01*
X165631595Y-79186304D01*
X165607178Y-79266793D01*
X165598934Y-79350500D01*
X149243105Y-79350500D01*
X149209140Y-79268504D01*
X149140523Y-79165811D01*
X149053189Y-79078477D01*
X148950496Y-79009860D01*
X148836389Y-78962595D01*
X148715254Y-78938500D01*
X148591746Y-78938500D01*
X148470611Y-78962595D01*
X148356504Y-79009860D01*
X148253811Y-79078477D01*
X148166477Y-79165811D01*
X148097860Y-79268504D01*
X148050595Y-79382611D01*
X148026500Y-79503746D01*
X148010500Y-79503746D01*
X147986405Y-79382611D01*
X147939140Y-79268504D01*
X147870523Y-79165811D01*
X147783189Y-79078477D01*
X147680496Y-79009860D01*
X147566389Y-78962595D01*
X147445254Y-78938500D01*
X147321746Y-78938500D01*
X147200611Y-78962595D01*
X147086504Y-79009860D01*
X146983811Y-79078477D01*
X146896477Y-79165811D01*
X146827860Y-79268504D01*
X146812000Y-79306793D01*
X146796140Y-79268504D01*
X146727523Y-79165811D01*
X146640189Y-79078477D01*
X146537496Y-79009860D01*
X146423389Y-78962595D01*
X146302254Y-78938500D01*
X146178746Y-78938500D01*
X146057611Y-78962595D01*
X145943504Y-79009860D01*
X145840811Y-79078477D01*
X145753477Y-79165811D01*
X145684860Y-79268504D01*
X145637595Y-79382611D01*
X145613500Y-79503746D01*
X140758870Y-79503746D01*
X140747405Y-79446111D01*
X140700140Y-79332004D01*
X140631523Y-79229311D01*
X140544189Y-79141977D01*
X140441496Y-79073360D01*
X140327389Y-79026095D01*
X140206254Y-79002000D01*
X140082746Y-79002000D01*
X139961611Y-79026095D01*
X139847504Y-79073360D01*
X139744811Y-79141977D01*
X139657477Y-79229311D01*
X139588860Y-79332004D01*
X139541595Y-79446111D01*
X139517500Y-79567246D01*
X135572991Y-79567246D01*
X135615496Y-79549640D01*
X135718189Y-79481023D01*
X135805523Y-79393689D01*
X135874140Y-79290996D01*
X135921405Y-79176889D01*
X135945500Y-79055754D01*
X135945500Y-78932246D01*
X135921405Y-78811111D01*
X135874140Y-78697004D01*
X135805523Y-78594311D01*
X135718189Y-78506977D01*
X135615496Y-78438360D01*
X135501389Y-78391095D01*
X135380254Y-78367000D01*
X135256746Y-78367000D01*
X135135611Y-78391095D01*
X135021504Y-78438360D01*
X134918811Y-78506977D01*
X134831477Y-78594311D01*
X134762860Y-78697004D01*
X134715595Y-78811111D01*
X134691500Y-78932246D01*
X133261998Y-78932246D01*
X133446886Y-78855663D01*
X133656040Y-78715911D01*
X133833911Y-78538040D01*
X133973663Y-78328886D01*
X134069926Y-78096487D01*
X134119000Y-77849774D01*
X134119000Y-77598226D01*
X134069926Y-77351513D01*
X133973663Y-77119114D01*
X133833911Y-76909960D01*
X133656040Y-76732089D01*
X133446886Y-76592337D01*
X133423732Y-76582746D01*
X155392500Y-76582746D01*
X155392500Y-76706254D01*
X155416595Y-76827389D01*
X155463860Y-76941496D01*
X155532477Y-77044189D01*
X155619811Y-77131523D01*
X155722504Y-77200140D01*
X155836611Y-77247405D01*
X155957746Y-77271500D01*
X156081254Y-77271500D01*
X156202389Y-77247405D01*
X156316496Y-77200140D01*
X156419189Y-77131523D01*
X156506523Y-77044189D01*
X156575140Y-76941496D01*
X156622405Y-76827389D01*
X156646500Y-76706254D01*
X156646500Y-76582746D01*
X156622405Y-76461611D01*
X156575140Y-76347504D01*
X156506523Y-76244811D01*
X156419189Y-76157477D01*
X156316496Y-76088860D01*
X156202389Y-76041595D01*
X156081254Y-76017500D01*
X155957746Y-76017500D01*
X155836611Y-76041595D01*
X155722504Y-76088860D01*
X155619811Y-76157477D01*
X155532477Y-76244811D01*
X155463860Y-76347504D01*
X155416595Y-76461611D01*
X155392500Y-76582746D01*
X133423732Y-76582746D01*
X133214487Y-76496074D01*
X133002966Y-76454000D01*
X133214487Y-76411926D01*
X133446886Y-76315663D01*
X133656040Y-76175911D01*
X133833911Y-75998040D01*
X133973663Y-75788886D01*
X134069926Y-75556487D01*
X134119000Y-75309774D01*
X134119000Y-75058226D01*
X134069926Y-74811513D01*
X133973663Y-74579114D01*
X133833911Y-74369960D01*
X133656040Y-74192089D01*
X133446886Y-74052337D01*
X133214487Y-73956074D01*
X132967774Y-73907000D01*
X132716226Y-73907000D01*
X132469513Y-73956074D01*
X132237114Y-74052337D01*
X132027960Y-74192089D01*
X131850089Y-74369960D01*
X131710337Y-74579114D01*
X131614074Y-74811513D01*
X131565000Y-75058226D01*
X131565000Y-75309774D01*
X131614074Y-75556487D01*
X131710337Y-75788886D01*
X131850089Y-75998040D01*
X132027960Y-76175911D01*
X132237114Y-76315663D01*
X132469513Y-76411926D01*
X132681034Y-76454000D01*
X132469513Y-76496074D01*
X132237114Y-76592337D01*
X132027960Y-76732089D01*
X131850089Y-76909960D01*
X131710337Y-77119114D01*
X131614074Y-77351513D01*
X131565000Y-77598226D01*
X131565000Y-77849774D01*
X131614074Y-78096487D01*
X131710337Y-78328886D01*
X131850089Y-78538040D01*
X132027960Y-78715911D01*
X132237114Y-78855663D01*
X132469513Y-78951926D01*
X132681034Y-78994000D01*
X132469513Y-79036074D01*
X132237114Y-79132337D01*
X132027960Y-79272089D01*
X131850089Y-79449960D01*
X131710337Y-79659114D01*
X131614074Y-79891513D01*
X131565000Y-80138226D01*
X131565000Y-80389774D01*
X131614074Y-80636487D01*
X131710337Y-80868886D01*
X131850089Y-81078040D01*
X132027960Y-81255911D01*
X132237114Y-81395663D01*
X132469513Y-81491926D01*
X132635456Y-81524934D01*
X131992000Y-81524934D01*
X131908293Y-81533178D01*
X131827804Y-81557595D01*
X131753624Y-81597245D01*
X131688605Y-81650605D01*
X131635245Y-81715624D01*
X131595595Y-81789804D01*
X131571178Y-81870293D01*
X131562934Y-81954000D01*
X129039500Y-81954000D01*
X129039500Y-71058246D01*
X133231000Y-71058246D01*
X133231000Y-71181754D01*
X133255095Y-71302889D01*
X133302360Y-71416996D01*
X133370977Y-71519689D01*
X133458311Y-71607023D01*
X133561004Y-71675640D01*
X133675111Y-71722905D01*
X133796246Y-71747000D01*
X133919754Y-71747000D01*
X134040889Y-71722905D01*
X134154996Y-71675640D01*
X134257689Y-71607023D01*
X134345023Y-71519689D01*
X134413640Y-71416996D01*
X134460905Y-71302889D01*
X134485000Y-71181754D01*
X134485000Y-71058246D01*
X134472370Y-70994746D01*
X141359000Y-70994746D01*
X141359000Y-71118254D01*
X141383095Y-71239389D01*
X141430360Y-71353496D01*
X141498977Y-71456189D01*
X141586311Y-71543523D01*
X141689004Y-71612140D01*
X141803111Y-71659405D01*
X141924246Y-71683500D01*
X142047754Y-71683500D01*
X142168889Y-71659405D01*
X142282996Y-71612140D01*
X142385689Y-71543523D01*
X142473023Y-71456189D01*
X142541640Y-71353496D01*
X142588905Y-71239389D01*
X142613000Y-71118254D01*
X142613000Y-70994746D01*
X142588905Y-70873611D01*
X142541640Y-70759504D01*
X142473023Y-70656811D01*
X142385689Y-70569477D01*
X142356908Y-70550246D01*
X156535500Y-70550246D01*
X156535500Y-70673754D01*
X156559595Y-70794889D01*
X156606860Y-70908996D01*
X156675477Y-71011689D01*
X156762811Y-71099023D01*
X156865504Y-71167640D01*
X156979611Y-71214905D01*
X157100746Y-71239000D01*
X157224254Y-71239000D01*
X157345389Y-71214905D01*
X157459496Y-71167640D01*
X157562189Y-71099023D01*
X157649523Y-71011689D01*
X157718140Y-70908996D01*
X157765405Y-70794889D01*
X157789500Y-70673754D01*
X157789500Y-70550246D01*
X157765405Y-70429111D01*
X157718140Y-70315004D01*
X157649523Y-70212311D01*
X157562189Y-70124977D01*
X157459496Y-70056360D01*
X157345389Y-70009095D01*
X157224254Y-69985000D01*
X157100746Y-69985000D01*
X156979611Y-70009095D01*
X156865504Y-70056360D01*
X156762811Y-70124977D01*
X156675477Y-70212311D01*
X156606860Y-70315004D01*
X156559595Y-70429111D01*
X156535500Y-70550246D01*
X142356908Y-70550246D01*
X142282996Y-70500860D01*
X142168889Y-70453595D01*
X142047754Y-70429500D01*
X141924246Y-70429500D01*
X141803111Y-70453595D01*
X141689004Y-70500860D01*
X141586311Y-70569477D01*
X141498977Y-70656811D01*
X141430360Y-70759504D01*
X141383095Y-70873611D01*
X141359000Y-70994746D01*
X134472370Y-70994746D01*
X134460905Y-70937111D01*
X134413640Y-70823004D01*
X134345023Y-70720311D01*
X134257689Y-70632977D01*
X134154996Y-70564360D01*
X134040889Y-70517095D01*
X133919754Y-70493000D01*
X133796246Y-70493000D01*
X133675111Y-70517095D01*
X133561004Y-70564360D01*
X133458311Y-70632977D01*
X133370977Y-70720311D01*
X133302360Y-70823004D01*
X133255095Y-70937111D01*
X133231000Y-71058246D01*
X129039500Y-71058246D01*
X129039500Y-69197048D01*
X131126000Y-69197048D01*
X131126000Y-69359952D01*
X131157782Y-69519727D01*
X131220123Y-69670231D01*
X131310628Y-69805681D01*
X131425819Y-69920872D01*
X131561269Y-70011377D01*
X131711773Y-70073718D01*
X131871548Y-70105500D01*
X132034452Y-70105500D01*
X132194227Y-70073718D01*
X132344731Y-70011377D01*
X132480181Y-69920872D01*
X132595372Y-69805681D01*
X132662612Y-69705048D01*
X138111000Y-69705048D01*
X138111000Y-69867952D01*
X138142782Y-70027727D01*
X138205123Y-70178231D01*
X138295628Y-70313681D01*
X138410819Y-70428872D01*
X138546269Y-70519377D01*
X138696773Y-70581718D01*
X138856548Y-70613500D01*
X139019452Y-70613500D01*
X139179227Y-70581718D01*
X139329731Y-70519377D01*
X139465181Y-70428872D01*
X139580372Y-70313681D01*
X139670877Y-70178231D01*
X139733218Y-70027727D01*
X139765000Y-69867952D01*
X139765000Y-69705048D01*
X139733218Y-69545273D01*
X139670877Y-69394769D01*
X139580372Y-69259319D01*
X139465181Y-69144128D01*
X139329731Y-69053623D01*
X139179227Y-68991282D01*
X139019452Y-68959500D01*
X138856548Y-68959500D01*
X138696773Y-68991282D01*
X138546269Y-69053623D01*
X138410819Y-69144128D01*
X138295628Y-69259319D01*
X138205123Y-69394769D01*
X138142782Y-69545273D01*
X138111000Y-69705048D01*
X132662612Y-69705048D01*
X132685877Y-69670231D01*
X132748218Y-69519727D01*
X132780000Y-69359952D01*
X132780000Y-69197048D01*
X132748218Y-69037273D01*
X132685877Y-68886769D01*
X132595372Y-68751319D01*
X132480181Y-68636128D01*
X132344731Y-68545623D01*
X132194227Y-68483282D01*
X132034452Y-68451500D01*
X131871548Y-68451500D01*
X131711773Y-68483282D01*
X131561269Y-68545623D01*
X131425819Y-68636128D01*
X131310628Y-68751319D01*
X131220123Y-68886769D01*
X131157782Y-69037273D01*
X131126000Y-69197048D01*
X129039500Y-69197048D01*
X129039500Y-67285500D01*
X139800934Y-67285500D01*
X139800934Y-68985500D01*
X139809178Y-69069207D01*
X139833595Y-69149696D01*
X139873245Y-69223876D01*
X139926605Y-69288895D01*
X139991624Y-69342255D01*
X140065804Y-69381905D01*
X140109909Y-69395285D01*
X140047782Y-69545273D01*
X140016000Y-69705048D01*
X140016000Y-69867952D01*
X140047782Y-70027727D01*
X140110123Y-70178231D01*
X140200628Y-70313681D01*
X140315819Y-70428872D01*
X140451269Y-70519377D01*
X140601773Y-70581718D01*
X140761548Y-70613500D01*
X140924452Y-70613500D01*
X141084227Y-70581718D01*
X141234731Y-70519377D01*
X141370181Y-70428872D01*
X141485372Y-70313681D01*
X141575877Y-70178231D01*
X141638218Y-70027727D01*
X141670000Y-69867952D01*
X141670000Y-69705048D01*
X141638218Y-69545273D01*
X141584077Y-69414566D01*
X141930000Y-69414566D01*
X142013707Y-69406322D01*
X142094196Y-69381905D01*
X142168376Y-69342255D01*
X142233395Y-69288895D01*
X142286755Y-69223876D01*
X142326405Y-69149696D01*
X142350822Y-69069207D01*
X142359066Y-68985500D01*
X142359066Y-68342044D01*
X142392074Y-68507987D01*
X142488337Y-68740386D01*
X142628089Y-68949540D01*
X142805960Y-69127411D01*
X143015114Y-69267163D01*
X143247513Y-69363426D01*
X143494226Y-69412500D01*
X143745774Y-69412500D01*
X143992487Y-69363426D01*
X144224886Y-69267163D01*
X144434040Y-69127411D01*
X144611911Y-68949540D01*
X144751663Y-68740386D01*
X144847926Y-68507987D01*
X144890000Y-68296466D01*
X144932074Y-68507987D01*
X145028337Y-68740386D01*
X145168089Y-68949540D01*
X145345960Y-69127411D01*
X145555114Y-69267163D01*
X145787513Y-69363426D01*
X146034226Y-69412500D01*
X146285774Y-69412500D01*
X146532487Y-69363426D01*
X146764886Y-69267163D01*
X146974040Y-69127411D01*
X147151911Y-68949540D01*
X147291663Y-68740386D01*
X147387926Y-68507987D01*
X147430000Y-68296466D01*
X147472074Y-68507987D01*
X147568337Y-68740386D01*
X147708089Y-68949540D01*
X147885960Y-69127411D01*
X148095114Y-69267163D01*
X148327513Y-69363426D01*
X148574226Y-69412500D01*
X148825774Y-69412500D01*
X149072487Y-69363426D01*
X149304886Y-69267163D01*
X149514040Y-69127411D01*
X149691911Y-68949540D01*
X149831663Y-68740386D01*
X149927926Y-68507987D01*
X149970000Y-68296466D01*
X150012074Y-68507987D01*
X150108337Y-68740386D01*
X150248089Y-68949540D01*
X150425960Y-69127411D01*
X150635114Y-69267163D01*
X150867513Y-69363426D01*
X151114226Y-69412500D01*
X151365774Y-69412500D01*
X151612487Y-69363426D01*
X151844886Y-69267163D01*
X152054040Y-69127411D01*
X152231911Y-68949540D01*
X152371663Y-68740386D01*
X152467926Y-68507987D01*
X152510000Y-68296466D01*
X152552074Y-68507987D01*
X152648337Y-68740386D01*
X152788089Y-68949540D01*
X152965960Y-69127411D01*
X153175114Y-69267163D01*
X153407513Y-69363426D01*
X153654226Y-69412500D01*
X153905774Y-69412500D01*
X154152487Y-69363426D01*
X154384886Y-69267163D01*
X154594040Y-69127411D01*
X154771911Y-68949540D01*
X154911663Y-68740386D01*
X155007926Y-68507987D01*
X155050000Y-68296466D01*
X155092074Y-68507987D01*
X155188337Y-68740386D01*
X155328089Y-68949540D01*
X155505960Y-69127411D01*
X155715114Y-69267163D01*
X155947513Y-69363426D01*
X156194226Y-69412500D01*
X156445774Y-69412500D01*
X156692487Y-69363426D01*
X156924886Y-69267163D01*
X157134040Y-69127411D01*
X157311911Y-68949540D01*
X157451663Y-68740386D01*
X157547926Y-68507987D01*
X157590000Y-68296466D01*
X157632074Y-68507987D01*
X157728337Y-68740386D01*
X157868089Y-68949540D01*
X158045960Y-69127411D01*
X158255114Y-69267163D01*
X158487513Y-69363426D01*
X158734226Y-69412500D01*
X158985774Y-69412500D01*
X159232487Y-69363426D01*
X159464886Y-69267163D01*
X159674040Y-69127411D01*
X159851911Y-68949540D01*
X159991663Y-68740386D01*
X160087926Y-68507987D01*
X160137000Y-68261274D01*
X160137000Y-68009726D01*
X160087926Y-67763013D01*
X159991663Y-67530614D01*
X159851911Y-67321460D01*
X159674040Y-67143589D01*
X159464886Y-67003837D01*
X159232487Y-66907574D01*
X158985774Y-66858500D01*
X158734226Y-66858500D01*
X158487513Y-66907574D01*
X158255114Y-67003837D01*
X158045960Y-67143589D01*
X157868089Y-67321460D01*
X157728337Y-67530614D01*
X157632074Y-67763013D01*
X157590000Y-67974534D01*
X157547926Y-67763013D01*
X157451663Y-67530614D01*
X157311911Y-67321460D01*
X157134040Y-67143589D01*
X156924886Y-67003837D01*
X156692487Y-66907574D01*
X156445774Y-66858500D01*
X156194226Y-66858500D01*
X155947513Y-66907574D01*
X155715114Y-67003837D01*
X155505960Y-67143589D01*
X155328089Y-67321460D01*
X155188337Y-67530614D01*
X155092074Y-67763013D01*
X155050000Y-67974534D01*
X155007926Y-67763013D01*
X154911663Y-67530614D01*
X154771911Y-67321460D01*
X154594040Y-67143589D01*
X154384886Y-67003837D01*
X154152487Y-66907574D01*
X153905774Y-66858500D01*
X153654226Y-66858500D01*
X153407513Y-66907574D01*
X153175114Y-67003837D01*
X152965960Y-67143589D01*
X152788089Y-67321460D01*
X152648337Y-67530614D01*
X152552074Y-67763013D01*
X152510000Y-67974534D01*
X152467926Y-67763013D01*
X152371663Y-67530614D01*
X152231911Y-67321460D01*
X152054040Y-67143589D01*
X151844886Y-67003837D01*
X151612487Y-66907574D01*
X151365774Y-66858500D01*
X151114226Y-66858500D01*
X150867513Y-66907574D01*
X150635114Y-67003837D01*
X150425960Y-67143589D01*
X150248089Y-67321460D01*
X150108337Y-67530614D01*
X150012074Y-67763013D01*
X149970000Y-67974534D01*
X149927926Y-67763013D01*
X149831663Y-67530614D01*
X149691911Y-67321460D01*
X149514040Y-67143589D01*
X149304886Y-67003837D01*
X149072487Y-66907574D01*
X148825774Y-66858500D01*
X148574226Y-66858500D01*
X148327513Y-66907574D01*
X148095114Y-67003837D01*
X147885960Y-67143589D01*
X147708089Y-67321460D01*
X147568337Y-67530614D01*
X147472074Y-67763013D01*
X147430000Y-67974534D01*
X147387926Y-67763013D01*
X147291663Y-67530614D01*
X147151911Y-67321460D01*
X146974040Y-67143589D01*
X146764886Y-67003837D01*
X146532487Y-66907574D01*
X146285774Y-66858500D01*
X146034226Y-66858500D01*
X145787513Y-66907574D01*
X145555114Y-67003837D01*
X145345960Y-67143589D01*
X145168089Y-67321460D01*
X145028337Y-67530614D01*
X144932074Y-67763013D01*
X144890000Y-67974534D01*
X144847926Y-67763013D01*
X144751663Y-67530614D01*
X144611911Y-67321460D01*
X144434040Y-67143589D01*
X144224886Y-67003837D01*
X143992487Y-66907574D01*
X143745774Y-66858500D01*
X143494226Y-66858500D01*
X143247513Y-66907574D01*
X143015114Y-67003837D01*
X142805960Y-67143589D01*
X142628089Y-67321460D01*
X142488337Y-67530614D01*
X142392074Y-67763013D01*
X142359066Y-67928956D01*
X142359066Y-67285500D01*
X142350822Y-67201793D01*
X142326405Y-67121304D01*
X142286755Y-67047124D01*
X142233395Y-66982105D01*
X142168376Y-66928745D01*
X142094196Y-66889095D01*
X142013707Y-66864678D01*
X141930000Y-66856434D01*
X140230000Y-66856434D01*
X140146293Y-66864678D01*
X140065804Y-66889095D01*
X139991624Y-66928745D01*
X139926605Y-66982105D01*
X139873245Y-67047124D01*
X139833595Y-67121304D01*
X139809178Y-67201793D01*
X139800934Y-67285500D01*
X129039500Y-67285500D01*
X129039500Y-66232246D01*
X144153000Y-66232246D01*
X144153000Y-66355754D01*
X144177095Y-66476889D01*
X144224360Y-66590996D01*
X144292977Y-66693689D01*
X144380311Y-66781023D01*
X144483004Y-66849640D01*
X144597111Y-66896905D01*
X144718246Y-66921000D01*
X144841754Y-66921000D01*
X144962889Y-66896905D01*
X145076996Y-66849640D01*
X145179689Y-66781023D01*
X145267023Y-66693689D01*
X145335640Y-66590996D01*
X145382905Y-66476889D01*
X145407000Y-66355754D01*
X145407000Y-66232246D01*
X145394370Y-66168746D01*
X146756500Y-66168746D01*
X146756500Y-66292254D01*
X146780595Y-66413389D01*
X146827860Y-66527496D01*
X146896477Y-66630189D01*
X146983811Y-66717523D01*
X147086504Y-66786140D01*
X147200611Y-66833405D01*
X147321746Y-66857500D01*
X147445254Y-66857500D01*
X147566389Y-66833405D01*
X147680496Y-66786140D01*
X147783189Y-66717523D01*
X147870523Y-66630189D01*
X147939140Y-66527496D01*
X147986405Y-66413389D01*
X148010500Y-66292254D01*
X148010500Y-66168746D01*
X156916500Y-66168746D01*
X156916500Y-66292254D01*
X156940595Y-66413389D01*
X156987860Y-66527496D01*
X157056477Y-66630189D01*
X157143811Y-66717523D01*
X157246504Y-66786140D01*
X157360611Y-66833405D01*
X157481746Y-66857500D01*
X157605254Y-66857500D01*
X157726389Y-66833405D01*
X157840496Y-66786140D01*
X157943189Y-66717523D01*
X158030523Y-66630189D01*
X158099140Y-66527496D01*
X158146405Y-66413389D01*
X158170500Y-66292254D01*
X158170500Y-66168746D01*
X158146405Y-66047611D01*
X158099140Y-65933504D01*
X158030523Y-65830811D01*
X157943189Y-65743477D01*
X157840496Y-65674860D01*
X157726389Y-65627595D01*
X157605254Y-65603500D01*
X157481746Y-65603500D01*
X157360611Y-65627595D01*
X157246504Y-65674860D01*
X157143811Y-65743477D01*
X157056477Y-65830811D01*
X156987860Y-65933504D01*
X156940595Y-66047611D01*
X156916500Y-66168746D01*
X148010500Y-66168746D01*
X147986405Y-66047611D01*
X147939140Y-65933504D01*
X147870523Y-65830811D01*
X147783189Y-65743477D01*
X147680496Y-65674860D01*
X147566389Y-65627595D01*
X147445254Y-65603500D01*
X147321746Y-65603500D01*
X147200611Y-65627595D01*
X147086504Y-65674860D01*
X146983811Y-65743477D01*
X146896477Y-65830811D01*
X146827860Y-65933504D01*
X146780595Y-66047611D01*
X146756500Y-66168746D01*
X145394370Y-66168746D01*
X145382905Y-66111111D01*
X145335640Y-65997004D01*
X145267023Y-65894311D01*
X145179689Y-65806977D01*
X145076996Y-65738360D01*
X144962889Y-65691095D01*
X144841754Y-65667000D01*
X144718246Y-65667000D01*
X144597111Y-65691095D01*
X144483004Y-65738360D01*
X144380311Y-65806977D01*
X144292977Y-65894311D01*
X144224360Y-65997004D01*
X144177095Y-66111111D01*
X144153000Y-66232246D01*
X129039500Y-66232246D01*
X129039500Y-63253500D01*
X139937510Y-63253500D01*
X139928365Y-63261005D01*
M02*
