G04 #@! TF.GenerationSoftware,KiCad,Pcbnew,(5.1.6)-1*
G04 #@! TF.CreationDate,2024-01-16T16:31:11-05:00*
G04 #@! TF.ProjectId,amiga-500-usb-kb-rp2040,616d6967-612d-4353-9030-2d7573622d6b,rev?*
G04 #@! TF.SameCoordinates,Original*
G04 #@! TF.FileFunction,Legend,Bot*
G04 #@! TF.FilePolarity,Positive*
%FSLAX46Y46*%
G04 Gerber Fmt 4.6, Leading zero omitted, Abs format (unit mm)*
G04 Created by KiCad (PCBNEW (5.1.6)-1) date 2024-01-16 16:31:11*
%MOMM*%
%LPD*%
G01*
G04 APERTURE LIST*
%ADD10C,0.120000*%
%ADD11C,0.150000*%
%ADD12R,1.800000X1.800000*%
%ADD13O,1.800000X1.800000*%
G04 APERTURE END LIST*
D10*
X142351760Y-63084400D02*
X142351760Y-65744400D01*
X142351760Y-63084400D02*
X160191760Y-63084400D01*
X160191760Y-63084400D02*
X160191760Y-65744400D01*
X142351760Y-65744400D02*
X160191760Y-65744400D01*
X139751760Y-65744400D02*
X141081760Y-65744400D01*
X139751760Y-64414400D02*
X139751760Y-65744400D01*
X139750000Y-68135500D02*
X139750000Y-69465500D01*
X139750000Y-69465500D02*
X141080000Y-69465500D01*
X142350000Y-69465500D02*
X160190000Y-69465500D01*
X160190000Y-66805500D02*
X160190000Y-69465500D01*
X142350000Y-66805500D02*
X160190000Y-66805500D01*
X142350000Y-66805500D02*
X142350000Y-69465500D01*
D11*
X160678880Y-64055666D02*
X161393166Y-64055666D01*
X161536023Y-64008047D01*
X161631261Y-63912809D01*
X161678880Y-63769952D01*
X161678880Y-63674714D01*
X160678880Y-64436619D02*
X160678880Y-65055666D01*
X161059833Y-64722333D01*
X161059833Y-64865190D01*
X161107452Y-64960428D01*
X161155071Y-65008047D01*
X161250309Y-65055666D01*
X161488404Y-65055666D01*
X161583642Y-65008047D01*
X161631261Y-64960428D01*
X161678880Y-64865190D01*
X161678880Y-64579476D01*
X161631261Y-64484238D01*
X161583642Y-64436619D01*
X160678880Y-67865666D02*
X161393166Y-67865666D01*
X161536023Y-67818047D01*
X161631261Y-67722809D01*
X161678880Y-67579952D01*
X161678880Y-67484714D01*
X161012214Y-68770428D02*
X161678880Y-68770428D01*
X160631261Y-68532333D02*
X161345547Y-68294238D01*
X161345547Y-68913285D01*
%LPC*%
D12*
X132842000Y-82804000D03*
D13*
X132842000Y-80264000D03*
X132842000Y-77724000D03*
X132842000Y-75184000D03*
X158861760Y-64414400D03*
X156321760Y-64414400D03*
X153781760Y-64414400D03*
X151241760Y-64414400D03*
X148701760Y-64414400D03*
X146161760Y-64414400D03*
X143621760Y-64414400D03*
D12*
X141081760Y-64414400D03*
X141080000Y-68135500D03*
D13*
X143620000Y-68135500D03*
X146160000Y-68135500D03*
X148700000Y-68135500D03*
X151240000Y-68135500D03*
X153780000Y-68135500D03*
X156320000Y-68135500D03*
X158860000Y-68135500D03*
X166878000Y-82740500D03*
D12*
X166878000Y-80200500D03*
X166878000Y-86487000D03*
D13*
X166878000Y-89027000D03*
M02*
