%FSLAX45Y45*%
G04 Gerber Fmt 4.5, Leading zero omitted, Abs format (unit mm)*
G04 Created by KiCad (PCBNEW (5.1.6)-1) date 2024-01-16 16:31:16*
%MOMM*%
%LPD*%
G01*
G04 APERTURE LIST*
%TA.AperFunction,Profile*%
%ADD10C,0.050000*%
%TD*%
%ADD11C,0.200000*%
%ADD12C,0.300000*%
G04 APERTURE END LIST*
D10*
X14166850Y-10280650D02*
X12858750Y-8972550D01*
X17113250Y-6280150D02*
X17113250Y-10280650D01*
X17113250Y-6280150D02*
X12858750Y-6280150D01*
X14166850Y-10280650D02*
X17113250Y-10280650D01*
X12858750Y-6280150D02*
X12858750Y-8972550D01*
D11*
X13370800Y-7097000D02*
X13400800Y-7127000D01*
X13400800Y-7097000D02*
X13370800Y-7127000D01*
X13516850Y-7884400D02*
X13546850Y-7914400D01*
X13546850Y-7884400D02*
X13516850Y-7914400D01*
X13980400Y-7465300D02*
X14010400Y-7495300D01*
X14010400Y-7465300D02*
X13980400Y-7495300D01*
X13999450Y-7947900D02*
X14029450Y-7977900D01*
X14029450Y-7947900D02*
X13999450Y-7977900D01*
X13999450Y-8011400D02*
X14029450Y-8041400D01*
X14029450Y-8011400D02*
X13999450Y-8041400D01*
X14126450Y-9148050D02*
X14156450Y-9178050D01*
X14156450Y-9148050D02*
X14126450Y-9178050D01*
X14158200Y-7471650D02*
X14188200Y-7501650D01*
X14188200Y-7471650D02*
X14158200Y-7501650D01*
X14183600Y-7090650D02*
X14213600Y-7120650D01*
X14213600Y-7090650D02*
X14183600Y-7120650D01*
X14463000Y-6614400D02*
X14493000Y-6644400D01*
X14493000Y-6614400D02*
X14463000Y-6644400D01*
X14545550Y-8303500D02*
X14575550Y-8333500D01*
X14575550Y-8303500D02*
X14545550Y-8333500D01*
X14609050Y-7941550D02*
X14639050Y-7971550D01*
X14639050Y-7941550D02*
X14609050Y-7971550D01*
X14615400Y-8741650D02*
X14645400Y-8771650D01*
X14645400Y-8741650D02*
X14615400Y-8771650D01*
X14681762Y-9160938D02*
X14711762Y-9190938D01*
X14711762Y-9160938D02*
X14681762Y-9190938D01*
X14685250Y-8500350D02*
X14715250Y-8530350D01*
X14715250Y-8500350D02*
X14685250Y-8530350D01*
X14723350Y-7941550D02*
X14753350Y-7971550D01*
X14753350Y-7941550D02*
X14723350Y-7971550D01*
X14729700Y-6614400D02*
X14759700Y-6644400D01*
X14759700Y-6614400D02*
X14729700Y-6644400D01*
X14742923Y-8442677D02*
X14772923Y-8472677D01*
X14772923Y-8442677D02*
X14742923Y-8472677D01*
X14774150Y-9503650D02*
X14804150Y-9533650D01*
X14804150Y-9503650D02*
X14774150Y-9533650D01*
X14850350Y-7941550D02*
X14880350Y-7971550D01*
X14880350Y-7941550D02*
X14850350Y-7971550D01*
X14850350Y-9211550D02*
X14880350Y-9241550D01*
X14880350Y-9211550D02*
X14850350Y-9241550D01*
X14856700Y-8963900D02*
X14886700Y-8993900D01*
X14886700Y-8963900D02*
X14856700Y-8993900D01*
X15059900Y-8487650D02*
X15089900Y-8517650D01*
X15089900Y-8487650D02*
X15059900Y-8517650D01*
X15098000Y-9186150D02*
X15128000Y-9216150D01*
X15128000Y-9186150D02*
X15098000Y-9216150D01*
X15132867Y-8560617D02*
X15162867Y-8590617D01*
X15162867Y-8560617D02*
X15132867Y-8590617D01*
X15250400Y-8319500D02*
X15280400Y-8349500D01*
X15280400Y-8319500D02*
X15250400Y-8349500D01*
X15288500Y-8417800D02*
X15318500Y-8447800D01*
X15318500Y-8417800D02*
X15288500Y-8447800D01*
X15345650Y-8925800D02*
X15375650Y-8955800D01*
X15375650Y-8925800D02*
X15345650Y-8955800D01*
X15390100Y-9427450D02*
X15420100Y-9457450D01*
X15420100Y-9427450D02*
X15390100Y-9457450D01*
X15586950Y-7649450D02*
X15616950Y-7679450D01*
X15616950Y-7649450D02*
X15586950Y-7679450D01*
X15701250Y-7046200D02*
X15731250Y-7076200D01*
X15731250Y-7046200D02*
X15701250Y-7076200D01*
X15733000Y-8189200D02*
X15763000Y-8219200D01*
X15763000Y-8189200D02*
X15733000Y-8219200D01*
X15739350Y-6608050D02*
X15769350Y-6638050D01*
X15769350Y-6608050D02*
X15739350Y-6638050D01*
X16088600Y-7268450D02*
X16118600Y-7298450D01*
X16118600Y-7268450D02*
X16088600Y-7298450D01*
X16202250Y-7408800D02*
X16232250Y-7438800D01*
X16232250Y-7408800D02*
X16202250Y-7438800D01*
X14707632Y-8655050D02*
G75*
G03*
X14707632Y-8655050I-17500J0D01*
G01*
X14797788Y-8564894D02*
G75*
G03*
X14797788Y-8564894I-17500J0D01*
G01*
X14797788Y-8745206D02*
G75*
G03*
X14797788Y-8745206I-17500J0D01*
G01*
X14887944Y-8474738D02*
G75*
G03*
X14887944Y-8474738I-17500J0D01*
G01*
X14887944Y-8655050D02*
G75*
G03*
X14887944Y-8655050I-17500J0D01*
G01*
X14887944Y-8835362D02*
G75*
G03*
X14887944Y-8835362I-17500J0D01*
G01*
X14978100Y-8564894D02*
G75*
G03*
X14978100Y-8564894I-17500J0D01*
G01*
X14978100Y-8745206D02*
G75*
G03*
X14978100Y-8745206I-17500J0D01*
G01*
X15068256Y-8655050D02*
G75*
G03*
X15068256Y-8655050I-17500J0D01*
G01*
X13195300Y-6907850D02*
X13195300Y-6947850D01*
X13175300Y-6927850D02*
X13215300Y-6927850D01*
X13893800Y-6958650D02*
X13893800Y-6998650D01*
X13873800Y-6978650D02*
X13913800Y-6978650D01*
X14084300Y-6958650D02*
X14084300Y-6998650D01*
X14064300Y-6978650D02*
X14104300Y-6978650D01*
X16723156Y-8684056D02*
X16723156Y-8613344D01*
X16652444Y-8613344D01*
X16652444Y-8684056D01*
X16723156Y-8684056D01*
X16723156Y-8938056D02*
X16723156Y-8867344D01*
X16652444Y-8867344D01*
X16652444Y-8938056D01*
X16723156Y-8938056D01*
X16723156Y-8055406D02*
X16723156Y-7984694D01*
X16652444Y-7984694D01*
X16652444Y-8055406D01*
X16723156Y-8055406D01*
X16723156Y-8309406D02*
X16723156Y-8238694D01*
X16652444Y-8238694D01*
X16652444Y-8309406D01*
X16723156Y-8309406D01*
X14143356Y-6848906D02*
X14143356Y-6778194D01*
X14072644Y-6778194D01*
X14072644Y-6848906D01*
X14143356Y-6848906D01*
X14397356Y-6848906D02*
X14397356Y-6778194D01*
X14326644Y-6778194D01*
X14326644Y-6848906D01*
X14397356Y-6848906D01*
X14651356Y-6848906D02*
X14651356Y-6778194D01*
X14580644Y-6778194D01*
X14580644Y-6848906D01*
X14651356Y-6848906D01*
X14905356Y-6848906D02*
X14905356Y-6778194D01*
X14834644Y-6778194D01*
X14834644Y-6848906D01*
X14905356Y-6848906D01*
X15159356Y-6848906D02*
X15159356Y-6778194D01*
X15088644Y-6778194D01*
X15088644Y-6848906D01*
X15159356Y-6848906D01*
X15413356Y-6848906D02*
X15413356Y-6778194D01*
X15342644Y-6778194D01*
X15342644Y-6848906D01*
X15413356Y-6848906D01*
X15667356Y-6848906D02*
X15667356Y-6778194D01*
X15596644Y-6778194D01*
X15596644Y-6848906D01*
X15667356Y-6848906D01*
X15921356Y-6848906D02*
X15921356Y-6778194D01*
X15850644Y-6778194D01*
X15850644Y-6848906D01*
X15921356Y-6848906D01*
X14143532Y-6476796D02*
X14143532Y-6406084D01*
X14072820Y-6406084D01*
X14072820Y-6476796D01*
X14143532Y-6476796D01*
X14397532Y-6476796D02*
X14397532Y-6406084D01*
X14326820Y-6406084D01*
X14326820Y-6476796D01*
X14397532Y-6476796D01*
X14651532Y-6476796D02*
X14651532Y-6406084D01*
X14580820Y-6406084D01*
X14580820Y-6476796D01*
X14651532Y-6476796D01*
X14905532Y-6476796D02*
X14905532Y-6406084D01*
X14834820Y-6406084D01*
X14834820Y-6476796D01*
X14905532Y-6476796D01*
X15159532Y-6476796D02*
X15159532Y-6406084D01*
X15088820Y-6406084D01*
X15088820Y-6476796D01*
X15159532Y-6476796D01*
X15413532Y-6476796D02*
X15413532Y-6406084D01*
X15342820Y-6406084D01*
X15342820Y-6476796D01*
X15413532Y-6476796D01*
X15667532Y-6476796D02*
X15667532Y-6406084D01*
X15596820Y-6406084D01*
X15596820Y-6476796D01*
X15667532Y-6476796D01*
X15921532Y-6476796D02*
X15921532Y-6406084D01*
X15850820Y-6406084D01*
X15850820Y-6476796D01*
X15921532Y-6476796D01*
X13319556Y-7553756D02*
X13319556Y-7483044D01*
X13248844Y-7483044D01*
X13248844Y-7553756D01*
X13319556Y-7553756D01*
X13319556Y-7807756D02*
X13319556Y-7737044D01*
X13248844Y-7737044D01*
X13248844Y-7807756D01*
X13319556Y-7807756D01*
X13319556Y-8061756D02*
X13319556Y-7991044D01*
X13248844Y-7991044D01*
X13248844Y-8061756D01*
X13319556Y-8061756D01*
X13319556Y-8315756D02*
X13319556Y-8245044D01*
X13248844Y-8245044D01*
X13248844Y-8315756D01*
X13319556Y-8315756D01*
D12*
X13142678Y-10748864D02*
X13142678Y-10448864D01*
X13214107Y-10448864D01*
X13256964Y-10463150D01*
X13285536Y-10491722D01*
X13299821Y-10520293D01*
X13314107Y-10577436D01*
X13314107Y-10620293D01*
X13299821Y-10677436D01*
X13285536Y-10706007D01*
X13256964Y-10734579D01*
X13214107Y-10748864D01*
X13142678Y-10748864D01*
X13442678Y-10748864D02*
X13442678Y-10548864D01*
X13442678Y-10606007D02*
X13456964Y-10577436D01*
X13471250Y-10563150D01*
X13499821Y-10548864D01*
X13528393Y-10548864D01*
X13628393Y-10748864D02*
X13628393Y-10548864D01*
X13628393Y-10448864D02*
X13614107Y-10463150D01*
X13628393Y-10477436D01*
X13642678Y-10463150D01*
X13628393Y-10448864D01*
X13628393Y-10477436D01*
X13814107Y-10748864D02*
X13785536Y-10734579D01*
X13771250Y-10706007D01*
X13771250Y-10448864D01*
X13971250Y-10748864D02*
X13942678Y-10734579D01*
X13928393Y-10706007D01*
X13928393Y-10448864D01*
X14314107Y-10748864D02*
X14314107Y-10448864D01*
X14414107Y-10663150D01*
X14514107Y-10448864D01*
X14514107Y-10748864D01*
X14785536Y-10748864D02*
X14785536Y-10591722D01*
X14771250Y-10563150D01*
X14742678Y-10548864D01*
X14685536Y-10548864D01*
X14656964Y-10563150D01*
X14785536Y-10734579D02*
X14756964Y-10748864D01*
X14685536Y-10748864D01*
X14656964Y-10734579D01*
X14642678Y-10706007D01*
X14642678Y-10677436D01*
X14656964Y-10648864D01*
X14685536Y-10634579D01*
X14756964Y-10634579D01*
X14785536Y-10620293D01*
X14928393Y-10548864D02*
X14928393Y-10848864D01*
X14928393Y-10563150D02*
X14956964Y-10548864D01*
X15014107Y-10548864D01*
X15042678Y-10563150D01*
X15056964Y-10577436D01*
X15071250Y-10606007D01*
X15071250Y-10691722D01*
X15056964Y-10720293D01*
X15042678Y-10734579D01*
X15014107Y-10748864D01*
X14956964Y-10748864D01*
X14928393Y-10734579D01*
X15199821Y-10720293D02*
X15214107Y-10734579D01*
X15199821Y-10748864D01*
X15185536Y-10734579D01*
X15199821Y-10720293D01*
X15199821Y-10748864D01*
X15199821Y-10563150D02*
X15214107Y-10577436D01*
X15199821Y-10591722D01*
X15185536Y-10577436D01*
X15199821Y-10563150D01*
X15199821Y-10591722D01*
X12826250Y-11228150D02*
X12856250Y-11258150D01*
X12856250Y-11228150D02*
X12826250Y-11258150D01*
X13199821Y-11078864D02*
X13228393Y-11078864D01*
X13256964Y-11093150D01*
X13271250Y-11107436D01*
X13285536Y-11136007D01*
X13299821Y-11193150D01*
X13299821Y-11264579D01*
X13285536Y-11321721D01*
X13271250Y-11350293D01*
X13256964Y-11364579D01*
X13228393Y-11378864D01*
X13199821Y-11378864D01*
X13171250Y-11364579D01*
X13156964Y-11350293D01*
X13142678Y-11321721D01*
X13128393Y-11264579D01*
X13128393Y-11193150D01*
X13142678Y-11136007D01*
X13156964Y-11107436D01*
X13171250Y-11093150D01*
X13199821Y-11078864D01*
X13428393Y-11350293D02*
X13442678Y-11364579D01*
X13428393Y-11378864D01*
X13414107Y-11364579D01*
X13428393Y-11350293D01*
X13428393Y-11378864D01*
X13542678Y-11078864D02*
X13728393Y-11078864D01*
X13628393Y-11193150D01*
X13671250Y-11193150D01*
X13699821Y-11207436D01*
X13714107Y-11221721D01*
X13728393Y-11250293D01*
X13728393Y-11321721D01*
X13714107Y-11350293D01*
X13699821Y-11364579D01*
X13671250Y-11378864D01*
X13585536Y-11378864D01*
X13556964Y-11364579D01*
X13542678Y-11350293D01*
X13914107Y-11078864D02*
X13942678Y-11078864D01*
X13971250Y-11093150D01*
X13985536Y-11107436D01*
X13999821Y-11136007D01*
X14014107Y-11193150D01*
X14014107Y-11264579D01*
X13999821Y-11321721D01*
X13985536Y-11350293D01*
X13971250Y-11364579D01*
X13942678Y-11378864D01*
X13914107Y-11378864D01*
X13885536Y-11364579D01*
X13871250Y-11350293D01*
X13856964Y-11321721D01*
X13842678Y-11264579D01*
X13842678Y-11193150D01*
X13856964Y-11136007D01*
X13871250Y-11107436D01*
X13885536Y-11093150D01*
X13914107Y-11078864D01*
X14142678Y-11378864D02*
X14142678Y-11178864D01*
X14142678Y-11207436D02*
X14156964Y-11193150D01*
X14185536Y-11178864D01*
X14228393Y-11178864D01*
X14256964Y-11193150D01*
X14271250Y-11221721D01*
X14271250Y-11378864D01*
X14271250Y-11221721D02*
X14285536Y-11193150D01*
X14314107Y-11178864D01*
X14356964Y-11178864D01*
X14385536Y-11193150D01*
X14399821Y-11221721D01*
X14399821Y-11378864D01*
X14542678Y-11378864D02*
X14542678Y-11178864D01*
X14542678Y-11207436D02*
X14556964Y-11193150D01*
X14585536Y-11178864D01*
X14628393Y-11178864D01*
X14656964Y-11193150D01*
X14671250Y-11221721D01*
X14671250Y-11378864D01*
X14671250Y-11221721D02*
X14685536Y-11193150D01*
X14714107Y-11178864D01*
X14756964Y-11178864D01*
X14785536Y-11193150D01*
X14799821Y-11221721D01*
X14799821Y-11378864D01*
X15385536Y-11064579D02*
X15128393Y-11450293D01*
X15771250Y-11078864D02*
X15799821Y-11078864D01*
X15828393Y-11093150D01*
X15842678Y-11107436D01*
X15856964Y-11136007D01*
X15871250Y-11193150D01*
X15871250Y-11264579D01*
X15856964Y-11321721D01*
X15842678Y-11350293D01*
X15828393Y-11364579D01*
X15799821Y-11378864D01*
X15771250Y-11378864D01*
X15742678Y-11364579D01*
X15728393Y-11350293D01*
X15714107Y-11321721D01*
X15699821Y-11264579D01*
X15699821Y-11193150D01*
X15714107Y-11136007D01*
X15728393Y-11107436D01*
X15742678Y-11093150D01*
X15771250Y-11078864D01*
X15999821Y-11350293D02*
X16014107Y-11364579D01*
X15999821Y-11378864D01*
X15985536Y-11364579D01*
X15999821Y-11350293D01*
X15999821Y-11378864D01*
X16199821Y-11078864D02*
X16228393Y-11078864D01*
X16256964Y-11093150D01*
X16271250Y-11107436D01*
X16285536Y-11136007D01*
X16299821Y-11193150D01*
X16299821Y-11264579D01*
X16285536Y-11321721D01*
X16271250Y-11350293D01*
X16256964Y-11364579D01*
X16228393Y-11378864D01*
X16199821Y-11378864D01*
X16171250Y-11364579D01*
X16156964Y-11350293D01*
X16142678Y-11321721D01*
X16128393Y-11264579D01*
X16128393Y-11193150D01*
X16142678Y-11136007D01*
X16156964Y-11107436D01*
X16171250Y-11093150D01*
X16199821Y-11078864D01*
X16585536Y-11378864D02*
X16414107Y-11378864D01*
X16499821Y-11378864D02*
X16499821Y-11078864D01*
X16471250Y-11121722D01*
X16442678Y-11150293D01*
X16414107Y-11164579D01*
X16699821Y-11107436D02*
X16714107Y-11093150D01*
X16742678Y-11078864D01*
X16814107Y-11078864D01*
X16842678Y-11093150D01*
X16856964Y-11107436D01*
X16871250Y-11136007D01*
X16871250Y-11164579D01*
X16856964Y-11207436D01*
X16685536Y-11378864D01*
X16871250Y-11378864D01*
X16985536Y-11078864D02*
X16985536Y-11136007D01*
X17099821Y-11078864D02*
X17099821Y-11136007D01*
X17542678Y-11493150D02*
X17528393Y-11478864D01*
X17499821Y-11436007D01*
X17485536Y-11407436D01*
X17471250Y-11364579D01*
X17456964Y-11293150D01*
X17456964Y-11236007D01*
X17471250Y-11164579D01*
X17485536Y-11121722D01*
X17499821Y-11093150D01*
X17528393Y-11050293D01*
X17542678Y-11036007D01*
X17628393Y-11078864D02*
X17814107Y-11078864D01*
X17714107Y-11193150D01*
X17756964Y-11193150D01*
X17785536Y-11207436D01*
X17799821Y-11221721D01*
X17814107Y-11250293D01*
X17814107Y-11321721D01*
X17799821Y-11350293D01*
X17785536Y-11364579D01*
X17756964Y-11378864D01*
X17671250Y-11378864D01*
X17642678Y-11364579D01*
X17628393Y-11350293D01*
X18071250Y-11178864D02*
X18071250Y-11378864D01*
X17999821Y-11064579D02*
X17928393Y-11278864D01*
X18114107Y-11278864D01*
X18456964Y-11378864D02*
X18456964Y-11078864D01*
X18585536Y-11378864D02*
X18585536Y-11221721D01*
X18571250Y-11193150D01*
X18542678Y-11178864D01*
X18499821Y-11178864D01*
X18471250Y-11193150D01*
X18456964Y-11207436D01*
X18771250Y-11378864D02*
X18742678Y-11364579D01*
X18728393Y-11350293D01*
X18714107Y-11321721D01*
X18714107Y-11236007D01*
X18728393Y-11207436D01*
X18742678Y-11193150D01*
X18771250Y-11178864D01*
X18814107Y-11178864D01*
X18842678Y-11193150D01*
X18856964Y-11207436D01*
X18871250Y-11236007D01*
X18871250Y-11321721D01*
X18856964Y-11350293D01*
X18842678Y-11364579D01*
X18814107Y-11378864D01*
X18771250Y-11378864D01*
X19042678Y-11378864D02*
X19014107Y-11364579D01*
X18999821Y-11336007D01*
X18999821Y-11078864D01*
X19271250Y-11364579D02*
X19242678Y-11378864D01*
X19185536Y-11378864D01*
X19156964Y-11364579D01*
X19142678Y-11336007D01*
X19142678Y-11221721D01*
X19156964Y-11193150D01*
X19185536Y-11178864D01*
X19242678Y-11178864D01*
X19271250Y-11193150D01*
X19285536Y-11221721D01*
X19285536Y-11250293D01*
X19142678Y-11278864D01*
X19399821Y-11364579D02*
X19428393Y-11378864D01*
X19485536Y-11378864D01*
X19514107Y-11364579D01*
X19528393Y-11336007D01*
X19528393Y-11321721D01*
X19514107Y-11293150D01*
X19485536Y-11278864D01*
X19442678Y-11278864D01*
X19414107Y-11264579D01*
X19399821Y-11236007D01*
X19399821Y-11221721D01*
X19414107Y-11193150D01*
X19442678Y-11178864D01*
X19485536Y-11178864D01*
X19514107Y-11193150D01*
X19628393Y-11493150D02*
X19642678Y-11478864D01*
X19671250Y-11436007D01*
X19685536Y-11407436D01*
X19699821Y-11364579D01*
X19714107Y-11293150D01*
X19714107Y-11236007D01*
X19699821Y-11164579D01*
X19685536Y-11121722D01*
X19671250Y-11093150D01*
X19642678Y-11050293D01*
X19628393Y-11036007D01*
X12856250Y-11639150D02*
G75*
G03*
X12856250Y-11639150I-17500J0D01*
G01*
X13199821Y-11474864D02*
X13228393Y-11474864D01*
X13256964Y-11489150D01*
X13271250Y-11503436D01*
X13285536Y-11532007D01*
X13299821Y-11589150D01*
X13299821Y-11660579D01*
X13285536Y-11717721D01*
X13271250Y-11746293D01*
X13256964Y-11760579D01*
X13228393Y-11774864D01*
X13199821Y-11774864D01*
X13171250Y-11760579D01*
X13156964Y-11746293D01*
X13142678Y-11717721D01*
X13128393Y-11660579D01*
X13128393Y-11589150D01*
X13142678Y-11532007D01*
X13156964Y-11503436D01*
X13171250Y-11489150D01*
X13199821Y-11474864D01*
X13428393Y-11746293D02*
X13442678Y-11760579D01*
X13428393Y-11774864D01*
X13414107Y-11760579D01*
X13428393Y-11746293D01*
X13428393Y-11774864D01*
X13542678Y-11474864D02*
X13728393Y-11474864D01*
X13628393Y-11589150D01*
X13671250Y-11589150D01*
X13699821Y-11603436D01*
X13714107Y-11617721D01*
X13728393Y-11646293D01*
X13728393Y-11717721D01*
X13714107Y-11746293D01*
X13699821Y-11760579D01*
X13671250Y-11774864D01*
X13585536Y-11774864D01*
X13556964Y-11760579D01*
X13542678Y-11746293D01*
X13999821Y-11474864D02*
X13856964Y-11474864D01*
X13842678Y-11617721D01*
X13856964Y-11603436D01*
X13885536Y-11589150D01*
X13956964Y-11589150D01*
X13985536Y-11603436D01*
X13999821Y-11617721D01*
X14014107Y-11646293D01*
X14014107Y-11717721D01*
X13999821Y-11746293D01*
X13985536Y-11760579D01*
X13956964Y-11774864D01*
X13885536Y-11774864D01*
X13856964Y-11760579D01*
X13842678Y-11746293D01*
X14142678Y-11774864D02*
X14142678Y-11574864D01*
X14142678Y-11603436D02*
X14156964Y-11589150D01*
X14185536Y-11574864D01*
X14228393Y-11574864D01*
X14256964Y-11589150D01*
X14271250Y-11617721D01*
X14271250Y-11774864D01*
X14271250Y-11617721D02*
X14285536Y-11589150D01*
X14314107Y-11574864D01*
X14356964Y-11574864D01*
X14385536Y-11589150D01*
X14399821Y-11617721D01*
X14399821Y-11774864D01*
X14542678Y-11774864D02*
X14542678Y-11574864D01*
X14542678Y-11603436D02*
X14556964Y-11589150D01*
X14585536Y-11574864D01*
X14628393Y-11574864D01*
X14656964Y-11589150D01*
X14671250Y-11617721D01*
X14671250Y-11774864D01*
X14671250Y-11617721D02*
X14685536Y-11589150D01*
X14714107Y-11574864D01*
X14756964Y-11574864D01*
X14785536Y-11589150D01*
X14799821Y-11617721D01*
X14799821Y-11774864D01*
X15385536Y-11460579D02*
X15128393Y-11846293D01*
X15771250Y-11474864D02*
X15799821Y-11474864D01*
X15828393Y-11489150D01*
X15842678Y-11503436D01*
X15856964Y-11532007D01*
X15871250Y-11589150D01*
X15871250Y-11660579D01*
X15856964Y-11717721D01*
X15842678Y-11746293D01*
X15828393Y-11760579D01*
X15799821Y-11774864D01*
X15771250Y-11774864D01*
X15742678Y-11760579D01*
X15728393Y-11746293D01*
X15714107Y-11717721D01*
X15699821Y-11660579D01*
X15699821Y-11589150D01*
X15714107Y-11532007D01*
X15728393Y-11503436D01*
X15742678Y-11489150D01*
X15771250Y-11474864D01*
X15999821Y-11746293D02*
X16014107Y-11760579D01*
X15999821Y-11774864D01*
X15985536Y-11760579D01*
X15999821Y-11746293D01*
X15999821Y-11774864D01*
X16199821Y-11474864D02*
X16228393Y-11474864D01*
X16256964Y-11489150D01*
X16271250Y-11503436D01*
X16285536Y-11532007D01*
X16299821Y-11589150D01*
X16299821Y-11660579D01*
X16285536Y-11717721D01*
X16271250Y-11746293D01*
X16256964Y-11760579D01*
X16228393Y-11774864D01*
X16199821Y-11774864D01*
X16171250Y-11760579D01*
X16156964Y-11746293D01*
X16142678Y-11717721D01*
X16128393Y-11660579D01*
X16128393Y-11589150D01*
X16142678Y-11532007D01*
X16156964Y-11503436D01*
X16171250Y-11489150D01*
X16199821Y-11474864D01*
X16585536Y-11774864D02*
X16414107Y-11774864D01*
X16499821Y-11774864D02*
X16499821Y-11474864D01*
X16471250Y-11517721D01*
X16442678Y-11546293D01*
X16414107Y-11560579D01*
X16842678Y-11574864D02*
X16842678Y-11774864D01*
X16771250Y-11460579D02*
X16699821Y-11674864D01*
X16885536Y-11674864D01*
X16985536Y-11474864D02*
X16985536Y-11532007D01*
X17099821Y-11474864D02*
X17099821Y-11532007D01*
X17542678Y-11889150D02*
X17528393Y-11874864D01*
X17499821Y-11832007D01*
X17485536Y-11803436D01*
X17471250Y-11760579D01*
X17456964Y-11689150D01*
X17456964Y-11632007D01*
X17471250Y-11560579D01*
X17485536Y-11517721D01*
X17499821Y-11489150D01*
X17528393Y-11446293D01*
X17542678Y-11432007D01*
X17671250Y-11774864D02*
X17728393Y-11774864D01*
X17756964Y-11760579D01*
X17771250Y-11746293D01*
X17799821Y-11703436D01*
X17814107Y-11646293D01*
X17814107Y-11532007D01*
X17799821Y-11503436D01*
X17785536Y-11489150D01*
X17756964Y-11474864D01*
X17699821Y-11474864D01*
X17671250Y-11489150D01*
X17656964Y-11503436D01*
X17642678Y-11532007D01*
X17642678Y-11603436D01*
X17656964Y-11632007D01*
X17671250Y-11646293D01*
X17699821Y-11660579D01*
X17756964Y-11660579D01*
X17785536Y-11646293D01*
X17799821Y-11632007D01*
X17814107Y-11603436D01*
X18171250Y-11774864D02*
X18171250Y-11474864D01*
X18299821Y-11774864D02*
X18299821Y-11617721D01*
X18285536Y-11589150D01*
X18256964Y-11574864D01*
X18214107Y-11574864D01*
X18185536Y-11589150D01*
X18171250Y-11603436D01*
X18485536Y-11774864D02*
X18456964Y-11760579D01*
X18442678Y-11746293D01*
X18428393Y-11717721D01*
X18428393Y-11632007D01*
X18442678Y-11603436D01*
X18456964Y-11589150D01*
X18485536Y-11574864D01*
X18528393Y-11574864D01*
X18556964Y-11589150D01*
X18571250Y-11603436D01*
X18585536Y-11632007D01*
X18585536Y-11717721D01*
X18571250Y-11746293D01*
X18556964Y-11760579D01*
X18528393Y-11774864D01*
X18485536Y-11774864D01*
X18756964Y-11774864D02*
X18728393Y-11760579D01*
X18714107Y-11732007D01*
X18714107Y-11474864D01*
X18985536Y-11760579D02*
X18956964Y-11774864D01*
X18899821Y-11774864D01*
X18871250Y-11760579D01*
X18856964Y-11732007D01*
X18856964Y-11617721D01*
X18871250Y-11589150D01*
X18899821Y-11574864D01*
X18956964Y-11574864D01*
X18985536Y-11589150D01*
X18999821Y-11617721D01*
X18999821Y-11646293D01*
X18856964Y-11674864D01*
X19114107Y-11760579D02*
X19142678Y-11774864D01*
X19199821Y-11774864D01*
X19228393Y-11760579D01*
X19242678Y-11732007D01*
X19242678Y-11717721D01*
X19228393Y-11689150D01*
X19199821Y-11674864D01*
X19156964Y-11674864D01*
X19128393Y-11660579D01*
X19114107Y-11632007D01*
X19114107Y-11617721D01*
X19128393Y-11589150D01*
X19156964Y-11574864D01*
X19199821Y-11574864D01*
X19228393Y-11589150D01*
X19342678Y-11889150D02*
X19356964Y-11874864D01*
X19385536Y-11832007D01*
X19399821Y-11803436D01*
X19414107Y-11760579D01*
X19428393Y-11689150D01*
X19428393Y-11632007D01*
X19414107Y-11560579D01*
X19399821Y-11517721D01*
X19385536Y-11489150D01*
X19356964Y-11446293D01*
X19342678Y-11432007D01*
X12836250Y-12015150D02*
X12836250Y-12055150D01*
X12816250Y-12035150D02*
X12856250Y-12035150D01*
X13199821Y-11870864D02*
X13228393Y-11870864D01*
X13256964Y-11885150D01*
X13271250Y-11899436D01*
X13285536Y-11928007D01*
X13299821Y-11985150D01*
X13299821Y-12056579D01*
X13285536Y-12113721D01*
X13271250Y-12142293D01*
X13256964Y-12156579D01*
X13228393Y-12170864D01*
X13199821Y-12170864D01*
X13171250Y-12156579D01*
X13156964Y-12142293D01*
X13142678Y-12113721D01*
X13128393Y-12056579D01*
X13128393Y-11985150D01*
X13142678Y-11928007D01*
X13156964Y-11899436D01*
X13171250Y-11885150D01*
X13199821Y-11870864D01*
X13428393Y-12142293D02*
X13442678Y-12156579D01*
X13428393Y-12170864D01*
X13414107Y-12156579D01*
X13428393Y-12142293D01*
X13428393Y-12170864D01*
X13699821Y-11970864D02*
X13699821Y-12170864D01*
X13628393Y-11856579D02*
X13556964Y-12070864D01*
X13742678Y-12070864D01*
X13914107Y-11870864D02*
X13942678Y-11870864D01*
X13971250Y-11885150D01*
X13985536Y-11899436D01*
X13999821Y-11928007D01*
X14014107Y-11985150D01*
X14014107Y-12056579D01*
X13999821Y-12113721D01*
X13985536Y-12142293D01*
X13971250Y-12156579D01*
X13942678Y-12170864D01*
X13914107Y-12170864D01*
X13885536Y-12156579D01*
X13871250Y-12142293D01*
X13856964Y-12113721D01*
X13842678Y-12056579D01*
X13842678Y-11985150D01*
X13856964Y-11928007D01*
X13871250Y-11899436D01*
X13885536Y-11885150D01*
X13914107Y-11870864D01*
X14142678Y-12170864D02*
X14142678Y-11970864D01*
X14142678Y-11999436D02*
X14156964Y-11985150D01*
X14185536Y-11970864D01*
X14228393Y-11970864D01*
X14256964Y-11985150D01*
X14271250Y-12013721D01*
X14271250Y-12170864D01*
X14271250Y-12013721D02*
X14285536Y-11985150D01*
X14314107Y-11970864D01*
X14356964Y-11970864D01*
X14385536Y-11985150D01*
X14399821Y-12013721D01*
X14399821Y-12170864D01*
X14542678Y-12170864D02*
X14542678Y-11970864D01*
X14542678Y-11999436D02*
X14556964Y-11985150D01*
X14585536Y-11970864D01*
X14628393Y-11970864D01*
X14656964Y-11985150D01*
X14671250Y-12013721D01*
X14671250Y-12170864D01*
X14671250Y-12013721D02*
X14685536Y-11985150D01*
X14714107Y-11970864D01*
X14756964Y-11970864D01*
X14785536Y-11985150D01*
X14799821Y-12013721D01*
X14799821Y-12170864D01*
X15385536Y-11856579D02*
X15128393Y-12242293D01*
X15771250Y-11870864D02*
X15799821Y-11870864D01*
X15828393Y-11885150D01*
X15842678Y-11899436D01*
X15856964Y-11928007D01*
X15871250Y-11985150D01*
X15871250Y-12056579D01*
X15856964Y-12113721D01*
X15842678Y-12142293D01*
X15828393Y-12156579D01*
X15799821Y-12170864D01*
X15771250Y-12170864D01*
X15742678Y-12156579D01*
X15728393Y-12142293D01*
X15714107Y-12113721D01*
X15699821Y-12056579D01*
X15699821Y-11985150D01*
X15714107Y-11928007D01*
X15728393Y-11899436D01*
X15742678Y-11885150D01*
X15771250Y-11870864D01*
X15999821Y-12142293D02*
X16014107Y-12156579D01*
X15999821Y-12170864D01*
X15985536Y-12156579D01*
X15999821Y-12142293D01*
X15999821Y-12170864D01*
X16199821Y-11870864D02*
X16228393Y-11870864D01*
X16256964Y-11885150D01*
X16271250Y-11899436D01*
X16285536Y-11928007D01*
X16299821Y-11985150D01*
X16299821Y-12056579D01*
X16285536Y-12113721D01*
X16271250Y-12142293D01*
X16256964Y-12156579D01*
X16228393Y-12170864D01*
X16199821Y-12170864D01*
X16171250Y-12156579D01*
X16156964Y-12142293D01*
X16142678Y-12113721D01*
X16128393Y-12056579D01*
X16128393Y-11985150D01*
X16142678Y-11928007D01*
X16156964Y-11899436D01*
X16171250Y-11885150D01*
X16199821Y-11870864D01*
X16585536Y-12170864D02*
X16414107Y-12170864D01*
X16499821Y-12170864D02*
X16499821Y-11870864D01*
X16471250Y-11913721D01*
X16442678Y-11942293D01*
X16414107Y-11956579D01*
X16842678Y-11870864D02*
X16785536Y-11870864D01*
X16756964Y-11885150D01*
X16742678Y-11899436D01*
X16714107Y-11942293D01*
X16699821Y-11999436D01*
X16699821Y-12113721D01*
X16714107Y-12142293D01*
X16728393Y-12156579D01*
X16756964Y-12170864D01*
X16814107Y-12170864D01*
X16842678Y-12156579D01*
X16856964Y-12142293D01*
X16871250Y-12113721D01*
X16871250Y-12042293D01*
X16856964Y-12013721D01*
X16842678Y-11999436D01*
X16814107Y-11985150D01*
X16756964Y-11985150D01*
X16728393Y-11999436D01*
X16714107Y-12013721D01*
X16699821Y-12042293D01*
X16985536Y-11870864D02*
X16985536Y-11928007D01*
X17099821Y-11870864D02*
X17099821Y-11928007D01*
X17542678Y-12285150D02*
X17528393Y-12270864D01*
X17499821Y-12228007D01*
X17485536Y-12199436D01*
X17471250Y-12156579D01*
X17456964Y-12085150D01*
X17456964Y-12028007D01*
X17471250Y-11956579D01*
X17485536Y-11913721D01*
X17499821Y-11885150D01*
X17528393Y-11842293D01*
X17542678Y-11828007D01*
X17628393Y-11870864D02*
X17814107Y-11870864D01*
X17714107Y-11985150D01*
X17756964Y-11985150D01*
X17785536Y-11999436D01*
X17799821Y-12013721D01*
X17814107Y-12042293D01*
X17814107Y-12113721D01*
X17799821Y-12142293D01*
X17785536Y-12156579D01*
X17756964Y-12170864D01*
X17671250Y-12170864D01*
X17642678Y-12156579D01*
X17628393Y-12142293D01*
X18171250Y-12170864D02*
X18171250Y-11870864D01*
X18299821Y-12170864D02*
X18299821Y-12013721D01*
X18285536Y-11985150D01*
X18256964Y-11970864D01*
X18214107Y-11970864D01*
X18185536Y-11985150D01*
X18171250Y-11999436D01*
X18485536Y-12170864D02*
X18456964Y-12156579D01*
X18442678Y-12142293D01*
X18428393Y-12113721D01*
X18428393Y-12028007D01*
X18442678Y-11999436D01*
X18456964Y-11985150D01*
X18485536Y-11970864D01*
X18528393Y-11970864D01*
X18556964Y-11985150D01*
X18571250Y-11999436D01*
X18585536Y-12028007D01*
X18585536Y-12113721D01*
X18571250Y-12142293D01*
X18556964Y-12156579D01*
X18528393Y-12170864D01*
X18485536Y-12170864D01*
X18756964Y-12170864D02*
X18728393Y-12156579D01*
X18714107Y-12128007D01*
X18714107Y-11870864D01*
X18985536Y-12156579D02*
X18956964Y-12170864D01*
X18899821Y-12170864D01*
X18871250Y-12156579D01*
X18856964Y-12128007D01*
X18856964Y-12013721D01*
X18871250Y-11985150D01*
X18899821Y-11970864D01*
X18956964Y-11970864D01*
X18985536Y-11985150D01*
X18999821Y-12013721D01*
X18999821Y-12042293D01*
X18856964Y-12070864D01*
X19114107Y-12156579D02*
X19142678Y-12170864D01*
X19199821Y-12170864D01*
X19228393Y-12156579D01*
X19242678Y-12128007D01*
X19242678Y-12113721D01*
X19228393Y-12085150D01*
X19199821Y-12070864D01*
X19156964Y-12070864D01*
X19128393Y-12056579D01*
X19114107Y-12028007D01*
X19114107Y-12013721D01*
X19128393Y-11985150D01*
X19156964Y-11970864D01*
X19199821Y-11970864D01*
X19228393Y-11985150D01*
X19342678Y-12285150D02*
X19356964Y-12270864D01*
X19385536Y-12228007D01*
X19399821Y-12199436D01*
X19414107Y-12156579D01*
X19428393Y-12085150D01*
X19428393Y-12028007D01*
X19414107Y-11956579D01*
X19399821Y-11913721D01*
X19385536Y-11885150D01*
X19356964Y-11842293D01*
X19342678Y-11828007D01*
X12841606Y-12466506D02*
X12841606Y-12395794D01*
X12770894Y-12395794D01*
X12770894Y-12466506D01*
X12841606Y-12466506D01*
X13299821Y-12566864D02*
X13128393Y-12566864D01*
X13214107Y-12566864D02*
X13214107Y-12266864D01*
X13185536Y-12309721D01*
X13156964Y-12338293D01*
X13128393Y-12352579D01*
X13428393Y-12538293D02*
X13442678Y-12552579D01*
X13428393Y-12566864D01*
X13414107Y-12552579D01*
X13428393Y-12538293D01*
X13428393Y-12566864D01*
X13628393Y-12266864D02*
X13656964Y-12266864D01*
X13685536Y-12281150D01*
X13699821Y-12295436D01*
X13714107Y-12324007D01*
X13728393Y-12381150D01*
X13728393Y-12452579D01*
X13714107Y-12509721D01*
X13699821Y-12538293D01*
X13685536Y-12552579D01*
X13656964Y-12566864D01*
X13628393Y-12566864D01*
X13599821Y-12552579D01*
X13585536Y-12538293D01*
X13571250Y-12509721D01*
X13556964Y-12452579D01*
X13556964Y-12381150D01*
X13571250Y-12324007D01*
X13585536Y-12295436D01*
X13599821Y-12281150D01*
X13628393Y-12266864D01*
X13914107Y-12266864D02*
X13942678Y-12266864D01*
X13971250Y-12281150D01*
X13985536Y-12295436D01*
X13999821Y-12324007D01*
X14014107Y-12381150D01*
X14014107Y-12452579D01*
X13999821Y-12509721D01*
X13985536Y-12538293D01*
X13971250Y-12552579D01*
X13942678Y-12566864D01*
X13914107Y-12566864D01*
X13885536Y-12552579D01*
X13871250Y-12538293D01*
X13856964Y-12509721D01*
X13842678Y-12452579D01*
X13842678Y-12381150D01*
X13856964Y-12324007D01*
X13871250Y-12295436D01*
X13885536Y-12281150D01*
X13914107Y-12266864D01*
X14142678Y-12566864D02*
X14142678Y-12366864D01*
X14142678Y-12395436D02*
X14156964Y-12381150D01*
X14185536Y-12366864D01*
X14228393Y-12366864D01*
X14256964Y-12381150D01*
X14271250Y-12409721D01*
X14271250Y-12566864D01*
X14271250Y-12409721D02*
X14285536Y-12381150D01*
X14314107Y-12366864D01*
X14356964Y-12366864D01*
X14385536Y-12381150D01*
X14399821Y-12409721D01*
X14399821Y-12566864D01*
X14542678Y-12566864D02*
X14542678Y-12366864D01*
X14542678Y-12395436D02*
X14556964Y-12381150D01*
X14585536Y-12366864D01*
X14628393Y-12366864D01*
X14656964Y-12381150D01*
X14671250Y-12409721D01*
X14671250Y-12566864D01*
X14671250Y-12409721D02*
X14685536Y-12381150D01*
X14714107Y-12366864D01*
X14756964Y-12366864D01*
X14785536Y-12381150D01*
X14799821Y-12409721D01*
X14799821Y-12566864D01*
X15385536Y-12252579D02*
X15128393Y-12638293D01*
X15771250Y-12266864D02*
X15799821Y-12266864D01*
X15828393Y-12281150D01*
X15842678Y-12295436D01*
X15856964Y-12324007D01*
X15871250Y-12381150D01*
X15871250Y-12452579D01*
X15856964Y-12509721D01*
X15842678Y-12538293D01*
X15828393Y-12552579D01*
X15799821Y-12566864D01*
X15771250Y-12566864D01*
X15742678Y-12552579D01*
X15728393Y-12538293D01*
X15714107Y-12509721D01*
X15699821Y-12452579D01*
X15699821Y-12381150D01*
X15714107Y-12324007D01*
X15728393Y-12295436D01*
X15742678Y-12281150D01*
X15771250Y-12266864D01*
X15999821Y-12538293D02*
X16014107Y-12552579D01*
X15999821Y-12566864D01*
X15985536Y-12552579D01*
X15999821Y-12538293D01*
X15999821Y-12566864D01*
X16199821Y-12266864D02*
X16228393Y-12266864D01*
X16256964Y-12281150D01*
X16271250Y-12295436D01*
X16285536Y-12324007D01*
X16299821Y-12381150D01*
X16299821Y-12452579D01*
X16285536Y-12509721D01*
X16271250Y-12538293D01*
X16256964Y-12552579D01*
X16228393Y-12566864D01*
X16199821Y-12566864D01*
X16171250Y-12552579D01*
X16156964Y-12538293D01*
X16142678Y-12509721D01*
X16128393Y-12452579D01*
X16128393Y-12381150D01*
X16142678Y-12324007D01*
X16156964Y-12295436D01*
X16171250Y-12281150D01*
X16199821Y-12266864D01*
X16399821Y-12266864D02*
X16585536Y-12266864D01*
X16485536Y-12381150D01*
X16528393Y-12381150D01*
X16556964Y-12395436D01*
X16571250Y-12409721D01*
X16585536Y-12438293D01*
X16585536Y-12509721D01*
X16571250Y-12538293D01*
X16556964Y-12552579D01*
X16528393Y-12566864D01*
X16442678Y-12566864D01*
X16414107Y-12552579D01*
X16399821Y-12538293D01*
X16728393Y-12566864D02*
X16785536Y-12566864D01*
X16814107Y-12552579D01*
X16828393Y-12538293D01*
X16856964Y-12495436D01*
X16871250Y-12438293D01*
X16871250Y-12324007D01*
X16856964Y-12295436D01*
X16842678Y-12281150D01*
X16814107Y-12266864D01*
X16756964Y-12266864D01*
X16728393Y-12281150D01*
X16714107Y-12295436D01*
X16699821Y-12324007D01*
X16699821Y-12395436D01*
X16714107Y-12424007D01*
X16728393Y-12438293D01*
X16756964Y-12452579D01*
X16814107Y-12452579D01*
X16842678Y-12438293D01*
X16856964Y-12424007D01*
X16871250Y-12395436D01*
X16985536Y-12266864D02*
X16985536Y-12324007D01*
X17099821Y-12266864D02*
X17099821Y-12324007D01*
X17542678Y-12681150D02*
X17528393Y-12666864D01*
X17499821Y-12624007D01*
X17485536Y-12595436D01*
X17471250Y-12552579D01*
X17456964Y-12481150D01*
X17456964Y-12424007D01*
X17471250Y-12352579D01*
X17485536Y-12309721D01*
X17499821Y-12281150D01*
X17528393Y-12238293D01*
X17542678Y-12224007D01*
X17642678Y-12295436D02*
X17656964Y-12281150D01*
X17685536Y-12266864D01*
X17756964Y-12266864D01*
X17785536Y-12281150D01*
X17799821Y-12295436D01*
X17814107Y-12324007D01*
X17814107Y-12352579D01*
X17799821Y-12395436D01*
X17628393Y-12566864D01*
X17814107Y-12566864D01*
X18071250Y-12366864D02*
X18071250Y-12566864D01*
X17999821Y-12252579D02*
X17928393Y-12466864D01*
X18114107Y-12466864D01*
X18456964Y-12566864D02*
X18456964Y-12266864D01*
X18585536Y-12566864D02*
X18585536Y-12409721D01*
X18571250Y-12381150D01*
X18542678Y-12366864D01*
X18499821Y-12366864D01*
X18471250Y-12381150D01*
X18456964Y-12395436D01*
X18771250Y-12566864D02*
X18742678Y-12552579D01*
X18728393Y-12538293D01*
X18714107Y-12509721D01*
X18714107Y-12424007D01*
X18728393Y-12395436D01*
X18742678Y-12381150D01*
X18771250Y-12366864D01*
X18814107Y-12366864D01*
X18842678Y-12381150D01*
X18856964Y-12395436D01*
X18871250Y-12424007D01*
X18871250Y-12509721D01*
X18856964Y-12538293D01*
X18842678Y-12552579D01*
X18814107Y-12566864D01*
X18771250Y-12566864D01*
X19042678Y-12566864D02*
X19014107Y-12552579D01*
X18999821Y-12524007D01*
X18999821Y-12266864D01*
X19271250Y-12552579D02*
X19242678Y-12566864D01*
X19185536Y-12566864D01*
X19156964Y-12552579D01*
X19142678Y-12524007D01*
X19142678Y-12409721D01*
X19156964Y-12381150D01*
X19185536Y-12366864D01*
X19242678Y-12366864D01*
X19271250Y-12381150D01*
X19285536Y-12409721D01*
X19285536Y-12438293D01*
X19142678Y-12466864D01*
X19399821Y-12552579D02*
X19428393Y-12566864D01*
X19485536Y-12566864D01*
X19514107Y-12552579D01*
X19528393Y-12524007D01*
X19528393Y-12509721D01*
X19514107Y-12481150D01*
X19485536Y-12466864D01*
X19442678Y-12466864D01*
X19414107Y-12452579D01*
X19399821Y-12424007D01*
X19399821Y-12409721D01*
X19414107Y-12381150D01*
X19442678Y-12366864D01*
X19485536Y-12366864D01*
X19514107Y-12381150D01*
X19628393Y-12681150D02*
X19642678Y-12666864D01*
X19671250Y-12624007D01*
X19685536Y-12595436D01*
X19699821Y-12552579D01*
X19714107Y-12481150D01*
X19714107Y-12424007D01*
X19699821Y-12352579D01*
X19685536Y-12309721D01*
X19671250Y-12281150D01*
X19642678Y-12238293D01*
X19628393Y-12224007D01*
M02*
