M48
; DRILL file {KiCad (5.1.6)-1} date 01/16/24 16:31:15
; FORMAT={-:-/ absolute / metric / decimal}
; #@! TF.CreationDate,2024-01-16T16:31:15-05:00
; #@! TF.GenerationSoftware,Kicad,Pcbnew,(5.1.6)-1
; #@! TF.FileFunction,Plated,1,4,PTH
FMAT,2
METRIC
T1C0.300
T2C0.350
T3C0.400
T4C1.000
%
G90
G05
T1
X133.858Y-71.12
X135.319Y-78.994
X139.954Y-74.803
X140.144Y-79.629
X140.144Y-80.264
X141.415Y-91.63
X141.732Y-74.867
X141.986Y-71.056
X144.78Y-66.294
X145.606Y-83.185
X146.24Y-79.566
X146.304Y-87.566
X146.968Y-91.759
X147.002Y-85.154
X147.383Y-79.566
X147.447Y-66.294
X147.579Y-84.577
X147.891Y-95.186
X148.653Y-79.566
X148.653Y-92.265
X148.717Y-89.789
X150.749Y-85.026
X151.13Y-92.011
X151.479Y-85.756
X152.654Y-83.345
X153.035Y-84.328
X153.606Y-89.408
X154.051Y-94.424
X156.019Y-76.644
X157.162Y-70.612
X157.48Y-82.042
X157.543Y-66.23
X161.036Y-72.834
X162.172Y-74.238
T2
X146.901Y-86.55
X147.803Y-85.649
X147.803Y-87.452
X148.704Y-84.747
X148.704Y-86.55
X148.704Y-88.354
X149.606Y-85.649
X149.606Y-87.452
X150.508Y-86.55
T3
X131.953Y-69.278
X138.938Y-69.787
X140.843Y-69.787
T4
X166.878Y-86.487
X166.878Y-89.027
X166.878Y-80.2
X166.878Y-82.74
X141.08Y-68.135
X143.62Y-68.135
X146.16Y-68.135
X148.7Y-68.135
X151.24Y-68.135
X153.78Y-68.135
X156.32Y-68.135
X158.86Y-68.135
X141.082Y-64.414
X143.622Y-64.414
X146.162Y-64.414
X148.702Y-64.414
X151.242Y-64.414
X153.782Y-64.414
X156.322Y-64.414
X158.862Y-64.414
X132.842Y-75.184
X132.842Y-77.724
X132.842Y-80.264
X132.842Y-82.804
T0
M30
